<?xml version="1.0" encoding="utf-8"?>
<!-- Generator: Adobe Illustrator 24.0.1, SVG Export Plug-In . SVG Version: 6.00 Build 0)  -->
<svg version="1.1" id="圖層_1" xmlns="http://www.w3.org/2000/svg" xmlns:xlink="http://www.w3.org/1999/xlink" x="0px" y="0px"
	 viewBox="0 0 59.6 78.4" style="enable-background:new 0 0 59.6 78.4;" xml:space="preserve">
<style type="text/css">
	.st0{fill:url(#SVGID_1_);}
	.st1{fill:url(#SVGID_2_);}
	.st2{fill:url(#SVGID_3_);}
	.st3{fill:url(#SVGID_4_);}
	.st4{fill:url(#SVGID_5_);}
	.st5{fill-rule:evenodd;clip-rule:evenodd;fill:url(#SVGID_6_);}
</style>
<title>icon.v2</title>
<g id="圖層_2_1_">
	
		<linearGradient id="SVGID_1_" gradientUnits="userSpaceOnUse" x1="29.7939" y1="78.2198" x2="29.7939" y2="-0.9602" gradientTransform="matrix(1 0 0 -1 0 77.8898)">
		<stop  offset="0.21" style="stop-color:#DD1C53"/>
		<stop  offset="0.33" style="stop-color:#DE2054"/>
		<stop  offset="0.45" style="stop-color:#E02B58"/>
		<stop  offset="0.56" style="stop-color:#E33E5E"/>
		<stop  offset="0.67" style="stop-color:#E85867"/>
		<stop  offset="0.78" style="stop-color:#EE7A73"/>
		<stop  offset="0.88" style="stop-color:#F5A381"/>
		<stop  offset="0.99" style="stop-color:#FED491"/>
		<stop  offset="1" style="stop-color:#FFDB94"/>
	</linearGradient>
	<path class="st0" d="M56.1,16.1C49.4,2.3,35,0.2,30.2,0l0,0h-0.8l0,0C24.6,0.2,10.2,2.3,3.5,16.1c-8,16.3-0.3,28.3,4.6,34.6
		s19.1,25.6,19.1,25.6s1.5,2,2.5,2.2h0.2c1-0.2,2.5-2.2,2.5-2.2S46.7,57,51.5,50.7S64.1,32.4,56.1,16.1z"/>
	
		<linearGradient id="SVGID_2_" gradientUnits="userSpaceOnUse" x1="29.6641" y1="60.9998" x2="29.6641" y2="24.0498" gradientTransform="matrix(1 0 0 -1 0 77.8898)">
		<stop  offset="0" style="stop-color:#FBF1F3"/>
		<stop  offset="0.29" style="stop-color:#F8E7EB"/>
		<stop  offset="0.78" style="stop-color:#F1CBD4"/>
		<stop  offset="1" style="stop-color:#EDBCC8"/>
	</linearGradient>
	<path class="st1" d="M45.2,48H20c-2,0-3.7-1.7-3.7-3.7l0,0V19.1c0-1.2-1-2.2-2.2-2.2s-2.2,1-2.2,2.2l0,0v25.2
		c0,4.5,3.6,8.1,8.1,8.1h25.2c1.2,0,2.2-1,2.2-2.2C47.4,49,46.4,48,45.2,48L45.2,48z"/>
	
		<linearGradient id="SVGID_3_" gradientUnits="userSpaceOnUse" x1="23.32" y1="46.5443" x2="23.32" y2="31.8143" gradientTransform="matrix(1 0 0 -1 0 77.8898)">
		<stop  offset="0" style="stop-color:#FBF1F3"/>
		<stop  offset="0.29" style="stop-color:#F8E7EB"/>
		<stop  offset="0.78" style="stop-color:#F1CBD4"/>
		<stop  offset="1" style="stop-color:#EDBCC8"/>
	</linearGradient>
	<path class="st2" d="M23.3,45.5c1.2,0.1,2.3-0.9,2.3-2.1v-9.9c-0.1-1.3-1.3-2.2-2.5-2.1c-1.1,0.1-2,1-2.1,2.1v9.9
		C21.1,44.6,22.1,45.6,23.3,45.5z"/>
	
		<linearGradient id="SVGID_4_" gradientUnits="userSpaceOnUse" x1="30.55" y1="42.3998" x2="30.55" y2="31.9898" gradientTransform="matrix(1 0 0 -1 0 77.8898)">
		<stop  offset="0" style="stop-color:#FBF1F3"/>
		<stop  offset="0.29" style="stop-color:#F8E7EB"/>
		<stop  offset="0.78" style="stop-color:#F1CBD4"/>
		<stop  offset="1" style="stop-color:#EDBCC8"/>
	</linearGradient>
	<path class="st3" d="M30.5,45.5c1.2,0,2.3-0.9,2.3-2.2v-5.7c-0.1-1.3-1.3-2.2-2.5-2.1c-1.1,0.1-2,1-2.1,2.1v5.7
		C28.3,44.6,29.3,45.5,30.5,45.5z"/>
	
		<linearGradient id="SVGID_5_" gradientUnits="userSpaceOnUse" x1="37.785" y1="48.9298" x2="37.785" y2="31.7298" gradientTransform="matrix(1 0 0 -1 0 77.8898)">
		<stop  offset="0" style="stop-color:#FBF1F3"/>
		<stop  offset="0.29" style="stop-color:#F8E7EB"/>
		<stop  offset="0.78" style="stop-color:#F1CBD4"/>
		<stop  offset="1" style="stop-color:#EDBCC8"/>
	</linearGradient>
	<path class="st4" d="M37.8,45.5c1.3,0,2.3-1,2.3-2.2c0,0,0,0,0,0v-12C40,30,38.9,29,37.6,29.1c-1.2,0.1-2.1,1-2.2,2.2v12
		C35.5,44.5,36.5,45.5,37.8,45.5C37.8,45.5,37.8,45.5,37.8,45.5z"/>
	
		<linearGradient id="SVGID_6_" gradientUnits="userSpaceOnUse" x1="37.21" y1="76.2898" x2="37.21" y2="50.5698" gradientTransform="matrix(1 0 0 -1 0 77.8898)">
		<stop  offset="0" style="stop-color:#545AFF"/>
		<stop  offset="1" style="stop-color:#46BEFF"/>
	</linearGradient>
	<path class="st5" d="M52.8,27.9L47,23.1c2.4-3.7,1.3-8.7-2.4-11.1s-8.7-1.3-11.1,2.4c-2,3.2-1.6,7.3,1.1,10
		c0.3,0.2,0.5,0.5,0.8,0.7l-4.1,4.1C31,29,30.7,29,30.3,29c-0.6,0-1.1,0.2-1.5,0.6l-3.5-2.4c0.1-0.2,0.1-0.4,0.1-0.6
		c0-1.2-1-2.2-2.2-2.2c-1.2,0-2.2,1-2.2,2.2c0,1.2,1,2.2,2.2,2.2c0.6,0,1.2-0.3,1.6-0.7l3.4,2.3c-0.1,0.2-0.1,0.5-0.1,0.8
		c0,1.2,1,2.2,2.2,2.2c1.2,0,2.2-1,2.2-2.2c0-0.5-0.2-1-0.5-1.4l4.2-4.2c2.6,1.5,5.8,1.5,8.3-0.2l4.8,5.8c0.9,0.9,2.4,0.9,3.4,0
		S53.7,28.8,52.8,27.9L52.8,27.9L52.8,27.9z M43.8,22.2c-1.9,1.9-5,1.9-6.9,0c-1.9-1.9-1.9-5,0-6.9c1.9-1.9,5-1.9,6.9,0
		C45.7,17.2,45.7,20.3,43.8,22.2C43.8,22.2,43.8,22.2,43.8,22.2L43.8,22.2z"/>
</g>
</svg>
