<?xml version="1.0" encoding="utf-8"?>
<!-- Generator: Adobe Illustrator 24.0.1, SVG Export Plug-In . SVG Version: 6.00 Build 0)  -->
<svg version="1.1" id="圖層_1" xmlns="http://www.w3.org/2000/svg" xmlns:xlink="http://www.w3.org/1999/xlink" x="0px" y="0px"
	 viewBox="0 0 59.6 78.4" style="enable-background:new 0 0 59.6 78.4;" xml:space="preserve">
<style type="text/css">
	.st0{fill:url(#SVGID_1_);}
	.st1{fill:url(#SVGID_2_);}
	.st2{fill:url(#SVGID_3_);}
	.st3{fill:url(#SVGID_4_);}
	.st4{fill:url(#SVGID_5_);}
	.st5{fill:url(#SVGID_6_);}
</style>
<title>icon.v2</title>
<g id="圖層_2_1_">
	
		<linearGradient id="SVGID_1_" gradientUnits="userSpaceOnUse" x1="29.7939" y1="-0.5102" x2="29.7939" y2="77.8898" gradientTransform="matrix(1 0 0 -1 0 77.8898)">
		<stop  offset="0" style="stop-color:#545AFF"/>
		<stop  offset="1" style="stop-color:#46BEFF"/>
	</linearGradient>
	<path class="st0" d="M56.1,16.1C49.4,2.3,35,0.2,30.2,0l0,0h-0.8l0,0C24.6,0.2,10.2,2.3,3.5,16.1c-8,16.3-0.3,28.3,4.6,34.6
		s19.1,25.6,19.1,25.6s1.5,2,2.5,2.2h0.2c1-0.2,2.5-2.2,2.5-2.2S46.7,57,51.5,50.7S64.1,32.4,56.1,16.1z"/>
	
		<linearGradient id="SVGID_2_" gradientUnits="userSpaceOnUse" x1="29.8402" y1="72.6298" x2="29.8402" y2="50.0098" gradientTransform="matrix(1 0 0 -1 0 77.8898)">
		<stop  offset="0" style="stop-color:#AEDCFF"/>
		<stop  offset="0.3" style="stop-color:#B8E1FF"/>
		<stop  offset="0.82" style="stop-color:#D4EDFF"/>
		<stop  offset="1" style="stop-color:#DFF2FF"/>
	</linearGradient>
	<path class="st1" d="M43.1,19.9c-2.1-7.3-9.6-11.6-17-9.5c-4.6,1.3-8.3,4.9-9.5,9.5c-6.4,1.7-9.7,5.3-9.7,11
		c0,7.1,5.3,11.5,13.8,11.5h8.2v-4.3h-8.2c-2.2,0-9.5-0.5-9.5-7.2c0-3.8,2.4-6,7.6-7.1l1.5-0.3l0.2-1.5c0.9-5.2,5.8-8.6,10.9-7.7
		c4,0.7,7.1,3.8,7.7,7.7l0.2,1.5l1.5,0.3c5.2,1,7.6,3.3,7.6,7.1c0,6.7-7.2,7.2-9.5,7.2h-8.2v4.3H39c8.5,0,13.8-4.4,13.8-11.5
		C52.8,25.2,49.5,21.6,43.1,19.9z"/>
	
		<linearGradient id="SVGID_3_" gradientUnits="userSpaceOnUse" x1="29.8851" y1="32.6298" x2="29.8851" y2="51.2698" gradientTransform="matrix(1 0 0 -1 0 77.8898)">
		<stop  offset="0.19" style="stop-color:#FFF2B2"/>
		<stop  offset="0.45" style="stop-color:#FFF6BC"/>
		<stop  offset="0.85" style="stop-color:#FFFFD5"/>
	</linearGradient>
	<path class="st2" d="M43,27.9c-0.3-0.3-0.7-0.5-1.1-0.5h-24c-0.9,0-1.6,0.7-1.6,1.5c0,0,0,0,0,0v5.2c0,0.9,0.7,1.6,1.5,1.6
		c0,0,0,0,0,0h24c0.9,0,1.5-0.7,1.6-1.5c0,0,0,0,0,0V29C43.5,28.6,43.3,28.2,43,27.9z M36.9,33.4c-0.2,0.2-0.5,0.3-0.7,0.3
		c-0.3,0-0.5-0.1-0.7-0.3c-0.4-0.4-0.4-1-0.1-1.4c0,0,0,0,0.1-0.1c0.2-0.2,0.5-0.3,0.7-0.3c0.6,0,1,0.4,1,1
		C37.2,32.9,37.1,33.2,36.9,33.4L36.9,33.4z M41.1,33.4c-0.4,0.4-1,0.4-1.4,0.1c0,0,0,0-0.1-0.1c-0.4-0.4-0.4-1,0-1.4
		c0.4-0.4,1-0.4,1.4,0C41.4,32.4,41.4,33,41.1,33.4C41,33.4,41,33.5,41.1,33.4L41.1,33.4z"/>
	
		<linearGradient id="SVGID_4_" gradientUnits="userSpaceOnUse" x1="29.8635" y1="59.9498" x2="29.8635" y2="24.4698" gradientTransform="matrix(1 0 0 -1 0 77.8898)">
		<stop  offset="0.16" style="stop-color:#FD5D00"/>
		<stop  offset="0.28" style="stop-color:#FD6700"/>
		<stop  offset="0.49" style="stop-color:#FE8300"/>
		<stop  offset="0.76" style="stop-color:#FEB000"/>
		<stop  offset="1" style="stop-color:#FFDD00"/>
	</linearGradient>
	<path class="st3" d="M36,46.8h-3.4v-11c0-1.5-1.2-2.7-2.7-2.7c-1.5,0-2.7,1.2-2.7,2.7v11h-3.7c-1.6,0-1.9,1.3-0.8,2.3l1.4,1.4l3,3
		l0.9,0.9c1.3,1.3,2.5,1.3,3.9,0l0.7-0.7l3.3-3.2l1.3-1.3C38,48.2,37.9,46.8,36,46.8z"/>
	
		<linearGradient id="SVGID_5_" gradientUnits="userSpaceOnUse" x1="36.16" y1="47.9098" x2="36.16" y2="44.2298" gradientTransform="matrix(1 0 0 -1 0 77.8898)">
		<stop  offset="0.16" style="stop-color:#FD5D00"/>
		<stop  offset="0.28" style="stop-color:#FD6700"/>
		<stop  offset="0.49" style="stop-color:#FE8300"/>
		<stop  offset="0.76" style="stop-color:#FEB000"/>
		<stop  offset="1" style="stop-color:#FFDD00"/>
	</linearGradient>
	<path class="st4" d="M36.1,33.9c0.6,0,1.2-0.5,1.2-1.1s-0.5-1.2-1.1-1.2c-0.6,0-1.2,0.5-1.2,1.1c0,0,0,0,0,0
		C35,33.3,35.5,33.8,36.1,33.9z"/>
	
		<linearGradient id="SVGID_6_" gradientUnits="userSpaceOnUse" x1="40.18" y1="47.9098" x2="40.18" y2="44.2298" gradientTransform="matrix(1 0 0 -1 0 77.8898)">
		<stop  offset="0.16" style="stop-color:#FD5D00"/>
		<stop  offset="0.28" style="stop-color:#FD6700"/>
		<stop  offset="0.49" style="stop-color:#FE8300"/>
		<stop  offset="0.76" style="stop-color:#FEB000"/>
		<stop  offset="1" style="stop-color:#FFDD00"/>
	</linearGradient>
	<path class="st5" d="M40.2,31.5c-0.6,0-1.2,0.5-1.2,1.2c0,0.6,0.5,1.2,1.2,1.2c0.6,0,1.2-0.5,1.2-1.2c0,0,0,0,0,0
		C41.3,32.1,40.8,31.5,40.2,31.5z"/>
</g>
</svg>
