<svg xmlns="http://www.w3.org/2000/svg" xmlns:xlink="http://www.w3.org/1999/xlink" viewBox="0 0 59.6 78.41"><defs><style>.cls-1{fill:#e6e6e6;}.cls-2{fill:url(#未命名漸層_39);}.cls-3{fill:url(#未命名漸層_44);}.cls-4{fill:url(#未命名漸層_68);}.cls-5{fill:url(#未命名漸層_53);}.cls-6{fill:url(#未命名漸層_53-2);}.cls-7{fill:url(#未命名漸層_53-3);}</style><linearGradient id="未命名漸層_39" x1="29.8" y1="-0.33" x2="29.8" y2="78.85" gradientUnits="userSpaceOnUse"><stop offset="0.21" stop-color="#dd1c53"/><stop offset="0.33" stop-color="#de2054"/><stop offset="0.45" stop-color="#e02b58"/><stop offset="0.56" stop-color="#e33e5e"/><stop offset="0.67" stop-color="#e85867"/><stop offset="0.78" stop-color="#ee7a73"/><stop offset="0.88" stop-color="#f5a381"/><stop offset="0.99" stop-color="#fed491"/><stop offset="1" stop-color="#ffdb94"/></linearGradient><linearGradient id="未命名漸層_44" x1="29.86" y1="5.66" x2="29.86" y2="28.28" gradientUnits="userSpaceOnUse"><stop offset="0" stop-color="#fbf1f3"/><stop offset="0.29" stop-color="#f8e7eb"/><stop offset="0.78" stop-color="#f1cbd4"/><stop offset="1" stop-color="#edbcc8"/></linearGradient><linearGradient id="未命名漸層_68" x1="29.86" y1="45.66" x2="29.86" y2="27.02" gradientUnits="userSpaceOnUse"><stop offset="0" stop-color="#aedcff"/><stop offset="0.3" stop-color="#b8e1ff"/><stop offset="0.82" stop-color="#d4edff"/><stop offset="1" stop-color="#dff2ff"/></linearGradient><linearGradient id="未命名漸層_53" x1="29.86" y1="18.34" x2="29.86" y2="53.82" gradientUnits="userSpaceOnUse"><stop offset="0" stop-color="#545aff"/><stop offset="1" stop-color="#46beff"/></linearGradient><linearGradient id="未命名漸層_53-2" x1="36.12" y1="30.38" x2="36.12" y2="34.06" xlink:href="#未命名漸層_53"/><linearGradient id="未命名漸層_53-3" x1="40.18" y1="30.38" x2="40.18" y2="34.06" xlink:href="#未命名漸層_53"/></defs><title>icon.v2</title><g id="圖層_3" data-name="圖層 3"><rect class="cls-1" x="-489.72" y="-137.01" width="702.75" height="269.75"/></g><g id="圖層_2" data-name="圖層 2"><path class="cls-2" d="M56.14,16.08C49.38,2.3,35,.23,30.22,0V0h-.84V0C24.58.23,10.21,2.3,3.45,16.08c-8,16.29-.27,28.28,4.61,34.6S27.21,76.25,27.21,76.25s1.48,2,2.51,2.15h.16c1-.2,2.51-2.15,2.51-2.15S46.66,57,51.54,50.68,64.13,32.37,56.14,16.08Z"/><path class="cls-3" d="M43.12,20.31a13.77,13.77,0,0,0-26.52,0c-6.42,1.66-9.68,5.34-9.68,11,0,7.12,5.27,11.54,13.76,11.54h8.21v-4.3H20.68c-2.22,0-9.46-.52-9.46-7.24,0-3.79,2.42-6,7.61-7.07l1.46-.29.24-1.47a9.47,9.47,0,0,1,18.67,0l.24,1.47,1.46.29c5.19,1,7.61,3.28,7.61,7.07,0,6.72-7.25,7.24-9.47,7.24H30.86v4.3H39c8.49,0,13.76-4.42,13.76-11.54C52.8,25.65,49.55,22,43.12,20.31Z"/><path class="cls-4" d="M43,28.34a1.54,1.54,0,0,0-1.11-.45h-24a1.55,1.55,0,0,0-1.57,1.56v5.22a1.55,1.55,0,0,0,1.57,1.56h24a1.54,1.54,0,0,0,1.56-1.56V29.45A1.54,1.54,0,0,0,43,28.34Zm-6.11,5.5a1.05,1.05,0,0,1-.74.31,1,1,0,0,1-.73-.31,1,1,0,0,1,0-1.47,1,1,0,0,1,.73-.31,1,1,0,0,1,1,1A1,1,0,0,1,36.86,33.84Zm4.17,0a1,1,0,0,1-1.47,0A1,1,0,1,1,41,32.37a1,1,0,0,1,0,1.47Z"/><path class="cls-5" d="M36,47.21H32.62v-11a2.72,2.72,0,0,0-5.44,0v11H23.5c-1.62,0-1.9,1.27-.83,2.33l1.38,1.37,3,3,.93.92c1.29,1.28,2.54,1.32,3.89,0l.69-.67,3.28-3.25,1.31-1.3C38.05,48.63,37.94,47.21,36,47.21Z"/><path class="cls-6" d="M36.12,34.26A1.16,1.16,0,1,0,35,33.1,1.15,1.15,0,0,0,36.12,34.26Z"/><path class="cls-7" d="M40.18,32a1.16,1.16,0,1,0,1.16,1.15A1.16,1.16,0,0,0,40.18,32Z"/></g></svg>