<?xml version="1.0" encoding="utf-8"?>
<!-- Generator: Adobe Illustrator 24.0.1, SVG Export Plug-In . SVG Version: 6.00 Build 0)  -->
<svg version="1.1" id="圖層_1" xmlns="http://www.w3.org/2000/svg" xmlns:xlink="http://www.w3.org/1999/xlink" x="0px" y="0px"
	 viewBox="0 0 59.6 78.4" style="enable-background:new 0 0 59.6 78.4;" xml:space="preserve">
<style type="text/css">
	.st0{fill:url(#SVGID_1_);}
	.st1{fill:url(#SVGID_2_);}
	.st2{fill:url(#SVGID_3_);}
	.st3{fill:url(#SVGID_4_);}
	.st4{fill:url(#SVGID_5_);}
	.st5{fill:url(#SVGID_6_);}
	.st6{fill:url(#SVGID_7_);}
</style>
<title>icon.v2</title>
<g id="圖層_2_1_">
	
		<linearGradient id="SVGID_1_" gradientUnits="userSpaceOnUse" x1="29.7939" y1="78.2198" x2="29.7939" y2="-0.9602" gradientTransform="matrix(1 0 0 -1 0 77.8898)">
		<stop  offset="0.21" style="stop-color:#DD1C53"/>
		<stop  offset="0.33" style="stop-color:#DE2054"/>
		<stop  offset="0.45" style="stop-color:#E02B58"/>
		<stop  offset="0.56" style="stop-color:#E33E5E"/>
		<stop  offset="0.67" style="stop-color:#E85867"/>
		<stop  offset="0.78" style="stop-color:#EE7A73"/>
		<stop  offset="0.88" style="stop-color:#F5A381"/>
		<stop  offset="0.99" style="stop-color:#FED491"/>
		<stop  offset="1" style="stop-color:#FFDB94"/>
	</linearGradient>
	<path class="st0" d="M56.1,16.1C49.4,2.3,35,0.2,30.2,0l0,0h-0.8l0,0C24.6,0.2,10.2,2.3,3.5,16.1c-8,16.3-0.3,28.3,4.6,34.6
		s19.1,25.6,19.1,25.6s1.5,2,2.5,2.2h0.2c1-0.2,2.5-2.2,2.5-2.2S46.7,57,51.5,50.7S64.1,32.4,56.1,16.1z"/>
	
		<linearGradient id="SVGID_2_" gradientUnits="userSpaceOnUse" x1="23.995" y1="78.1698" x2="23.995" y2="48.3998" gradientTransform="matrix(1 0 0 -1 0 77.8898)">
		<stop  offset="0" style="stop-color:#FBF1F3"/>
		<stop  offset="0.29" style="stop-color:#F8E7EB"/>
		<stop  offset="0.78" style="stop-color:#F1CBD4"/>
		<stop  offset="1" style="stop-color:#EDBCC8"/>
	</linearGradient>
	<path class="st1" d="M33.3,17h-5.1c-0.7,0-1.4-0.4-0.7-1.4c0.5-0.5,0.7-1.2,0.7-1.8c0-1.8-1.9-3.3-4.2-3.3s-4.2,1.5-4.2,3.3
		c0,0.5,0.2,1.1,0.5,1.5c0.9,1.2,0.2,1.7-0.5,1.7h-5.1c-1.5,0-2.8,1.3-2.8,2.8v3.3c0,0.7,0.5,1.4,1.7,0.5c0.5-0.3,1-0.5,1.5-0.5
		c1.8,0,3.3,1.9,3.3,4.2s-1.5,4.2-3.3,4.2c-0.7,0-1.3-0.3-1.8-0.7c-1-0.6-1.4,0.1-1.4,0.7v5.1c0,1.5,1.2,2.8,2.8,2.8h5.1
		c0.7,0,1.4-0.5,0.5-1.7c-0.3-0.5-0.4-1-0.5-1.5c0-1.8,1.9-3.3,4.2-3.3s4.2,1.5,4.2,3.3c0,0.7-0.3,1.3-0.7,1.9
		c-0.6,1,0.1,1.4,0.7,1.4h5.1c1.5,0,2.8-1.3,2.8-2.8v-5.1c0-0.7-0.5-1.4-1.7-0.5c-0.5,0.3-1,0.4-1.5,0.5c-1.8,0-3.3-1.9-3.3-4.2
		s1.5-4.2,3.3-4.2c0.7,0,1.3,0.3,1.8,0.7c1,0.6,1.4-0.1,1.4-0.7v-3.3C36.1,18.3,34.9,17.1,33.3,17z"/>
	
		<linearGradient id="SVGID_3_" gradientUnits="userSpaceOnUse" x1="45.7799" y1="60.8598" x2="45.7799" y2="55.7398" gradientTransform="matrix(1 0 0 -1 0 77.8898)">
		<stop  offset="0" style="stop-color:#FBF1F3"/>
		<stop  offset="0.29" style="stop-color:#F8E7EB"/>
		<stop  offset="0.78" style="stop-color:#F1CBD4"/>
		<stop  offset="1" style="stop-color:#EDBCC8"/>
	</linearGradient>
	<path class="st2" d="M47.8,20.8h-1.5v-1.4c0-0.3-0.2-0.5-0.5-0.5l0,0c-0.3,0-0.5,0.2-0.5,0.5c0,0,0,0,0,0v1.4h-1.5
		c-0.3,0-0.5,0.2-0.5,0.5l0,0c0,0.3,0.2,0.5,0.5,0.5c0,0,0,0,0,0h1.5v1.4c0,0.3,0.2,0.5,0.5,0.5c0.3,0,0.5-0.2,0.5-0.5c0,0,0,0,0,0
		v-1.4h1.5c0.3,0,0.5-0.2,0.5-0.5C48.3,21.1,48.1,20.8,47.8,20.8C47.8,20.8,47.8,20.8,47.8,20.8z"/>
	
		<linearGradient id="SVGID_4_" gradientUnits="userSpaceOnUse" x1="14.46" y1="35.5898" x2="14.46" y2="30.4698" gradientTransform="matrix(1 0 0 -1 0 77.8898)">
		<stop  offset="0" style="stop-color:#FBF1F3"/>
		<stop  offset="0.29" style="stop-color:#F8E7EB"/>
		<stop  offset="0.78" style="stop-color:#F1CBD4"/>
		<stop  offset="1" style="stop-color:#EDBCC8"/>
	</linearGradient>
	<path class="st3" d="M16.5,46.1H15v-1.4c0-0.3-0.2-0.5-0.5-0.5h0c-0.3,0-0.5,0.2-0.5,0.5c0,0,0,0,0,0v1.4h-1.6
		c-0.3,0-0.5,0.2-0.5,0.5l0,0c0,0.3,0.2,0.5,0.5,0.5c0,0,0,0,0,0h1.5v1.4c0,0.3,0.2,0.5,0.5,0.5c0.3,0,0.5-0.2,0.6-0.5
		c0,0,0,0,0-0.1v-1.4h1.5c0.3,0,0.5-0.2,0.5-0.5C17,46.4,16.8,46.1,16.5,46.1C16.5,46.1,16.5,46.1,16.5,46.1z"/>
	
		<linearGradient id="SVGID_5_" gradientUnits="userSpaceOnUse" x1="38.79" y1="69.8498" x2="38.79" y2="63.0098" gradientTransform="matrix(1 0 0 -1 0 77.8898)">
		<stop  offset="0" style="stop-color:#FBF1F3"/>
		<stop  offset="0.29" style="stop-color:#F8E7EB"/>
		<stop  offset="0.78" style="stop-color:#F1CBD4"/>
		<stop  offset="1" style="stop-color:#EDBCC8"/>
	</linearGradient>
	<path class="st4" d="M41.5,13.1h-2v-1.9c0-0.4-0.3-0.7-0.7-0.7s-0.7,0.3-0.7,0.7l0,0v1.9h-2c-0.4,0-0.7,0.4-0.6,0.8
		c0,0.3,0.3,0.6,0.6,0.6h2v1.9c0,0.4,0.3,0.7,0.7,0.7s0.7-0.3,0.7-0.7l0,0v-1.9h2c0.4,0,0.7-0.4,0.6-0.8
		C42.1,13.4,41.8,13.2,41.5,13.1z"/>
	
		<linearGradient id="SVGID_6_" gradientUnits="userSpaceOnUse" x1="37.07" y1="58.5098" x2="37.07" y2="31.4898" gradientTransform="matrix(1 0 0 -1 0 77.8898)">
		<stop  offset="0" style="stop-color:#545AFF"/>
		<stop  offset="1" style="stop-color:#46BEFF"/>
	</linearGradient>
	<path class="st5" d="M49.8,38.3l-2.6-0.6c-0.2-0.7-0.5-1.4-0.9-2.1l1.4-2.3c0.2-0.4,0.2-0.9-0.2-1.3l-1.8-1.8
		c-0.3-0.3-0.9-0.4-1.3-0.2l-2.3,1.4c-0.7-0.4-1.4-0.7-2.1-0.9l-0.7-2.6c-0.1-0.5-0.5-0.8-1-0.8h-2.6c-0.5,0-0.9,0.3-1,0.8l-0.6,2.6
		c-0.7,0.2-1.4,0.5-2.1,0.9L29.7,30c-0.4-0.2-0.9-0.2-1.3,0.2L26.6,32c-0.3,0.3-0.4,0.9-0.2,1.3l1.4,2.3c-0.4,0.7-0.7,1.4-0.9,2.1
		l-2.6,0.6c-0.5,0.1-0.8,0.5-0.8,1v2.6c0,0.5,0.3,0.9,0.8,1l2.6,0.7c0.2,0.7,0.5,1.4,0.9,2.1L26.5,48c-0.3,0.4-0.2,0.9,0.2,1.3
		l1.8,1.8c0.3,0.4,0.9,0.4,1.3,0.2l2.3-1.4c0.7,0.4,1.4,0.7,2.1,0.9l0.6,2.6c0.1,0.5,0.5,0.8,1,0.8h2.6c0.5,0,0.9-0.3,1-0.8l0.7-2.6
		c0.7-0.2,1.4-0.5,2.1-0.9l2.3,1.4c0.4,0.3,1,0.2,1.3-0.2l1.8-1.8c0.3-0.3,0.4-0.8,0.2-1.2l-1.4-2.3c0.4-0.7,0.7-1.4,0.9-2.1
		l2.6-0.7c0.5-0.1,0.8-0.5,0.8-1v-2.6C50.6,38.8,50.3,38.4,49.8,38.3z M37.1,44.8c-2.3,0-4.2-1.9-4.2-4.2s1.9-4.2,4.2-4.2
		c2.3,0,4.2,1.9,4.2,4.2C41.3,42.9,39.4,44.8,37.1,44.8L37.1,44.8z"/>
	
		<linearGradient id="SVGID_7_" gradientUnits="userSpaceOnUse" x1="37.0565" y1="54.3598" x2="37.0565" y2="32.5898" gradientTransform="matrix(1 0 0 -1 0 77.8898)">
		<stop  offset="0" style="stop-color:#AEDCFF"/>
		<stop  offset="0.3" style="stop-color:#B8E1FF"/>
		<stop  offset="0.82" style="stop-color:#D4EDFF"/>
		<stop  offset="1" style="stop-color:#DFF2FF"/>
	</linearGradient>
	<path class="st6" d="M37.7,36.2c-0.5-0.1-0.9-0.1-1.4,0c-2.4,0.4-4.1,2.7-3.7,5.1c0.3,1.9,1.8,3.4,3.7,3.7c0.5,0.1,0.9,0.1,1.4,0
		c2.4-0.4,4.1-2.6,3.8-5.1C41.2,38,39.7,36.5,37.7,36.2L37.7,36.2z"/>
</g>
</svg>
