<svg xmlns="http://www.w3.org/2000/svg" xmlns:xlink="http://www.w3.org/1999/xlink" viewBox="0 0 59.6 78.41"><defs><style>.cls-1{fill:#e6e6e6;}.cls-2{fill:url(#未命名漸層_39);}.cls-3{fill:url(#未命名漸層_44);}.cls-4{fill:url(#未命名漸層_53);}.cls-5{fill:url(#未命名漸層_68);}</style><linearGradient id="未命名漸層_39" x1="29.8" y1="-0.33" x2="29.8" y2="78.85" gradientUnits="userSpaceOnUse"><stop offset="0.21" stop-color="#dd1c53"/><stop offset="0.33" stop-color="#de2054"/><stop offset="0.45" stop-color="#e02b58"/><stop offset="0.56" stop-color="#e33e5e"/><stop offset="0.67" stop-color="#e85867"/><stop offset="0.78" stop-color="#ee7a73"/><stop offset="0.88" stop-color="#f5a381"/><stop offset="0.99" stop-color="#fed491"/><stop offset="1" stop-color="#ffdb94"/></linearGradient><linearGradient id="未命名漸層_44" x1="29.8" y1="22.89" x2="29.8" y2="51.01" gradientUnits="userSpaceOnUse"><stop offset="0" stop-color="#fbf1f3"/><stop offset="0.29" stop-color="#f8e7eb"/><stop offset="0.78" stop-color="#f1cbd4"/><stop offset="1" stop-color="#edbcc8"/></linearGradient><linearGradient id="未命名漸層_53" x1="37.52" y1="11.99" x2="37.52" y2="31.94" gradientUnits="userSpaceOnUse"><stop offset="0" stop-color="#545aff"/><stop offset="1" stop-color="#46beff"/></linearGradient><linearGradient id="未命名漸層_68" x1="37.52" y1="-3.21" x2="37.52" y2="11.07" gradientUnits="userSpaceOnUse"><stop offset="0" stop-color="#aedcff"/><stop offset="0.3" stop-color="#b8e1ff"/><stop offset="0.82" stop-color="#d4edff"/><stop offset="1" stop-color="#dff2ff"/></linearGradient></defs><title>icon.v2</title><g id="圖層_3" data-name="圖層 3"><rect class="cls-1" x="-235.13" y="-20.66" width="702.75" height="269.75"/></g><g id="圖層_2" data-name="圖層 2"><path class="cls-2" d="M56.14,16.08C49.38,2.3,35,.23,30.22,0V0h-.84V0C24.58.23,10.21,2.3,3.45,16.08c-8,16.29-.27,28.28,4.61,34.6S27.21,76.25,27.21,76.25s1.48,2,2.51,2.15h.16c1-.2,2.51-2.15,2.51-2.15S46.66,57,51.54,50.68,64.13,32.37,56.14,16.08Z"/><path class="cls-3" d="M50.48,31A20.7,20.7,0,0,0,29.93,10.27h-.27a20.68,20.68,0,0,0,0,41.36h.27A20.7,20.7,0,0,0,50.48,31ZM45.61,28.6H39a44.92,44.92,0,0,0-1.46-10.23c-.17-.61-.36-1.17-.55-1.71A16,16,0,0,1,45.61,28.6ZM29.8,46.93c-2.28,0-4.16-5.92-4.48-13.63h9C34,41,32.07,46.93,29.8,46.93ZM25.32,28.6C25.64,20.89,27.52,15,29.8,15S34,20.89,34.28,28.6ZM22.63,16.66c-.2.54-.38,1.1-.55,1.71A44.92,44.92,0,0,0,20.62,28.6H14A16,16,0,0,1,22.63,16.66ZM14,33.3h6.63a44.92,44.92,0,0,0,1.46,10.23c.17.6.35,1.17.55,1.71A16,16,0,0,1,14,33.3ZM37,45.24c.19-.54.38-1.11.55-1.71A44.92,44.92,0,0,0,39,33.3h6.63A16,16,0,0,1,37,45.24Z"/><circle cx="37.52" cy="15.17" r="3.2"/><path class="cls-4" d="M45.43,23.09l-7.91,7.74-7.9-7.73a11.19,11.19,0,1,1,15.82,0Z"/><circle class="cls-5" cx="37.52" cy="15.17" r="6.39"/></g></svg>