<svg xmlns="http://www.w3.org/2000/svg" xmlns:xlink="http://www.w3.org/1999/xlink" viewBox="0 0 59.6 78.41"><defs><style>.cls-1{fill:#e6e6e6;}.cls-2{fill:url(#未命名漸層_53);}.cls-3{fill:url(#未命名漸層_68);}.cls-4{fill:url(#未命名漸層_68-2);}.cls-5{fill:url(#未命名漸層_68-3);}.cls-6{fill:url(#未命名漸層_68-4);}.cls-7{fill-rule:evenodd;fill:url(#未命名漸層_63);}</style><linearGradient id="未命名漸層_53" x1="29.8" y1="78.41" x2="29.8" gradientUnits="userSpaceOnUse"><stop offset="0" stop-color="#545aff"/><stop offset="1" stop-color="#46beff"/></linearGradient><linearGradient id="未命名漸層_68" x1="29.66" y1="15.94" x2="29.66" y2="35.22" gradientUnits="userSpaceOnUse"><stop offset="0" stop-color="#aedcff"/><stop offset="0.3" stop-color="#b8e1ff"/><stop offset="0.82" stop-color="#d4edff"/><stop offset="1" stop-color="#dff2ff"/></linearGradient><linearGradient id="未命名漸層_68-2" x1="23.32" y1="30.38" x2="23.32" y2="38.07" xlink:href="#未命名漸層_68"/><linearGradient id="未命名漸層_68-3" x1="30.55" y1="34.53" x2="30.55" y2="39.96" xlink:href="#未命名漸層_68"/><linearGradient id="未命名漸層_68-4" x1="37.78" y1="28" x2="37.78" y2="36.98" xlink:href="#未命名漸層_68"/><linearGradient id="未命名漸層_63" x1="37.28" y1="0.64" x2="37.28" y2="26.36" gradientUnits="userSpaceOnUse"><stop offset="0" stop-color="#fd5d00"/><stop offset="0.12" stop-color="#fd6700"/><stop offset="0.32" stop-color="#fe8300"/><stop offset="0.59" stop-color="#feb000"/><stop offset="0.82" stop-color="#fd0"/></linearGradient></defs><title>icon.v2</title><g id="圖層_3" data-name="圖層 3"><rect class="cls-1" x="-360.99" y="-22.53" width="702.75" height="269.75"/></g><g id="圖層_2" data-name="圖層 2"><path class="cls-2" d="M56.14,16.08C49.38,2.3,35,.23,30.22,0V0h-.84V0C24.58.23,10.21,2.3,3.45,16.08c-8,16.29-.27,28.28,4.61,34.6S27.21,76.25,27.21,76.25s1.48,2,2.51,2.15h.16c1-.2,2.51-2.15,2.51-2.15S46.66,57,51.54,50.68,64.13,32.37,56.14,16.08Z"/><path class="cls-3" d="M45.2,47H20.05a3.7,3.7,0,0,1-3.7-3.7V18.16a2.22,2.22,0,0,0-4.44,0V43.31a8.14,8.14,0,0,0,8.14,8.14H45.2a2.22,2.22,0,1,0,0-4.44Z"/><path class="cls-4" d="M23.32,44.54a2.23,2.23,0,0,0,2.32-2.12V32.51a2.33,2.33,0,0,0-4.64,0v9.91A2.23,2.23,0,0,0,23.32,44.54Z"/><path class="cls-5" d="M30.55,44.54a2.24,2.24,0,0,0,2.32-2.15V36.67a2.33,2.33,0,0,0-4.64,0v5.72A2.24,2.24,0,0,0,30.55,44.54Z"/><path class="cls-6" d="M37.78,44.54a2.28,2.28,0,0,0,2.32-2.26v-12a2.32,2.32,0,0,0-4.63,0v12A2.28,2.28,0,0,0,37.78,44.54Z"/><path class="cls-7" d="M52.82,27,47,22.14a8,8,0,1,0-12.4,1.34,7.38,7.38,0,0,0,.81.67l-4.09,4.09a2.18,2.18,0,0,0-1-.24,2.22,2.22,0,0,0-1.53.62l-3.48-2.39a2.19,2.19,0,0,0,.1-.63,2.23,2.23,0,1,0-2.23,2.23,2.2,2.2,0,0,0,1.63-.72l3.43,2.34a2.23,2.23,0,1,0,4.31.78,2.19,2.19,0,0,0-.48-1.36l4.17-4.16a8,8,0,0,0,8.34-.17l4.81,5.79A2.39,2.39,0,0,0,52.82,27Zm-9-5.66a4.89,4.89,0,1,1,0-6.92A4.88,4.88,0,0,1,43.77,21.29Z"/></g></svg>