<svg xmlns="http://www.w3.org/2000/svg" xmlns:xlink="http://www.w3.org/1999/xlink" viewBox="0 0 59.6 78.41"><defs><style>.cls-1{fill:#e6e6e6;}.cls-2{fill:url(#未命名漸層_53);}.cls-3{fill:url(#未命名漸層_68);}.cls-4{fill:url(#未命名漸層_54);}.cls-5{fill:url(#未命名漸層_9);}</style><linearGradient id="未命名漸層_53" x1="29.8" y1="78.41" x2="29.8" gradientUnits="userSpaceOnUse"><stop offset="0" stop-color="#545aff"/><stop offset="1" stop-color="#46beff"/></linearGradient><linearGradient id="未命名漸層_68" x1="29.8" y1="11.99" x2="29.8" y2="31.94" gradientUnits="userSpaceOnUse"><stop offset="0" stop-color="#aedcff"/><stop offset="0.3" stop-color="#b8e1ff"/><stop offset="0.82" stop-color="#d4edff"/><stop offset="1" stop-color="#dff2ff"/></linearGradient><linearGradient id="未命名漸層_54" x1="37.36" y1="-3.61" x2="37.69" y2="34.88" gradientUnits="userSpaceOnUse"><stop offset="0.09" stop-color="#fd5d00"/><stop offset="0.19" stop-color="#fd6700"/><stop offset="0.37" stop-color="#fe8300"/><stop offset="0.6" stop-color="#feb000"/><stop offset="0.81" stop-color="#fd0"/></linearGradient><linearGradient id="未命名漸層_9" x1="37.52" y1="0.71" x2="37.52" y2="20.67" gradientUnits="userSpaceOnUse"><stop offset="0" stop-color="#fff2b2"/><stop offset="0.39" stop-color="#fff6bc"/><stop offset="1" stop-color="#ffffd5"/></linearGradient></defs><title>icon.v2</title><g id="圖層_3" data-name="圖層 3"><rect class="cls-1" x="-232.91" y="-22.53" width="702.75" height="269.75"/></g><g id="圖層_2" data-name="圖層 2"><path class="cls-2" d="M56.14,16.08C49.38,2.3,35,.23,30.22,0V0h-.84V0C24.58.23,10.21,2.3,3.45,16.08c-8,16.29-.27,28.28,4.61,34.6S27.21,76.25,27.21,76.25s1.48,2,2.51,2.15h.16c1-.2,2.51-2.15,2.51-2.15S46.66,57,51.54,50.68,64.13,32.37,56.14,16.08Z"/><path class="cls-3" d="M50.48,31A20.7,20.7,0,0,0,29.93,10.27h-.27a20.68,20.68,0,0,0,0,41.36h.27A20.7,20.7,0,0,0,50.48,31ZM45.61,28.6H39a44.92,44.92,0,0,0-1.46-10.23c-.17-.61-.36-1.17-.55-1.71A16,16,0,0,1,45.61,28.6ZM29.8,46.93c-2.28,0-4.16-5.92-4.48-13.63h9C34,41,32.07,46.93,29.8,46.93ZM25.32,28.6C25.64,20.89,27.52,15,29.8,15S34,20.89,34.28,28.6ZM22.63,16.66c-.2.54-.38,1.1-.55,1.71A44.92,44.92,0,0,0,20.62,28.6H14A16,16,0,0,1,22.63,16.66ZM14,33.3h6.63a44.92,44.92,0,0,0,1.46,10.23c.17.6.35,1.17.55,1.71A16,16,0,0,1,14,33.3ZM37,45.24c.19-.54.38-1.11.55-1.71A44.92,44.92,0,0,0,39,33.3h6.63A16,16,0,0,1,37,45.24Z"/><circle cx="37.52" cy="15.17" r="3.2"/><path class="cls-4" d="M45.43,23.09l-7.91,7.74-7.9-7.73a11.19,11.19,0,1,1,15.82,0Z"/><circle class="cls-5" cx="37.52" cy="15.17" r="6.39"/></g></svg>