<?xml version="1.0" encoding="utf-8"?>
<!-- Generator: Adobe Illustrator 24.0.1, SVG Export Plug-In . SVG Version: 6.00 Build 0)  -->
<svg version="1.1" id="圖層_1" xmlns="http://www.w3.org/2000/svg" xmlns:xlink="http://www.w3.org/1999/xlink" x="0px" y="0px"
	 viewBox="0 0 59.6 78.4" style="enable-background:new 0 0 59.6 78.4;" xml:space="preserve">
<style type="text/css">
	.st0{fill:url(#SVGID_1_);}
	.st1{fill:url(#SVGID_2_);}
	.st2{fill:url(#SVGID_3_);}
	.st3{fill:url(#SVGID_4_);}
	.st4{fill:url(#SVGID_5_);}
	.st5{fill:url(#SVGID_6_);}
	.st6{fill:url(#SVGID_7_);}
	.st7{fill:url(#SVGID_8_);}
	.st8{fill:url(#SVGID_9_);}
	.st9{fill:url(#SVGID_10_);}
	.st10{fill:url(#SVGID_11_);}
	.st11{fill:url(#SVGID_12_);}
</style>
<title>icon.v2</title>
<g id="圖層_2_1_">
	
		<linearGradient id="SVGID_1_" gradientUnits="userSpaceOnUse" x1="29.7939" y1="78.2198" x2="29.7939" y2="-0.9602" gradientTransform="matrix(1 0 0 -1 0 77.8898)">
		<stop  offset="0.21" style="stop-color:#DD1C53"/>
		<stop  offset="0.33" style="stop-color:#DE2054"/>
		<stop  offset="0.45" style="stop-color:#E02B58"/>
		<stop  offset="0.56" style="stop-color:#E33E5E"/>
		<stop  offset="0.67" style="stop-color:#E85867"/>
		<stop  offset="0.78" style="stop-color:#EE7A73"/>
		<stop  offset="0.88" style="stop-color:#F5A381"/>
		<stop  offset="0.99" style="stop-color:#FED491"/>
		<stop  offset="1" style="stop-color:#FFDB94"/>
	</linearGradient>
	<path class="st0" d="M56.1,16.1C49.4,2.3,35,0.2,30.2,0l0,0h-0.8l0,0C24.6,0.2,10.2,2.3,3.5,16.1c-8,16.3-0.3,28.3,4.6,34.6
		s19.1,25.6,19.1,25.6s1.5,2,2.5,2.2h0.2c1-0.2,2.5-2.2,2.5-2.2S46.7,57,51.5,50.7S64.1,32.4,56.1,16.1z"/>
	
		<linearGradient id="SVGID_2_" gradientUnits="userSpaceOnUse" x1="29.82" y1="357.7798" x2="29.82" y2="-36.1102" gradientTransform="matrix(1 0 0 -1 0 77.8898)">
		<stop  offset="0" style="stop-color:#FBF1F3"/>
		<stop  offset="0.29" style="stop-color:#F8E7EB"/>
		<stop  offset="0.78" style="stop-color:#F1CBD4"/>
		<stop  offset="1" style="stop-color:#EDBCC8"/>
	</linearGradient>
	<path class="st1" d="M46.3,15.4h-33c-2.1,0-3.8,1.7-3.8,3.8l0,0v22.6c0,2.1,1.7,3.8,3.8,3.8h33c2.1,0,3.8-1.7,3.8-3.8V19.2
		C50.1,17.1,48.4,15.4,46.3,15.4z M47.8,41.8c0,0.8-0.7,1.5-1.5,1.5h-33c-0.8,0-1.5-0.7-1.5-1.5V19.2c0-0.8,0.7-1.5,1.5-1.5h33
		c0.8,0,1.5,0.7,1.5,1.5V41.8z"/>
	
		<linearGradient id="SVGID_3_" gradientUnits="userSpaceOnUse" x1="35.34" y1="79.6298" x2="35.34" y2="49.4298" gradientTransform="matrix(1 0 0 -1 0 77.8898)">
		<stop  offset="0" style="stop-color:#FBF1F3"/>
		<stop  offset="0.29" style="stop-color:#F8E7EB"/>
		<stop  offset="0.78" style="stop-color:#F1CBD4"/>
		<stop  offset="1" style="stop-color:#EDBCC8"/>
	</linearGradient>
	<path class="st2" d="M26,23.2h18.7c0.6,0.1,1.2-0.4,1.3-1c0.1-0.6-0.4-1.2-1-1.3c-0.1,0-0.1,0-0.2,0H26c-0.6-0.1-1.2,0.4-1.3,1
		c-0.1,0.6,0.4,1.2,1,1.3C25.9,23.2,25.9,23.2,26,23.2z"/>
	
		<linearGradient id="SVGID_4_" gradientUnits="userSpaceOnUse" x1="18.4424" y1="79.6298" x2="18.4424" y2="49.4298" gradientTransform="matrix(1 0 0 -1 0 77.8898)">
		<stop  offset="0" style="stop-color:#FBF1F3"/>
		<stop  offset="0.29" style="stop-color:#F8E7EB"/>
		<stop  offset="0.78" style="stop-color:#F1CBD4"/>
		<stop  offset="1" style="stop-color:#EDBCC8"/>
	</linearGradient>
	<path class="st3" d="M15.1,23.2h7c0.6-0.1,1.1-0.6,1-1.3c-0.1-0.6-0.5-1-1-1h-7c-0.6-0.1-1.2,0.4-1.3,1c-0.1,0.6,0.4,1.2,1,1.3
		C14.9,23.2,15,23.2,15.1,23.2z"/>
	
		<linearGradient id="SVGID_5_" gradientUnits="userSpaceOnUse" x1="24.38" y1="66.9798" x2="24.38" y2="36.7798" gradientTransform="matrix(1 0 0 -1 0 77.8898)">
		<stop  offset="0" style="stop-color:#FBF1F3"/>
		<stop  offset="0.29" style="stop-color:#F8E7EB"/>
		<stop  offset="0.78" style="stop-color:#F1CBD4"/>
		<stop  offset="1" style="stop-color:#EDBCC8"/>
	</linearGradient>
	<path class="st4" d="M33.7,33.5H15.1c-0.6,0-1.2,0.5-1.2,1.2c0,0.6,0.5,1.2,1.2,1.2h18.7c0.6,0,1.2-0.5,1.2-1.2
		C34.9,34.1,34.4,33.5,33.7,33.5z"/>
	
		<linearGradient id="SVGID_6_" gradientUnits="userSpaceOnUse" x1="41.1795" y1="66.9798" x2="41.1795" y2="36.7798" gradientTransform="matrix(1 0 0 -1 0 77.8898)">
		<stop  offset="0" style="stop-color:#FBF1F3"/>
		<stop  offset="0.29" style="stop-color:#F8E7EB"/>
		<stop  offset="0.78" style="stop-color:#F1CBD4"/>
		<stop  offset="1" style="stop-color:#EDBCC8"/>
	</linearGradient>
	<path class="st5" d="M44.7,33.5h-7c-0.6,0-1.2,0.5-1.2,1.2c0,0.6,0.5,1.2,1.2,1.2c0,0,0,0,0,0h7c0.6,0,1.2-0.5,1.2-1.2
		C45.8,34.1,45.3,33.5,44.7,33.5z"/>
	
		<linearGradient id="SVGID_7_" gradientUnits="userSpaceOnUse" x1="29.9805" y1="75.4198" x2="29.9805" y2="45.2198" gradientTransform="matrix(1 0 0 -1 0 77.8898)">
		<stop  offset="0" style="stop-color:#FBF1F3"/>
		<stop  offset="0.29" style="stop-color:#F8E7EB"/>
		<stop  offset="0.78" style="stop-color:#F1CBD4"/>
		<stop  offset="1" style="stop-color:#EDBCC8"/>
	</linearGradient>
	<path class="st6" d="M44.8,25.1H15.2c-0.6,0-1.2,0.5-1.2,1.2c0,0.6,0.5,1.2,1.2,1.2h29.6c0.6,0,1.2-0.5,1.2-1.2
		C46,25.6,45.4,25.1,44.8,25.1C44.8,25.1,44.8,25.1,44.8,25.1z"/>
	
		<linearGradient id="SVGID_8_" gradientUnits="userSpaceOnUse" x1="29.98" y1="71.1898" x2="29.98" y2="40.9998" gradientTransform="matrix(1 0 0 -1 0 77.8898)">
		<stop  offset="0" style="stop-color:#FBF1F3"/>
		<stop  offset="0.29" style="stop-color:#F8E7EB"/>
		<stop  offset="0.78" style="stop-color:#F1CBD4"/>
		<stop  offset="1" style="stop-color:#EDBCC8"/>
	</linearGradient>
	<path class="st7" d="M44.8,29.3H15.2c-0.6-0.1-1.2,0.4-1.3,1c-0.1,0.6,0.4,1.2,1,1.3c0.1,0,0.1,0,0.2,0h29.6c0.6,0.1,1.2-0.4,1.3-1
		c0.1-0.6-0.4-1.2-1-1.3C44.9,29.3,44.9,29.3,44.8,29.3z"/>
	
		<linearGradient id="SVGID_9_" gradientUnits="userSpaceOnUse" x1="543.3161" y1="160.8125" x2="543.3161" y2="140.7825" gradientTransform="matrix(0.7071 0.7071 0.7071 -0.7071 -461.8137 -233.3213)">
		<stop  offset="0" style="stop-color:#AEDCFF"/>
		<stop  offset="0.3" style="stop-color:#B8E1FF"/>
		<stop  offset="0.82" style="stop-color:#D4EDFF"/>
		<stop  offset="1" style="stop-color:#DFF2FF"/>
	</linearGradient>
	<path class="st8" d="M23.9,52.8l-0.6-2.5c0-0.2-0.2-0.4-0.4-0.4l-2.5-0.6c-0.3-0.1-0.5-0.4-0.4-0.6c0-0.1,0.1-0.2,0.1-0.3l5.1-5.1
		c0.2-0.2,0.6-0.2,0.8,0l3.9,3.9c0.2,0.2,0.2,0.6,0,0.8l-5.1,5c-0.2,0.2-0.5,0.2-0.8,0C23.9,53,23.9,52.9,23.9,52.8z"/>
	
		<linearGradient id="SVGID_10_" gradientUnits="userSpaceOnUse" x1="-420.9831" y1="324.1274" x2="-420.9831" y2="304.0974" gradientTransform="matrix(0.7071 -0.7071 -0.7071 -0.7071 550.7386 -31.3164)">
		<stop  offset="0" style="stop-color:#AEDCFF"/>
		<stop  offset="0.3" style="stop-color:#B8E1FF"/>
		<stop  offset="0.82" style="stop-color:#D4EDFF"/>
		<stop  offset="1" style="stop-color:#DFF2FF"/>
	</linearGradient>
	<path class="st9" d="M39.6,49.4l-2.5,0.6c-0.2,0.1-0.4,0.2-0.4,0.4l-0.6,2.5c-0.1,0.3-0.4,0.5-0.6,0.4c-0.1,0-0.2-0.1-0.3-0.1
		l-5.1-5c-0.2-0.2-0.2-0.6,0-0.8l3.9-3.9c0.2-0.2,0.6-0.2,0.8,0l5,5.1c0.2,0.2,0.2,0.5,0,0.8C39.8,49.3,39.7,49.4,39.6,49.4z"/>
	
		<linearGradient id="SVGID_11_" gradientUnits="userSpaceOnUse" x1="29.9776" y1="62.8798" x2="29.9776" y2="20.0398" gradientTransform="matrix(1 0 0 -1 0 77.8898)">
		<stop  offset="0" style="stop-color:#545AFF"/>
		<stop  offset="1" style="stop-color:#46BEFF"/>
	</linearGradient>
	<path class="st10" d="M31.3,32.3c-0.9-0.1-1.8-0.1-2.7,0c-4.8,0.8-8.1,5.3-7.3,10.1c0.6,3.8,3.6,6.7,7.4,7.3c0.9,0.1,1.8,0.1,2.7,0
		c4.8-0.8,8.1-5.3,7.3-10.1C38.1,35.8,35.1,32.9,31.3,32.3z"/>
	
		<linearGradient id="SVGID_12_" gradientUnits="userSpaceOnUse" x1="29.9817" y1="47.8398" x2="29.9817" y2="30.3198" gradientTransform="matrix(1 0 0 -1 0 77.8898)">
		<stop  offset="0" style="stop-color:#AEDCFF"/>
		<stop  offset="0.3" style="stop-color:#B8E1FF"/>
		<stop  offset="0.82" style="stop-color:#D4EDFF"/>
		<stop  offset="1" style="stop-color:#DFF2FF"/>
	</linearGradient>
	<path class="st11" d="M26.2,45.7c0.1-0.5,0.2-1.2,0.4-1.8l0.2-0.9c0.1-0.2,0-0.5-0.2-0.7c-0.6-0.6-1.3-1.2-1.9-1.8
		c-0.3-0.2-0.4-0.6-0.3-0.9c0.1-0.3,0.4-0.5,0.7-0.5l2.6-0.3c0.2,0,0.4-0.2,0.5-0.4c0.4-0.8,0.7-1.5,1.1-2.3
		c0.1-0.3,0.3-0.6,0.7-0.6s0.6,0.3,0.7,0.6c0.4,0.8,0.7,1.5,1.1,2.3c0.1,0.2,0.3,0.4,0.6,0.4c0.9,0.1,1.8,0.2,2.7,0.3
		c0.3,0,0.6,0.2,0.6,0.5c0.1,0.3,0,0.6-0.2,0.8c-0.7,0.6-1.3,1.2-2,1.8c-0.2,0.2-0.3,0.4-0.2,0.7c0.2,0.9,0.3,1.8,0.5,2.6
		c0.1,0.4-0.2,0.8-0.5,0.9c-0.2,0-0.4,0-0.5-0.1c-0.8-0.4-1.5-0.8-2.2-1.2c-0.3-0.2-0.7-0.2-0.9,0c-0.7,0.4-1.5,0.8-2.2,1.2
		c-0.4,0.2-0.8,0-1-0.3C26.2,46,26.2,45.8,26.2,45.7z"/>
</g>
</svg>
