<svg xmlns="http://www.w3.org/2000/svg" xmlns:xlink="http://www.w3.org/1999/xlink" viewBox="0 0 59.6 78.41"><defs><style>.cls-1{fill:#e6e6e6;}.cls-2{fill:url(#未命名漸層_53);}.cls-3{fill:url(#未命名漸層_68);}.cls-4{fill:url(#未命名漸層_68-2);}.cls-5{fill:url(#未命名漸層_68-3);}.cls-6{fill:url(#未命名漸層_68-4);}.cls-7{fill:url(#未命名漸層_68-5);}.cls-8{fill:url(#未命名漸層_68-6);}.cls-9{fill:url(#未命名漸層_68-7);}.cls-10{fill:url(#未命名漸層_61);}.cls-11{fill:url(#未命名漸層_61-2);}.cls-12{fill:url(#未命名漸層_2);}.cls-13{fill:url(#未命名漸層_61-3);}</style><linearGradient id="未命名漸層_53" x1="29.8" y1="78.41" x2="29.8" gradientUnits="userSpaceOnUse"><stop offset="0" stop-color="#545aff"/><stop offset="1" stop-color="#46beff"/></linearGradient><linearGradient id="未命名漸層_68" x1="29.8" y1="-281.28" x2="29.8" y2="112.61" gradientUnits="userSpaceOnUse"><stop offset="0" stop-color="#aedcff"/><stop offset="0.3" stop-color="#b8e1ff"/><stop offset="0.82" stop-color="#d4edff"/><stop offset="1" stop-color="#dff2ff"/></linearGradient><linearGradient id="未命名漸層_68-2" x1="35.35" y1="-3.13" x2="35.35" y2="27.06" xlink:href="#未命名漸層_68"/><linearGradient id="未命名漸層_68-3" x1="18.55" y1="-3.13" x2="18.55" y2="27.06" xlink:href="#未命名漸層_68"/><linearGradient id="未命名漸層_68-4" x1="24.38" y1="9.51" x2="24.38" y2="39.71" xlink:href="#未命名漸層_68"/><linearGradient id="未命名漸層_68-5" x1="41.18" y1="9.51" x2="41.18" y2="39.71" xlink:href="#未命名漸層_68"/><linearGradient id="未命名漸層_68-6" x1="29.98" y1="1.08" x2="29.98" y2="31.28" xlink:href="#未命名漸層_68"/><linearGradient id="未命名漸層_68-7" x1="29.98" y1="5.3" x2="29.98" y2="35.49" xlink:href="#未命名漸層_68"/><linearGradient id="未命名漸層_61" x1="158.86" y1="296.12" x2="158.86" y2="316.16" gradientTransform="translate(133.14 -285.96) rotate(45)" gradientUnits="userSpaceOnUse"><stop offset="0.19" stop-color="#fff2b2"/><stop offset="0.45" stop-color="#fff6bc"/><stop offset="0.85" stop-color="#ffffd5"/></linearGradient><linearGradient id="未命名漸層_61-2" x1="119.9" y1="-244.79" x2="119.9" y2="-224.76" gradientTransform="translate(112.19 293.64) rotate(-45)" xlink:href="#未命名漸層_61"/><linearGradient id="未命名漸層_2" x1="29.98" y1="13.61" x2="29.98" y2="56.45" gradientUnits="userSpaceOnUse"><stop offset="0.18" stop-color="#fd5d00"/><stop offset="0.27" stop-color="#fd6700"/><stop offset="0.43" stop-color="#fe8300"/><stop offset="0.64" stop-color="#feb000"/><stop offset="0.82" stop-color="#fd0"/></linearGradient><linearGradient id="未命名漸層_61-3" x1="29.98" y1="28.65" x2="29.98" y2="46.18" gradientTransform="matrix(1, 0, 0, 1, 0, 0)" xlink:href="#未命名漸層_61"/></defs><title>icon.v2</title><g id="圖層_3" data-name="圖層 3"><rect class="cls-1" x="-232.91" y="-148.79" width="702.75" height="269.75"/></g><g id="圖層_2" data-name="圖層 2"><path class="cls-2" d="M56.14,16.08C49.38,2.3,35,.23,30.22,0V0h-.84V0C24.58.23,10.21,2.3,3.45,16.08c-8,16.29-.27,28.28,4.61,34.6S27.21,76.25,27.21,76.25s1.48,2,2.51,2.15h.16c1-.2,2.51-2.15,2.51-2.15S46.66,57,51.54,50.68,64.13,32.37,56.14,16.08Z"/><path class="cls-3" d="M46.32,14h-33a3.8,3.8,0,0,0-3.8,3.8v22.6a3.8,3.8,0,0,0,3.8,3.8h33a3.8,3.8,0,0,0,3.8-3.8V17.77A3.81,3.81,0,0,0,46.32,14Zm1.48,26.4a1.49,1.49,0,0,1-1.48,1.49h-33a1.49,1.49,0,0,1-1.49-1.49V17.77a1.49,1.49,0,0,1,1.49-1.48h33a1.48,1.48,0,0,1,1.48,1.48Z"/><path class="cls-4" d="M26,21.82H44.68a1.16,1.16,0,1,0,0-2.32H26a1.16,1.16,0,0,0,0,2.32Z"/><path class="cls-5" d="M15.05,21.82h7a1.16,1.16,0,0,0,0-2.32h-7a1.16,1.16,0,0,0,0,2.32Z"/><path class="cls-6" d="M33.71,32.15H15.05a1.16,1.16,0,1,0,0,2.31H33.71a1.16,1.16,0,1,0,0-2.31Z"/><path class="cls-7" d="M44.68,32.15h-7a1.16,1.16,0,1,0,0,2.31h7a1.16,1.16,0,1,0,0-2.31Z"/><path class="cls-8" d="M44.8,23.72H15.16a1.16,1.16,0,1,0,0,2.31H44.8a1.16,1.16,0,1,0,0-2.31Z"/><path class="cls-9" d="M44.8,27.93H15.16a1.16,1.16,0,0,0,0,2.32H44.8a1.16,1.16,0,1,0,0-2.32Z"/><path class="cls-10" d="M23.85,51.45,23.29,49a.54.54,0,0,0-.41-.41L20.38,48a.54.54,0,0,1-.26-.92l5.05-5a.53.53,0,0,1,.77,0l3.88,3.87a.55.55,0,0,1,0,.77l-5.06,5.06A.54.54,0,0,1,23.85,51.45Z"/><path class="cls-11" d="M39.58,48l-2.5.56a.54.54,0,0,0-.41.41l-.56,2.49a.54.54,0,0,1-.91.27l-5.06-5.06a.55.55,0,0,1,0-.77L34,42a.53.53,0,0,1,.77,0l5.05,5A.54.54,0,0,1,39.58,48Z"/><path class="cls-12" d="M31.29,30.94a8.34,8.34,0,0,0-2.73,0,8.81,8.81,0,0,0,.1,17.4,8.4,8.4,0,0,0,2.74,0,8.81,8.81,0,0,0-.11-17.4Z"/><path class="cls-13" d="M26.18,44.29l.35-1.79.18-.93a.64.64,0,0,0-.22-.67c-.64-.58-1.26-1.18-1.9-1.76a.76.76,0,0,1-.27-.86.74.74,0,0,1,.71-.49c.87-.09,1.74-.21,2.62-.32a.59.59,0,0,0,.52-.4c.36-.77.73-1.54,1.08-2.32.15-.33.34-.57.73-.57a.79.79,0,0,1,.73.58c.35.77.72,1.53,1.07,2.3a.65.65,0,0,0,.59.42L35,37.8a.73.73,0,0,1,.41,1.27c-.65.61-1.3,1.22-2,1.82a.65.65,0,0,0-.22.69c.18.87.33,1.75.51,2.62a.72.72,0,0,1-1.09.79c-.75-.41-1.5-.81-2.23-1.25a.83.83,0,0,0-.93,0c-.73.43-1.48.84-2.24,1.25A.72.72,0,0,1,26.18,44.29Z"/></g></svg>