<svg xmlns="http://www.w3.org/2000/svg" xmlns:xlink="http://www.w3.org/1999/xlink" viewBox="0 0 59.6 78.41"><defs><style>.cls-1{fill:#e6e6e6;}.cls-2{fill:url(#未命名漸層_53);}.cls-3{fill:url(#未命名漸層_68);}.cls-4{fill:url(#未命名漸層_68-2);}.cls-5{fill:url(#未命名漸層_68-3);}.cls-6{fill:url(#未命名漸層_68-4);}.cls-7{fill:url(#未命名漸層_62);}.cls-8{fill:url(#未命名漸層_61);}</style><linearGradient id="未命名漸層_53" x1="29.8" y1="78.41" x2="29.8" gradientUnits="userSpaceOnUse"><stop offset="0" stop-color="#545aff"/><stop offset="1" stop-color="#46beff"/></linearGradient><linearGradient id="未命名漸層_68" x1="23.99" y1="-1.67" x2="23.99" y2="28.09" gradientUnits="userSpaceOnUse"><stop offset="0" stop-color="#aedcff"/><stop offset="0.3" stop-color="#b8e1ff"/><stop offset="0.82" stop-color="#d4edff"/><stop offset="1" stop-color="#dff2ff"/></linearGradient><linearGradient id="未命名漸層_68-2" x1="45.78" y1="15.63" x2="45.78" y2="20.75" xlink:href="#未命名漸層_68"/><linearGradient id="未命名漸層_68-3" x1="14.44" y1="40.91" x2="14.44" y2="46.03" xlink:href="#未命名漸層_68"/><linearGradient id="未命名漸層_68-4" x1="38.77" y1="6.64" x2="38.77" y2="13.49" xlink:href="#未命名漸層_68"/><linearGradient id="未命名漸層_62" x1="37.07" y1="17.98" x2="37.07" y2="45" gradientUnits="userSpaceOnUse"><stop offset="0" stop-color="#fd5d00"/><stop offset="0.14" stop-color="#fd6700"/><stop offset="0.39" stop-color="#fe8300"/><stop offset="0.7" stop-color="#feb000"/><stop offset="0.97" stop-color="#fd0"/></linearGradient><linearGradient id="未命名漸層_61" x1="37.07" y1="22.13" x2="37.07" y2="43.91" gradientUnits="userSpaceOnUse"><stop offset="0.19" stop-color="#fff2b2"/><stop offset="0.45" stop-color="#fff6bc"/><stop offset="0.85" stop-color="#ffffd5"/></linearGradient></defs><title>icon.v2</title><g id="圖層_3" data-name="圖層 3"><rect class="cls-1" x="-360.99" y="-148.79" width="702.75" height="269.75"/></g><g id="圖層_2" data-name="圖層 2"><path class="cls-2" d="M56.14,16.08C49.38,2.3,35,.23,30.22,0V0h-.84V0C24.58.23,10.21,2.3,3.45,16.08c-8,16.29-.27,28.28,4.61,34.6S27.21,76.25,27.21,76.25s1.48,2,2.51,2.15h.16c1-.2,2.51-2.15,2.51-2.15S46.66,57,51.54,50.68,64.13,32.37,56.14,16.08Z"/><path class="cls-3" d="M33.32,15.65H28.19c-.66,0-1.35-.4-.73-1.43a2.75,2.75,0,0,0,.73-1.83c0-1.8-1.88-3.26-4.2-3.26s-4.19,1.46-4.19,3.26a2.77,2.77,0,0,0,.48,1.53c.94,1.26.25,1.73-.48,1.73H14.67a2.81,2.81,0,0,0-2.79,2.8v3.26c0,.73.47,1.42,1.73.45a3,3,0,0,1,1.53-.45c1.8,0,3.26,1.88,3.26,4.19s-1.46,4.2-3.26,4.2a2.75,2.75,0,0,1-1.83-.73c-1-.62-1.43.06-1.43.73v5.12A2.81,2.81,0,0,0,14.67,38H19.8c.73,0,1.42-.47.45-1.73a3,3,0,0,1-.45-1.53c0-1.8,1.88-3.26,4.19-3.26s4.2,1.46,4.2,3.26a2.75,2.75,0,0,1-.73,1.83c-.62,1,.07,1.43.73,1.43h5.13a2.81,2.81,0,0,0,2.79-2.8V30.1c0-.73-.47-1.42-1.73-.46a2.92,2.92,0,0,1-1.53.46c-1.8,0-3.26-1.88-3.26-4.2s1.46-4.19,3.26-4.19a2.75,2.75,0,0,1,1.83.73c1,.62,1.43-.07,1.43-.73V18.45A2.81,2.81,0,0,0,33.32,15.65Z"/><path class="cls-4" d="M47.81,19.45H46.3V18a.52.52,0,0,0-.52-.53.53.53,0,0,0-.53.53v1.43H43.74a.52.52,0,0,0-.52.53.52.52,0,0,0,.52.52h1.51v1.44a.52.52,0,0,0,.53.52.52.52,0,0,0,.52-.52V20.5h1.51a.52.52,0,0,0,.53-.52A.53.53,0,0,0,47.81,19.45Z"/><path class="cls-5" d="M16.47,44.72H15V43.29a.52.52,0,0,0-.52-.53.53.53,0,0,0-.53.53v1.43H12.4a.53.53,0,0,0,0,1.06h1.51v1.43a.53.53,0,0,0,.53.53.52.52,0,0,0,.52-.53V45.78h1.51a.53.53,0,0,0,0-1.06Z"/><path class="cls-6" d="M41.49,11.75h-2V9.83a.7.7,0,0,0-1.4,0v1.92h-2a.7.7,0,1,0,0,1.4h2v1.92a.7.7,0,0,0,1.4,0V13.15h2a.7.7,0,1,0,0-1.4Z"/><path class="cls-7" d="M49.78,36.9l-2.58-.65a10.62,10.62,0,0,0-.87-2.12l1.36-2.28a1,1,0,0,0-.16-1.28l-1.82-1.82a1,1,0,0,0-1.29-.16L42.15,30A11.28,11.28,0,0,0,40,29.07l-.65-2.57a1.06,1.06,0,0,0-1-.8H35.78a1.06,1.06,0,0,0-1,.8l-.64,2.57A10.75,10.75,0,0,0,32,30l-2.28-1.36a1,1,0,0,0-1.29.16l-1.82,1.82a1,1,0,0,0-.16,1.28l1.37,2.28a10.09,10.09,0,0,0-.88,2.12l-2.58.65a1,1,0,0,0-.8,1v2.57a1.06,1.06,0,0,0,.8,1l2.58.64a9.67,9.67,0,0,0,.88,2.12l-1.37,2.28a1.06,1.06,0,0,0,.16,1.29l1.82,1.82a1.06,1.06,0,0,0,1.29.16L32,48.46a10.18,10.18,0,0,0,2.12.88l.64,2.58a1.06,1.06,0,0,0,1,.8h2.58a1.06,1.06,0,0,0,1-.8L40,49.34a10.65,10.65,0,0,0,2.12-.88l2.27,1.37a1.06,1.06,0,0,0,1.29-.16l1.82-1.82a1,1,0,0,0,.16-1.29l-1.36-2.28a10.15,10.15,0,0,0,.87-2.12l2.58-.64a1.06,1.06,0,0,0,.8-1V37.92A1,1,0,0,0,49.78,36.9ZM37.07,43.43a4.22,4.22,0,1,1,4.22-4.22A4.23,4.23,0,0,1,37.07,43.43Z"/><path class="cls-8" d="M37.74,34.78a4.33,4.33,0,0,0-1.39,0,4.47,4.47,0,0,0,0,8.84,4.32,4.32,0,0,0,1.39,0,4.48,4.48,0,0,0,0-8.85Z"/></g></svg>