<svg xmlns="http://www.w3.org/2000/svg" xmlns:xlink="http://www.w3.org/1999/xlink" viewBox="0 0 59.6 78.41"><defs><style>.cls-1{fill:#e6e6e6;}.cls-2{fill:url(#未命名漸層_53);}.cls-3{fill:url(#未命名漸層_9);}.cls-4{fill:url(#未命名漸層_9-2);}.cls-5{fill:url(#未命名漸層_9-3);}.cls-6{fill:url(#未命名漸層_54);}.cls-7{fill:url(#未命名漸層_68);}</style><linearGradient id="未命名漸層_53" x1="29.8" y1="78.41" x2="29.8" gradientUnits="userSpaceOnUse"><stop offset="0" stop-color="#545aff"/><stop offset="1" stop-color="#46beff"/></linearGradient><linearGradient id="未命名漸層_9" x1="37.25" y1="-2.99" x2="37.25" y2="14.94" gradientUnits="userSpaceOnUse"><stop offset="0" stop-color="#fff2b2"/><stop offset="0.39" stop-color="#fff6bc"/><stop offset="1" stop-color="#ffffd5"/></linearGradient><linearGradient id="未命名漸層_9-2" x1="28.15" y1="-1.03" x2="28.15" y2="16.89" xlink:href="#未命名漸層_9"/><linearGradient id="未命名漸層_9-3" x1="40.09" y1="5.85" x2="40.09" y2="23.77" xlink:href="#未命名漸層_9"/><linearGradient id="未命名漸層_54" x1="14.16" y1="9.62" x2="13.72" y2="31.08" gradientUnits="userSpaceOnUse"><stop offset="0.09" stop-color="#fd5d00"/><stop offset="0.19" stop-color="#fd6700"/><stop offset="0.37" stop-color="#fe8300"/><stop offset="0.6" stop-color="#feb000"/><stop offset="0.81" stop-color="#fd0"/></linearGradient><linearGradient id="未命名漸層_68" x1="29.85" y1="-5.06" x2="30.04" y2="33.93" gradientUnits="userSpaceOnUse"><stop offset="0" stop-color="#aedcff"/><stop offset="0.3" stop-color="#b8e1ff"/><stop offset="0.82" stop-color="#d4edff"/><stop offset="1" stop-color="#dff2ff"/></linearGradient></defs><title>icon.v2</title><g id="圖層_3" data-name="圖層 3"><rect class="cls-1" x="-487.51" y="-22.53" width="702.75" height="269.75"/></g><g id="圖層_2" data-name="圖層 2"><path class="cls-2" d="M56.14,16.08C49.38,2.3,35,.23,30.22,0V0h-.84V0C24.58.23,10.21,2.3,3.45,16.08c-8,16.29-.27,28.28,4.61,34.6S27.21,76.25,27.21,76.25s1.48,2,2.51,2.15h.16c1-.2,2.51-2.15,2.51-2.15S46.66,57,51.54,50.68,64.13,32.37,56.14,16.08Z"/><path class="cls-3" d="M40.09,21.78a2.84,2.84,0,1,0-2.84,2.84A2.84,2.84,0,0,0,40.09,21.78Z"/><path class="cls-4" d="M28.15,20.9A2.84,2.84,0,1,0,31,23.74,2.84,2.84,0,0,0,28.15,20.9Z"/><path class="cls-5" d="M40.09,27.78a2.84,2.84,0,1,0,2.84,2.84A2.84,2.84,0,0,0,40.09,27.78Z"/><circle class="cls-6" cx="13.91" cy="21.78" r="6.48"/><path class="cls-7" d="M43.52,49.62H37.88l-.81-3.32a20.15,20.15,0,1,0-21.4-33.06,8.63,8.63,0,0,1,4.59,2.57A15.16,15.16,0,1,1,35.88,41.42l-1-4.19a5.77,5.77,0,0,0,.93-3.15,5.82,5.82,0,1,0-11.63,0,5.71,5.71,0,0,0,.93,3.14l-1,4.18a15.2,15.2,0,0,1-9-11,9.23,9.23,0,0,1-1.18.09,8.71,8.71,0,0,1-4-1,20.2,20.2,0,0,0,13,16.78l-.8,3.31H16.41a2.5,2.5,0,0,0,0,5H43.52a2.5,2.5,0,0,0,0-5ZM30,32.26a1.82,1.82,0,1,1-1.81,1.82A1.82,1.82,0,0,1,30,32.26Zm-1.38,7.47a5.73,5.73,0,0,0,2.77,0L32,42.46a15.33,15.33,0,0,1-2,.16,13.94,13.94,0,0,1-2.05-.16Zm-1.86,7.61a20.43,20.43,0,0,0,3.24.28,20.22,20.22,0,0,0,3.24-.29l.56,2.29h-7.6Z"/></g></svg>