<svg xmlns="http://www.w3.org/2000/svg" xmlns:xlink="http://www.w3.org/1999/xlink" viewBox="0 0 59.6 78.41"><defs><style>.cls-1{fill:#e6e6e6;}.cls-2{fill:url(#未命名漸層_39);}.cls-3{fill:url(#未命名漸層_44);}.cls-4{fill:url(#未命名漸層_44-2);}.cls-5{fill:url(#未命名漸層_44-3);}.cls-6{fill:url(#未命名漸層_44-4);}.cls-7{fill:url(#未命名漸層_44-5);}.cls-8{fill:url(#未命名漸層_44-6);}.cls-9{fill:url(#未命名漸層_44-7);}.cls-10{fill:url(#未命名漸層_68);}.cls-11{fill:url(#未命名漸層_68-2);}.cls-12{fill:url(#未命名漸層_53);}.cls-13{fill:url(#未命名漸層_68-3);}</style><linearGradient id="未命名漸層_39" x1="29.8" y1="-0.33" x2="29.8" y2="78.85" gradientUnits="userSpaceOnUse"><stop offset="0.21" stop-color="#dd1c53"/><stop offset="0.33" stop-color="#de2054"/><stop offset="0.45" stop-color="#e02b58"/><stop offset="0.56" stop-color="#e33e5e"/><stop offset="0.67" stop-color="#e85867"/><stop offset="0.78" stop-color="#ee7a73"/><stop offset="0.88" stop-color="#f5a381"/><stop offset="0.99" stop-color="#fed491"/><stop offset="1" stop-color="#ffdb94"/></linearGradient><linearGradient id="未命名漸層_44" x1="29.8" y1="-279.89" x2="29.8" y2="114" gradientUnits="userSpaceOnUse"><stop offset="0" stop-color="#fbf1f3"/><stop offset="0.29" stop-color="#f8e7eb"/><stop offset="0.78" stop-color="#f1cbd4"/><stop offset="1" stop-color="#edbcc8"/></linearGradient><linearGradient id="未命名漸層_44-2" x1="35.35" y1="-1.74" x2="35.35" y2="28.46" xlink:href="#未命名漸層_44"/><linearGradient id="未命名漸層_44-3" x1="18.55" y1="-1.74" x2="18.55" y2="28.46" xlink:href="#未命名漸層_44"/><linearGradient id="未命名漸層_44-4" x1="24.38" y1="10.91" x2="24.38" y2="41.11" xlink:href="#未命名漸層_44"/><linearGradient id="未命名漸層_44-5" x1="41.18" y1="10.91" x2="41.18" y2="41.11" xlink:href="#未命名漸層_44"/><linearGradient id="未命名漸層_44-6" x1="29.98" y1="2.47" x2="29.98" y2="32.67" xlink:href="#未命名漸層_44"/><linearGradient id="未命名漸層_44-7" x1="29.98" y1="6.7" x2="29.98" y2="36.89" xlink:href="#未命名漸層_44"/><linearGradient id="未命名漸層_68" x1="351.41" y1="217.76" x2="351.41" y2="237.79" gradientTransform="translate(-58.42 -365.31) rotate(45)" gradientUnits="userSpaceOnUse"><stop offset="0" stop-color="#aedcff"/><stop offset="0.3" stop-color="#b8e1ff"/><stop offset="0.82" stop-color="#d4edff"/><stop offset="1" stop-color="#dff2ff"/></linearGradient><linearGradient id="未命名漸層_68-2" x1="-72.65" y1="-323.15" x2="-72.65" y2="-303.12" gradientTransform="translate(303.75 214.29) rotate(-45)" xlink:href="#未命名漸層_68"/><linearGradient id="未命名漸層_53" x1="29.98" y1="15.01" x2="29.98" y2="57.85" gradientUnits="userSpaceOnUse"><stop offset="0" stop-color="#545aff"/><stop offset="1" stop-color="#46beff"/></linearGradient><linearGradient id="未命名漸層_68-3" x1="29.98" y1="30.05" x2="29.98" y2="47.57" gradientTransform="matrix(1, 0, 0, 1, 0, 0)" xlink:href="#未命名漸層_68"/></defs><title>icon.v2</title><g id="圖層_3" data-name="圖層 3"><rect class="cls-1" x="-235.13" y="-137.01" width="702.75" height="269.75"/></g><g id="圖層_2" data-name="圖層 2"><path class="cls-2" d="M56.14,16.08C49.38,2.3,35,.23,30.22,0V0h-.84V0C24.58.23,10.21,2.3,3.45,16.08c-8,16.29-.27,28.28,4.61,34.6S27.21,76.25,27.21,76.25s1.48,2,2.51,2.15h.16c1-.2,2.51-2.15,2.51-2.15S46.66,57,51.54,50.68,64.13,32.37,56.14,16.08Z"/><path class="cls-3" d="M46.32,15.37h-33a3.8,3.8,0,0,0-3.8,3.8v22.6a3.8,3.8,0,0,0,3.8,3.8h33a3.81,3.81,0,0,0,3.8-3.8V19.17A3.8,3.8,0,0,0,46.32,15.37Zm1.48,26.4a1.48,1.48,0,0,1-1.48,1.48h-33a1.49,1.49,0,0,1-1.49-1.48V19.17a1.49,1.49,0,0,1,1.49-1.49h33a1.49,1.49,0,0,1,1.48,1.49Z"/><path class="cls-4" d="M26,23.21H44.68a1.16,1.16,0,1,0,0-2.31H26a1.16,1.16,0,1,0,0,2.31Z"/><path class="cls-5" d="M15.05,23.21h7a1.16,1.16,0,0,0,0-2.31h-7a1.16,1.16,0,1,0,0,2.31Z"/><path class="cls-6" d="M33.71,33.54H15.05a1.16,1.16,0,0,0,0,2.32H33.71a1.16,1.16,0,0,0,0-2.32Z"/><path class="cls-7" d="M44.68,33.54h-7a1.16,1.16,0,1,0,0,2.32h7a1.16,1.16,0,0,0,0-2.32Z"/><path class="cls-8" d="M44.8,25.11H15.16a1.16,1.16,0,0,0,0,2.32H44.8a1.16,1.16,0,1,0,0-2.32Z"/><path class="cls-9" d="M44.8,29.33H15.16a1.16,1.16,0,1,0,0,2.31H44.8a1.16,1.16,0,1,0,0-2.31Z"/><path class="cls-10" d="M23.85,52.85l-.56-2.49a.57.57,0,0,0-.41-.42l-2.5-.56a.54.54,0,0,1-.26-.91l5.05-5.06a.55.55,0,0,1,.77,0l3.88,3.88a.55.55,0,0,1,0,.77l-5.06,5A.54.54,0,0,1,23.85,52.85Z"/><path class="cls-11" d="M39.58,49.38l-2.5.56a.57.57,0,0,0-.41.42l-.56,2.49a.54.54,0,0,1-.91.26l-5.06-5a.55.55,0,0,1,0-.77L34,43.41a.55.55,0,0,1,.77,0l5.05,5.06A.54.54,0,0,1,39.58,49.38Z"/><path class="cls-12" d="M31.29,32.33a8.93,8.93,0,0,0-2.73,0,8.81,8.81,0,0,0,.1,17.41,9,9,0,0,0,2.74,0,8.81,8.81,0,0,0-.11-17.41Z"/><path class="cls-13" d="M26.18,45.68c.11-.55.23-1.17.35-1.79l.18-.92a.64.64,0,0,0-.22-.67c-.64-.58-1.26-1.18-1.9-1.76a.78.78,0,0,1-.27-.87.72.72,0,0,1,.71-.48l2.62-.32a.61.61,0,0,0,.52-.4c.36-.78.73-1.55,1.08-2.33.15-.32.34-.57.73-.56s.59.26.73.58c.35.77.72,1.53,1.07,2.3a.65.65,0,0,0,.59.42c.89.09,1.77.21,2.65.32a.68.68,0,0,1,.63.51.71.71,0,0,1-.22.76c-.65.61-1.3,1.22-2,1.82a.64.64,0,0,0-.22.69c.18.87.33,1.75.51,2.62a.73.73,0,0,1-1.09.79c-.75-.42-1.5-.82-2.23-1.25a.8.8,0,0,0-.93,0c-.73.43-1.48.84-2.24,1.24A.72.72,0,0,1,26.18,45.68Z"/></g></svg>