<?xml version="1.0" encoding="utf-8"?>
<!-- Generator: Adobe Illustrator 24.0.1, SVG Export Plug-In . SVG Version: 6.00 Build 0)  -->
<svg version="1.1" id="圖層_1" xmlns="http://www.w3.org/2000/svg" xmlns:xlink="http://www.w3.org/1999/xlink" x="0px" y="0px"
	 viewBox="0 0 59.6 78.4" style="enable-background:new 0 0 59.6 78.4;" xml:space="preserve">
<style type="text/css">
	.st0{fill:url(#SVGID_1_);}
	.st1{fill:url(#SVGID_2_);}
	.st2{fill:url(#SVGID_3_);}
	.st3{fill:url(#SVGID_4_);}
	.st4{fill:url(#SVGID_5_);}
	.st5{fill:url(#SVGID_6_);}
</style>
<title>icon.v2</title>
<g id="圖層_2_1_">
	
		<linearGradient id="SVGID_1_" gradientUnits="userSpaceOnUse" x1="29.7939" y1="78.2198" x2="29.7939" y2="-0.9602" gradientTransform="matrix(1 0 0 -1 0 77.8898)">
		<stop  offset="0.21" style="stop-color:#DD1C53"/>
		<stop  offset="0.33" style="stop-color:#DE2054"/>
		<stop  offset="0.45" style="stop-color:#E02B58"/>
		<stop  offset="0.56" style="stop-color:#E33E5E"/>
		<stop  offset="0.67" style="stop-color:#E85867"/>
		<stop  offset="0.78" style="stop-color:#EE7A73"/>
		<stop  offset="0.88" style="stop-color:#F5A381"/>
		<stop  offset="0.99" style="stop-color:#FED491"/>
		<stop  offset="1" style="stop-color:#FFDB94"/>
	</linearGradient>
	<path class="st0" d="M56.1,16.1C49.4,2.3,35,0.2,30.2,0l0,0h-0.8l0,0C24.6,0.2,10.2,2.3,3.5,16.1c-8,16.3-0.3,28.3,4.6,34.6
		s19.1,25.6,19.1,25.6s1.5,2,2.5,2.2h0.2c1-0.2,2.5-2.2,2.5-2.2S46.7,57,51.5,50.7S64.1,32.4,56.1,16.1z"/>
	
		<linearGradient id="SVGID_2_" gradientUnits="userSpaceOnUse" x1="29.8402" y1="72.2298" x2="29.8402" y2="49.6098" gradientTransform="matrix(1 0 0 -1 0 77.8898)">
		<stop  offset="0" style="stop-color:#FBF1F3"/>
		<stop  offset="0.29" style="stop-color:#F8E7EB"/>
		<stop  offset="0.78" style="stop-color:#F1CBD4"/>
		<stop  offset="1" style="stop-color:#EDBCC8"/>
	</linearGradient>
	<path class="st1" d="M43.1,20.3c-2.1-7.3-9.6-11.6-17-9.5c-4.6,1.3-8.3,4.9-9.5,9.5c-6.4,1.7-9.7,5.3-9.7,11
		c0,7.1,5.3,11.5,13.8,11.5h8.2v-4.3h-8.2c-2.2,0-9.5-0.5-9.5-7.2c0-3.8,2.4-6,7.6-7.1l1.5-0.3l0.2-1.5c0.9-5.2,5.8-8.6,10.9-7.7
		c4,0.7,7.1,3.8,7.7,7.7l0.2,1.5l1.5,0.3c5.2,1,7.6,3.3,7.6,7.1c0,6.7-7.2,7.2-9.5,7.2h-8.2v4.3H39c8.5,0,13.8-4.4,13.8-11.5
		C52.8,25.6,49.5,22,43.1,20.3z"/>
	
		<linearGradient id="SVGID_3_" gradientUnits="userSpaceOnUse" x1="29.8851" y1="32.2298" x2="29.8851" y2="50.8698" gradientTransform="matrix(1 0 0 -1 0 77.8898)">
		<stop  offset="0" style="stop-color:#AEDCFF"/>
		<stop  offset="0.3" style="stop-color:#B8E1FF"/>
		<stop  offset="0.82" style="stop-color:#D4EDFF"/>
		<stop  offset="1" style="stop-color:#DFF2FF"/>
	</linearGradient>
	<path class="st2" d="M43,28.3c-0.3-0.3-0.7-0.5-1.1-0.5h-24c-0.9,0-1.6,0.7-1.6,1.5c0,0,0,0,0,0v5.2c0,0.9,0.7,1.6,1.5,1.6
		c0,0,0,0,0,0h24c0.9,0,1.5-0.7,1.6-1.5c0,0,0,0,0,0v-5.2C43.5,29,43.3,28.6,43,28.3z M36.9,33.8c-0.2,0.2-0.5,0.3-0.7,0.3
		c-0.3,0-0.5-0.1-0.7-0.3c-0.4-0.4-0.4-1-0.1-1.4c0,0,0,0,0.1-0.1c0.2-0.2,0.5-0.3,0.7-0.3c0.6,0,1,0.4,1,1
		C37.2,33.3,37.1,33.6,36.9,33.8L36.9,33.8z M41.1,33.8c-0.4,0.4-1,0.4-1.4,0.1c0,0,0,0-0.1-0.1c-0.4-0.4-0.4-1,0-1.4s1-0.4,1.4,0
		l0,0C41.4,32.7,41.4,33.4,41.1,33.8C41,33.8,41,33.8,41.1,33.8L41.1,33.8z"/>
	
		<linearGradient id="SVGID_4_" gradientUnits="userSpaceOnUse" x1="29.8635" y1="59.5498" x2="29.8635" y2="24.0698" gradientTransform="matrix(1 0 0 -1 0 77.8898)">
		<stop  offset="0" style="stop-color:#545AFF"/>
		<stop  offset="1" style="stop-color:#46BEFF"/>
	</linearGradient>
	<path class="st3" d="M36,47.2h-3.4v-11c0-1.5-1.2-2.7-2.7-2.7c-1.5,0-2.7,1.2-2.7,2.7v11h-3.7c-1.6,0-1.9,1.3-0.8,2.3l1.4,1.4l3,3
		l0.9,0.9c1.3,1.3,2.5,1.3,3.9,0l0.7-0.7l3.3-3.2l1.3-1.3C38,48.6,37.9,47.2,36,47.2z"/>
	
		<linearGradient id="SVGID_5_" gradientUnits="userSpaceOnUse" x1="36.16" y1="47.5098" x2="36.16" y2="43.8298" gradientTransform="matrix(1 0 0 -1 0 77.8898)">
		<stop  offset="0" style="stop-color:#545AFF"/>
		<stop  offset="1" style="stop-color:#46BEFF"/>
	</linearGradient>
	<path class="st4" d="M36.1,34.3c0.6,0,1.2-0.5,1.2-1.1s-0.5-1.2-1.1-1.2c-0.6,0-1.2,0.5-1.2,1.1c0,0,0,0,0,0
		C35,33.7,35.5,34.2,36.1,34.3z"/>
	
		<linearGradient id="SVGID_6_" gradientUnits="userSpaceOnUse" x1="40.18" y1="47.5098" x2="40.18" y2="43.8298" gradientTransform="matrix(1 0 0 -1 0 77.8898)">
		<stop  offset="0" style="stop-color:#545AFF"/>
		<stop  offset="1" style="stop-color:#46BEFF"/>
	</linearGradient>
	<path class="st5" d="M40.2,32c-0.6,0-1.2,0.5-1.2,1.2c0,0.6,0.5,1.2,1.2,1.2c0.6,0,1.2-0.5,1.2-1.2c0,0,0,0,0,0
		C41.3,32.5,40.8,32,40.2,32z"/>
</g>
</svg>
