<svg xmlns="http://www.w3.org/2000/svg" xmlns:xlink="http://www.w3.org/1999/xlink" viewBox="0 0 59.6 78.41"><defs><style>.cls-1{fill:#e6e6e6;}.cls-2{fill:url(#未命名漸層_39);}.cls-3{fill:url(#未命名漸層_44);}.cls-4{fill:url(#未命名漸層_44-2);}.cls-5{fill:url(#未命名漸層_44-3);}.cls-6{fill:url(#未命名漸層_44-4);}.cls-7{fill:url(#未命名漸層_53);}.cls-8{fill:url(#未命名漸層_68);}</style><linearGradient id="未命名漸層_39" x1="29.8" y1="-0.33" x2="29.8" y2="78.85" gradientUnits="userSpaceOnUse"><stop offset="0.21" stop-color="#dd1c53"/><stop offset="0.33" stop-color="#de2054"/><stop offset="0.45" stop-color="#e02b58"/><stop offset="0.56" stop-color="#e33e5e"/><stop offset="0.67" stop-color="#e85867"/><stop offset="0.78" stop-color="#ee7a73"/><stop offset="0.88" stop-color="#f5a381"/><stop offset="0.99" stop-color="#fed491"/><stop offset="1" stop-color="#ffdb94"/></linearGradient><linearGradient id="未命名漸層_44" x1="23.99" y1="-0.28" x2="23.99" y2="29.49" gradientUnits="userSpaceOnUse"><stop offset="0" stop-color="#fbf1f3"/><stop offset="0.29" stop-color="#f8e7eb"/><stop offset="0.78" stop-color="#f1cbd4"/><stop offset="1" stop-color="#edbcc8"/></linearGradient><linearGradient id="未命名漸層_44-2" x1="45.78" y1="17.03" x2="45.78" y2="22.15" xlink:href="#未命名漸層_44"/><linearGradient id="未命名漸層_44-3" x1="14.44" y1="42.3" x2="14.44" y2="47.42" xlink:href="#未命名漸層_44"/><linearGradient id="未命名漸層_44-4" x1="38.77" y1="8.04" x2="38.77" y2="14.88" xlink:href="#未命名漸層_44"/><linearGradient id="未命名漸層_53" x1="37.07" y1="19.38" x2="37.07" y2="46.4" gradientUnits="userSpaceOnUse"><stop offset="0" stop-color="#545aff"/><stop offset="1" stop-color="#46beff"/></linearGradient><linearGradient id="未命名漸層_68" x1="37.07" y1="23.53" x2="37.07" y2="45.3" gradientUnits="userSpaceOnUse"><stop offset="0" stop-color="#aedcff"/><stop offset="0.3" stop-color="#b8e1ff"/><stop offset="0.82" stop-color="#d4edff"/><stop offset="1" stop-color="#dff2ff"/></linearGradient></defs><title>icon.v2</title><g id="圖層_3" data-name="圖層 3"><rect class="cls-1" x="-363.2" y="-137.01" width="702.75" height="269.75"/></g><g id="圖層_2" data-name="圖層 2"><path class="cls-2" d="M56.14,16.08C49.38,2.3,35,.23,30.22,0V0h-.84V0C24.58.23,10.21,2.3,3.45,16.08c-8,16.29-.27,28.28,4.61,34.6S27.21,76.25,27.21,76.25s1.48,2,2.51,2.15h.16c1-.2,2.51-2.15,2.51-2.15S46.66,57,51.54,50.68,64.13,32.37,56.14,16.08Z"/><path class="cls-3" d="M33.32,17.05H28.19c-.66,0-1.35-.41-.73-1.43a2.78,2.78,0,0,0,.73-1.84c0-1.8-1.88-3.26-4.2-3.26S19.8,12,19.8,13.78a2.8,2.8,0,0,0,.48,1.54c.94,1.25.25,1.73-.48,1.73H14.67a2.8,2.8,0,0,0-2.79,2.79V23.1c0,.73.47,1.42,1.73.46a2.92,2.92,0,0,1,1.53-.46c1.8,0,3.26,1.88,3.26,4.2s-1.46,4.19-3.26,4.19a2.75,2.75,0,0,1-1.83-.73c-1-.62-1.43.07-1.43.73v5.13a2.81,2.81,0,0,0,2.79,2.8H19.8c.73,0,1.42-.48.45-1.73a3,3,0,0,1-.45-1.54c0-1.8,1.88-3.26,4.19-3.26s4.2,1.46,4.2,3.26A2.78,2.78,0,0,1,27.46,38c-.62,1,.07,1.43.73,1.43h5.13a2.81,2.81,0,0,0,2.79-2.8V31.49c0-.73-.47-1.42-1.73-.45a2.91,2.91,0,0,1-1.53.45c-1.8,0-3.26-1.88-3.26-4.19s1.46-4.2,3.26-4.2a2.75,2.75,0,0,1,1.83.73c1,.62,1.43-.06,1.43-.73V19.84A2.8,2.8,0,0,0,33.32,17.05Z"/><path class="cls-4" d="M47.81,20.85H46.3V19.41a.52.52,0,0,0-.52-.52.52.52,0,0,0-.53.52v1.44H43.74a.52.52,0,0,0-.52.52.52.52,0,0,0,.52.53h1.51v1.43a.53.53,0,0,0,.53.53.52.52,0,0,0,.52-.53V21.9h1.51a.53.53,0,0,0,.53-.53A.52.52,0,0,0,47.81,20.85Z"/><path class="cls-5" d="M16.47,46.12H15V44.68a.52.52,0,0,0-.52-.52.52.52,0,0,0-.53.52v1.44H12.4a.52.52,0,0,0-.52.52.52.52,0,0,0,.52.53h1.51V48.6a.53.53,0,0,0,.53.53A.52.52,0,0,0,15,48.6V47.17h1.51a.53.53,0,0,0,.53-.53A.52.52,0,0,0,16.47,46.12Z"/><path class="cls-6" d="M41.49,13.14h-2V11.22a.7.7,0,0,0-1.4,0v1.92h-2a.71.71,0,0,0,0,1.41h2v1.91a.7.7,0,1,0,1.4,0V14.55h2a.71.71,0,0,0,0-1.41Z"/><path class="cls-7" d="M49.78,38.29l-2.58-.64a10.15,10.15,0,0,0-.87-2.12l1.36-2.28A1,1,0,0,0,47.53,32l-1.82-1.82A1.06,1.06,0,0,0,44.42,30l-2.27,1.37A10.65,10.65,0,0,0,40,30.47l-.65-2.58a1.06,1.06,0,0,0-1-.8H35.78a1.06,1.06,0,0,0-1,.8l-.64,2.58a10.18,10.18,0,0,0-2.12.88L29.72,30a1.06,1.06,0,0,0-1.29.16L26.61,32a1.06,1.06,0,0,0-.16,1.29l1.37,2.28a9.67,9.67,0,0,0-.88,2.12l-2.58.64a1.06,1.06,0,0,0-.8,1v2.57a1,1,0,0,0,.8,1l2.58.65a10.09,10.09,0,0,0,.88,2.12L26.45,48a1,1,0,0,0,.16,1.28l1.82,1.82a1,1,0,0,0,1.29.16L32,49.86a10.75,10.75,0,0,0,2.12.88l.64,2.57a1.06,1.06,0,0,0,1,.8h2.58a1.06,1.06,0,0,0,1-.8L40,50.74a11.28,11.28,0,0,0,2.12-.88l2.27,1.36a1,1,0,0,0,1.29-.16l1.82-1.82A1,1,0,0,0,47.69,48l-1.36-2.28a10.62,10.62,0,0,0,.87-2.12l2.58-.65a1,1,0,0,0,.8-1V39.32A1.06,1.06,0,0,0,49.78,38.29ZM37.07,44.82a4.22,4.22,0,1,1,4.22-4.22A4.22,4.22,0,0,1,37.07,44.82Z"/><path class="cls-8" d="M37.74,36.18a4.32,4.32,0,0,0-1.39,0,4.48,4.48,0,0,0,0,8.85,4.33,4.33,0,0,0,1.39,0,4.47,4.47,0,0,0,0-8.84Z"/></g></svg>