<svg xmlns="http://www.w3.org/2000/svg" xmlns:xlink="http://www.w3.org/1999/xlink" viewBox="0 0 59.6 78.41"><defs><style>.cls-1{fill:#e6e6e6;}.cls-2{fill:url(#未命名漸層_53);}.cls-3{fill:url(#未命名漸層_68);}.cls-4{fill:url(#未命名漸層_61);}.cls-5{fill:url(#未命名漸層_50);}.cls-6{fill:url(#未命名漸層_50-2);}.cls-7{fill:url(#未命名漸層_50-3);}</style><linearGradient id="未命名漸層_53" x1="29.8" y1="78.41" x2="29.8" gradientUnits="userSpaceOnUse"><stop offset="0" stop-color="#545aff"/><stop offset="1" stop-color="#46beff"/></linearGradient><linearGradient id="未命名漸層_68" x1="29.86" y1="5.26" x2="29.86" y2="27.88" gradientUnits="userSpaceOnUse"><stop offset="0" stop-color="#aedcff"/><stop offset="0.3" stop-color="#b8e1ff"/><stop offset="0.82" stop-color="#d4edff"/><stop offset="1" stop-color="#dff2ff"/></linearGradient><linearGradient id="未命名漸層_61" x1="29.86" y1="45.26" x2="29.86" y2="26.62" gradientUnits="userSpaceOnUse"><stop offset="0.19" stop-color="#fff2b2"/><stop offset="0.45" stop-color="#fff6bc"/><stop offset="0.85" stop-color="#ffffd5"/></linearGradient><linearGradient id="未命名漸層_50" x1="29.86" y1="17.94" x2="29.86" y2="53.42" gradientUnits="userSpaceOnUse"><stop offset="0.16" stop-color="#fd5d00"/><stop offset="0.28" stop-color="#fd6700"/><stop offset="0.49" stop-color="#fe8300"/><stop offset="0.76" stop-color="#feb000"/><stop offset="1" stop-color="#fd0"/></linearGradient><linearGradient id="未命名漸層_50-2" x1="36.12" y1="29.98" x2="36.12" y2="33.66" xlink:href="#未命名漸層_50"/><linearGradient id="未命名漸層_50-3" x1="40.18" y1="29.98" x2="40.18" y2="33.66" xlink:href="#未命名漸層_50"/></defs><title>icon.v2</title><g id="圖層_3" data-name="圖層 3"><rect class="cls-1" x="-487.51" y="-147.79" width="702.75" height="269.75"/></g><g id="圖層_2" data-name="圖層 2"><path class="cls-2" d="M56.14,16.08C49.38,2.3,35,.23,30.22,0V0h-.84V0C24.58.23,10.21,2.3,3.45,16.08c-8,16.29-.27,28.28,4.61,34.6S27.21,76.25,27.21,76.25s1.48,2,2.51,2.15h.16c1-.2,2.51-2.15,2.51-2.15S46.66,57,51.54,50.68,64.13,32.37,56.14,16.08Z"/><path class="cls-3" d="M43.12,19.91a13.77,13.77,0,0,0-26.52,0c-6.42,1.66-9.68,5.34-9.68,11,0,7.12,5.27,11.54,13.76,11.54h8.21v-4.3H20.68c-2.22,0-9.46-.52-9.46-7.24,0-3.79,2.42-6,7.61-7.07l1.46-.29.24-1.47a9.47,9.47,0,0,1,18.67,0l.24,1.47,1.46.29c5.19,1,7.61,3.28,7.61,7.07,0,6.72-7.25,7.24-9.47,7.24H30.86v4.3H39c8.49,0,13.76-4.42,13.76-11.54C52.8,25.25,49.55,21.56,43.12,19.91Z"/><path class="cls-4" d="M43,27.94a1.54,1.54,0,0,0-1.11-.45h-24a1.55,1.55,0,0,0-1.57,1.56v5.22a1.55,1.55,0,0,0,1.57,1.56h24a1.54,1.54,0,0,0,1.56-1.56V29.05A1.54,1.54,0,0,0,43,27.94Zm-6.11,5.5a1.05,1.05,0,0,1-.74.31,1,1,0,0,1-.73-.31,1,1,0,0,1,0-1.47,1,1,0,0,1,.73-.31,1,1,0,0,1,1,1A1,1,0,0,1,36.86,33.44Zm4.17,0a1,1,0,0,1-1.47,0A1,1,0,1,1,41,32a1,1,0,0,1,0,1.47Z"/><path class="cls-5" d="M36,46.81H32.62v-11a2.72,2.72,0,0,0-5.44,0v11H23.5c-1.62,0-1.9,1.27-.83,2.33l1.38,1.37,3,3,.93.92c1.29,1.28,2.54,1.32,3.89,0l.69-.67,3.28-3.25,1.31-1.3C38.05,48.23,37.94,46.81,36,46.81Z"/><path class="cls-6" d="M36.12,33.86A1.16,1.16,0,1,0,35,32.7,1.15,1.15,0,0,0,36.12,33.86Z"/><path class="cls-7" d="M40.18,31.55a1.16,1.16,0,1,0,1.16,1.15A1.16,1.16,0,0,0,40.18,31.55Z"/></g></svg>