<svg xmlns="http://www.w3.org/2000/svg" xmlns:xlink="http://www.w3.org/1999/xlink" viewBox="0 0 59.6 78.41"><defs><style>.cls-1{fill:#e6e6e6;}.cls-2{fill:url(#未命名漸層_39);}.cls-3{fill:url(#未命名漸層_68);}.cls-4{fill:url(#未命名漸層_68-2);}.cls-5{fill:url(#未命名漸層_68-3);}.cls-6{fill:url(#未命名漸層_53);}.cls-7{fill:url(#未命名漸層_44);}</style><linearGradient id="未命名漸層_39" x1="29.8" y1="-0.33" x2="29.8" y2="78.85" gradientUnits="userSpaceOnUse"><stop offset="0.21" stop-color="#dd1c53"/><stop offset="0.33" stop-color="#de2054"/><stop offset="0.45" stop-color="#e02b58"/><stop offset="0.56" stop-color="#e33e5e"/><stop offset="0.67" stop-color="#e85867"/><stop offset="0.78" stop-color="#ee7a73"/><stop offset="0.88" stop-color="#f5a381"/><stop offset="0.99" stop-color="#fed491"/><stop offset="1" stop-color="#ffdb94"/></linearGradient><linearGradient id="未命名漸層_68" x1="37.25" y1="-0.5" x2="37.25" y2="23.06" gradientUnits="userSpaceOnUse"><stop offset="0" stop-color="#aedcff"/><stop offset="0.3" stop-color="#b8e1ff"/><stop offset="0.82" stop-color="#d4edff"/><stop offset="1" stop-color="#dff2ff"/></linearGradient><linearGradient id="未命名漸層_68-2" x1="28.15" y1="1.46" x2="28.15" y2="25.02" xlink:href="#未命名漸層_68"/><linearGradient id="未命名漸層_68-3" x1="40.09" y1="8.34" x2="40.09" y2="31.9" xlink:href="#未命名漸層_68"/><linearGradient id="未命名漸層_53" x1="14.16" y1="9.62" x2="13.72" y2="31.08" gradientUnits="userSpaceOnUse"><stop offset="0" stop-color="#545aff"/><stop offset="1" stop-color="#46beff"/></linearGradient><linearGradient id="未命名漸層_44" x1="30.02" y1="39.09" x2="30.02" y2="61.3" gradientUnits="userSpaceOnUse"><stop offset="0" stop-color="#fbf1f3"/><stop offset="0.29" stop-color="#f8e7eb"/><stop offset="0.78" stop-color="#f1cbd4"/><stop offset="1" stop-color="#edbcc8"/></linearGradient></defs><title>icon.v2</title><g id="圖層_3" data-name="圖層 3"><rect class="cls-1" x="-489.72" y="-20.66" width="702.75" height="269.75"/></g><g id="圖層_2" data-name="圖層 2"><path class="cls-2" d="M56.14,16.08C49.38,2.3,35,.23,30.22,0V0h-.84V0C24.58.23,10.21,2.3,3.45,16.08c-8,16.29-.27,28.28,4.61,34.6S27.21,76.25,27.21,76.25s1.48,2,2.51,2.15h.16c1-.2,2.51-2.15,2.51-2.15S46.66,57,51.54,50.68,64.13,32.37,56.14,16.08Z"/><path class="cls-3" d="M40.09,21.78a2.84,2.84,0,1,0-2.84,2.84A2.84,2.84,0,0,0,40.09,21.78Z"/><path class="cls-4" d="M28.15,20.9A2.84,2.84,0,1,0,31,23.74,2.84,2.84,0,0,0,28.15,20.9Z"/><path class="cls-5" d="M40.09,27.78a2.84,2.84,0,1,0,2.84,2.84A2.84,2.84,0,0,0,40.09,27.78Z"/><circle class="cls-6" cx="13.91" cy="21.78" r="6.48"/><path class="cls-7" d="M43.52,49.62H37.88l-.81-3.32a20.15,20.15,0,1,0-21.4-33.06,8.63,8.63,0,0,1,4.59,2.57A15.16,15.16,0,1,1,35.88,41.42l-1-4.19a5.77,5.77,0,0,0,.93-3.15,5.82,5.82,0,1,0-11.63,0,5.71,5.71,0,0,0,.93,3.14l-1,4.18a15.2,15.2,0,0,1-9-11,9.23,9.23,0,0,1-1.18.09,8.71,8.71,0,0,1-4-1,20.2,20.2,0,0,0,13,16.78l-.8,3.31H16.41a2.5,2.5,0,0,0,0,5H43.52a2.5,2.5,0,0,0,0-5ZM32,42.46a15.33,15.33,0,0,1-2,.16,13.94,13.94,0,0,1-2.05-.16l.67-2.73A5.73,5.73,0,0,0,30,39.9a5.81,5.81,0,0,0,1.39-.17Zm-2-10.2a1.82,1.82,0,1,1-1.81,1.82A1.82,1.82,0,0,1,30,32.26Zm-3.8,17.36.56-2.28a20.43,20.43,0,0,0,3.24.28,20.22,20.22,0,0,0,3.24-.29l.56,2.29Z"/></g></svg>