<?xml version="1.0" encoding="utf-8"?>
<!-- Generator: Adobe Illustrator 24.0.1, SVG Export Plug-In . SVG Version: 6.00 Build 0)  -->
<svg version="1.1" id="圖層_1" xmlns="http://www.w3.org/2000/svg" xmlns:xlink="http://www.w3.org/1999/xlink" x="0px" y="0px"
	 viewBox="0 0 59.6 78.4" style="enable-background:new 0 0 59.6 78.4;" xml:space="preserve">
<style type="text/css">
	.st0{fill:url(#SVGID_1_);}
	.st1{fill:url(#SVGID_2_);}
	.st2{fill:url(#SVGID_3_);}
	.st3{fill:url(#SVGID_4_);}
</style>
<title>icon.v2</title>
<g id="圖層_2_1_">
	
		<linearGradient id="SVGID_1_" gradientUnits="userSpaceOnUse" x1="29.7939" y1="78.2198" x2="29.7939" y2="-0.9602" gradientTransform="matrix(1 0 0 -1 0 77.8898)">
		<stop  offset="0.21" style="stop-color:#DD1C53"/>
		<stop  offset="0.33" style="stop-color:#DE2054"/>
		<stop  offset="0.45" style="stop-color:#E02B58"/>
		<stop  offset="0.56" style="stop-color:#E33E5E"/>
		<stop  offset="0.67" style="stop-color:#E85867"/>
		<stop  offset="0.78" style="stop-color:#EE7A73"/>
		<stop  offset="0.88" style="stop-color:#F5A381"/>
		<stop  offset="0.99" style="stop-color:#FED491"/>
		<stop  offset="1" style="stop-color:#FFDB94"/>
	</linearGradient>
	<path class="st0" d="M56.1,16.1C49.4,2.3,35,0.2,30.2,0l0,0h-0.8l0,0C24.6,0.2,10.2,2.3,3.5,16.1c-8,16.3-0.3,28.3,4.6,34.6
		s19.1,25.6,19.1,25.6s1.5,2,2.5,2.2h0.2c1-0.2,2.5-2.2,2.5-2.2S46.7,57,51.5,50.7S64.1,32.4,56.1,16.1z"/>
	
		<linearGradient id="SVGID_2_" gradientUnits="userSpaceOnUse" x1="29.7307" y1="54.9998" x2="29.7307" y2="26.8798" gradientTransform="matrix(1 0 0 -1 0 77.8898)">
		<stop  offset="0" style="stop-color:#FBF1F3"/>
		<stop  offset="0.29" style="stop-color:#F8E7EB"/>
		<stop  offset="0.78" style="stop-color:#F1CBD4"/>
		<stop  offset="1" style="stop-color:#EDBCC8"/>
	</linearGradient>
	<path class="st1" d="M50.5,31c0-11.4-9.2-20.6-20.5-20.7h-0.3C18.2,10.3,9,19.5,9,31c0,11.4,9.3,20.7,20.7,20.7h0.3
		C41.3,51.5,50.4,42.3,50.5,31z M45.6,28.6H39c-0.1-3.5-0.6-6.9-1.5-10.2c-0.2-0.6-0.4-1.2-0.5-1.7C41.6,19,44.8,23.5,45.6,28.6z
		 M29.8,46.9c-2.3,0-4.2-5.9-4.5-13.6h9C34,41,32.1,46.9,29.8,46.9z M25.3,28.6c0.3-7.7,2.2-13.6,4.5-13.6s4.2,5.9,4.5,13.6H25.3z
		 M22.6,16.7c-0.2,0.5-0.4,1.1-0.5,1.7c-0.9,3.3-1.4,6.8-1.5,10.2H14C14.8,23.5,18,19,22.6,16.7z M14,33.3h6.6
		c0.1,3.5,0.6,6.9,1.5,10.2c0.2,0.6,0.4,1.2,0.5,1.7C18,42.9,14.8,38.4,14,33.3z M37,45.2c0.2-0.5,0.4-1.1,0.5-1.7
		c0.9-3.3,1.4-6.8,1.5-10.2h6.6C44.9,38.4,41.6,42.9,37,45.2z"/>
	<circle cx="37.5" cy="15.2" r="3.2"/>
	
		<linearGradient id="SVGID_3_" gradientUnits="userSpaceOnUse" x1="37.53" y1="65.8998" x2="37.53" y2="45.9498" gradientTransform="matrix(1 0 0 -1 0 77.8898)">
		<stop  offset="0" style="stop-color:#545AFF"/>
		<stop  offset="1" style="stop-color:#46BEFF"/>
	</linearGradient>
	<path class="st2" d="M45.4,23.1l-7.9,7.7l-7.9-7.7c-4.4-4.4-4.4-11.5,0-15.8s11.5-4.4,15.8,0S49.8,18.7,45.4,23.1
		C45.4,23.1,45.4,23.1,45.4,23.1L45.4,23.1z"/>
	
		<linearGradient id="SVGID_4_" gradientUnits="userSpaceOnUse" x1="37.52" y1="81.0998" x2="37.52" y2="66.8198" gradientTransform="matrix(1 0 0 -1 0 77.8898)">
		<stop  offset="0" style="stop-color:#AEDCFF"/>
		<stop  offset="0.3" style="stop-color:#B8E1FF"/>
		<stop  offset="0.82" style="stop-color:#D4EDFF"/>
		<stop  offset="1" style="stop-color:#DFF2FF"/>
	</linearGradient>
	<circle class="st3" cx="37.5" cy="15.2" r="6.4"/>
</g>
</svg>
