<?xml version="1.0" encoding="utf-8"?>
<!-- Generator: Adobe Illustrator 24.0.1, SVG Export Plug-In . SVG Version: 6.00 Build 0)  -->
<svg version="1.1" id="圖層_1" xmlns="http://www.w3.org/2000/svg" xmlns:xlink="http://www.w3.org/1999/xlink" x="0px" y="0px"
	 viewBox="0 0 59.6 78.4" style="enable-background:new 0 0 59.6 78.4;" xml:space="preserve">
<style type="text/css">
	.st0{fill:url(#SVGID_1_);}
	.st1{fill:url(#SVGID_2_);}
	.st2{fill:url(#SVGID_3_);}
	.st3{fill:url(#SVGID_4_);}
	.st4{fill:url(#SVGID_5_);}
	.st5{fill-rule:evenodd;clip-rule:evenodd;fill:url(#SVGID_6_);}
</style>
<title>icon.v2</title>
<g id="圖層_2_1_">
	
		<linearGradient id="SVGID_1_" gradientUnits="userSpaceOnUse" x1="29.7939" y1="-0.5102" x2="29.7939" y2="77.8898" gradientTransform="matrix(1 0 0 -1 0 77.8898)">
		<stop  offset="0" style="stop-color:#545AFF"/>
		<stop  offset="1" style="stop-color:#46BEFF"/>
	</linearGradient>
	<path class="st0" d="M56.1,16.1C49.4,2.3,35,0.2,30.2,0l0,0h-0.8l0,0C24.6,0.2,10.2,2.3,3.5,16.1c-8,16.3-0.3,28.3,4.6,34.6
		s19.1,25.6,19.1,25.6s1.5,2,2.5,2.2h0.2c1-0.2,2.5-2.2,2.5-2.2S46.7,57,51.5,50.7S64.1,32.4,56.1,16.1z"/>
	
		<linearGradient id="SVGID_2_" gradientUnits="userSpaceOnUse" x1="29.6659" y1="61.9498" x2="29.6659" y2="42.6698" gradientTransform="matrix(1 0 0 -1 0 77.8898)">
		<stop  offset="0" style="stop-color:#AEDCFF"/>
		<stop  offset="0.3" style="stop-color:#B8E1FF"/>
		<stop  offset="0.82" style="stop-color:#D4EDFF"/>
		<stop  offset="1" style="stop-color:#DFF2FF"/>
	</linearGradient>
	<path class="st1" d="M45.2,47H20c-2,0-3.7-1.7-3.7-3.7l0,0V18.2c0-1.2-1-2.2-2.2-2.2s-2.2,1-2.2,2.2l0,0v25.2
		c0,4.5,3.6,8.1,8.1,8.1h0h25.2c1.2,0,2.2-1,2.2-2.2C47.4,48,46.4,47,45.2,47C45.2,47,45.2,47,45.2,47L45.2,47z"/>
	
		<linearGradient id="SVGID_3_" gradientUnits="userSpaceOnUse" x1="23.32" y1="47.5098" x2="23.32" y2="39.8198" gradientTransform="matrix(1 0 0 -1 0 77.8898)">
		<stop  offset="0" style="stop-color:#AEDCFF"/>
		<stop  offset="0.3" style="stop-color:#B8E1FF"/>
		<stop  offset="0.82" style="stop-color:#D4EDFF"/>
		<stop  offset="1" style="stop-color:#DFF2FF"/>
	</linearGradient>
	<path class="st2" d="M23.3,44.5c1.2,0.1,2.3-0.9,2.3-2.1v-9.9c-0.1-1.3-1.3-2.2-2.5-2.1c-1.1,0.1-2,1-2.1,2.1v9.9
		C21.1,43.6,22.1,44.6,23.3,44.5z"/>
	
		<linearGradient id="SVGID_4_" gradientUnits="userSpaceOnUse" x1="30.55" y1="43.3598" x2="30.55" y2="37.9298" gradientTransform="matrix(1 0 0 -1 0 77.8898)">
		<stop  offset="0" style="stop-color:#AEDCFF"/>
		<stop  offset="0.3" style="stop-color:#B8E1FF"/>
		<stop  offset="0.82" style="stop-color:#D4EDFF"/>
		<stop  offset="1" style="stop-color:#DFF2FF"/>
	</linearGradient>
	<path class="st3" d="M30.5,44.5c1.2,0,2.3-0.9,2.3-2.2v-5.7c-0.1-1.3-1.3-2.2-2.5-2.1c-1.1,0.1-2,1-2.1,2.1v5.7
		C28.3,43.6,29.3,44.6,30.5,44.5z"/>
	
		<linearGradient id="SVGID_5_" gradientUnits="userSpaceOnUse" x1="37.785" y1="49.8898" x2="37.785" y2="40.9098" gradientTransform="matrix(1 0 0 -1 0 77.8898)">
		<stop  offset="0" style="stop-color:#AEDCFF"/>
		<stop  offset="0.3" style="stop-color:#B8E1FF"/>
		<stop  offset="0.82" style="stop-color:#D4EDFF"/>
		<stop  offset="1" style="stop-color:#DFF2FF"/>
	</linearGradient>
	<path class="st4" d="M37.8,44.5c1.3,0,2.3-1,2.3-2.2c0,0,0,0,0,0v-12C40,29,38.9,28,37.6,28.1c-1.2,0.1-2.1,1-2.2,2.2v12
		C35.5,43.5,36.5,44.6,37.8,44.5C37.8,44.5,37.8,44.5,37.8,44.5z"/>
	
		<linearGradient id="SVGID_6_" gradientUnits="userSpaceOnUse" x1="37.2226" y1="77.2498" x2="37.2226" y2="51.5298" gradientTransform="matrix(1 0 0 -1 0 77.8898)">
		<stop  offset="0" style="stop-color:#FD5D00"/>
		<stop  offset="0.12" style="stop-color:#FD6700"/>
		<stop  offset="0.32" style="stop-color:#FE8300"/>
		<stop  offset="0.59" style="stop-color:#FEB000"/>
		<stop  offset="0.82" style="stop-color:#FFDD00"/>
	</linearGradient>
	<path class="st5" d="M52.8,27L47,22.1c2.4-3.7,1.3-8.7-2.4-11.1s-8.7-1.3-11.1,2.4c-2,3.2-1.6,7.3,1.1,10c0.3,0.2,0.5,0.5,0.8,0.7
		l-4.1,4.1c-0.3-0.2-0.7-0.2-1-0.2c-0.6,0-1.1,0.2-1.5,0.6l-3.5-2.4c0.1-0.2,0.1-0.4,0.1-0.6c0-1.2-1-2.2-2.2-2.2
		c-1.2,0-2.2,1-2.2,2.2c0,1.2,1,2.2,2.2,2.2l0,0c0.6,0,1.2-0.3,1.6-0.7l3.4,2.3c-0.4,1.1,0.1,2.4,1.3,2.9c1.1,0.4,2.4-0.1,2.9-1.3
		c0.1-0.3,0.2-0.5,0.1-0.8c0-0.5-0.2-1-0.5-1.4l4.2-4.2c2.6,1.5,5.8,1.4,8.3-0.2l4.8,5.8c0.9,0.9,2.4,1,3.4,0S53.7,27.9,52.8,27
		L52.8,27z M43.8,21.3c-1.9,1.9-5,1.9-6.9,0c-1.9-1.9-1.9-5,0-6.9c1.9-1.9,5-1.9,6.9,0C45.7,16.3,45.7,19.4,43.8,21.3L43.8,21.3z"/>
</g>
</svg>
