<svg xmlns="http://www.w3.org/2000/svg" xmlns:xlink="http://www.w3.org/1999/xlink" viewBox="0 0 59.6 78.41"><defs><style>.cls-1{fill:#e6e6e6;}.cls-2{fill:url(#未命名漸層_39);}.cls-3{fill:url(#未命名漸層_44);}.cls-4{fill:url(#未命名漸層_44-2);}.cls-5{fill:url(#未命名漸層_44-3);}.cls-6{fill:url(#未命名漸層_44-4);}.cls-7{fill-rule:evenodd;fill:url(#未命名漸層_53);}</style><linearGradient id="未命名漸層_39" x1="29.8" y1="-0.33" x2="29.8" y2="78.85" gradientUnits="userSpaceOnUse"><stop offset="0.21" stop-color="#dd1c53"/><stop offset="0.33" stop-color="#de2054"/><stop offset="0.45" stop-color="#e02b58"/><stop offset="0.56" stop-color="#e33e5e"/><stop offset="0.67" stop-color="#e85867"/><stop offset="0.78" stop-color="#ee7a73"/><stop offset="0.88" stop-color="#f5a381"/><stop offset="0.99" stop-color="#fed491"/><stop offset="1" stop-color="#ffdb94"/></linearGradient><linearGradient id="未命名漸層_44" x1="29.66" y1="16.89" x2="29.66" y2="53.84" gradientUnits="userSpaceOnUse"><stop offset="0" stop-color="#fbf1f3"/><stop offset="0.29" stop-color="#f8e7eb"/><stop offset="0.78" stop-color="#f1cbd4"/><stop offset="1" stop-color="#edbcc8"/></linearGradient><linearGradient id="未命名漸層_44-2" x1="23.32" y1="31.34" x2="23.32" y2="46.07" xlink:href="#未命名漸層_44"/><linearGradient id="未命名漸層_44-3" x1="30.55" y1="35.49" x2="30.55" y2="45.9" xlink:href="#未命名漸層_44"/><linearGradient id="未命名漸層_44-4" x1="37.78" y1="28.96" x2="37.78" y2="46.16" xlink:href="#未命名漸層_44"/><linearGradient id="未命名漸層_53" x1="37.28" y1="1.6" x2="37.28" y2="27.32" gradientUnits="userSpaceOnUse"><stop offset="0" stop-color="#545aff"/><stop offset="1" stop-color="#46beff"/></linearGradient></defs><title>icon.v2</title><g id="圖層_3" data-name="圖層 3"><rect class="cls-1" x="-363.2" y="-20.66" width="702.75" height="269.75"/></g><g id="圖層_2" data-name="圖層 2"><path class="cls-2" d="M56.14,16.08C49.38,2.3,35,.23,30.22,0V0h-.84V0C24.58.23,10.21,2.3,3.45,16.08c-8,16.29-.27,28.28,4.61,34.6S27.21,76.25,27.21,76.25s1.48,2,2.51,2.15h.16c1-.2,2.51-2.15,2.51-2.15S46.66,57,51.54,50.68,64.13,32.37,56.14,16.08Z"/><path class="cls-3" d="M45.2,48H20.05a3.7,3.7,0,0,1-3.7-3.7V19.11a2.22,2.22,0,0,0-4.44,0V44.27a8.15,8.15,0,0,0,8.14,8.14H45.2a2.22,2.22,0,0,0,0-4.44Z"/><path class="cls-4" d="M23.32,45.5a2.23,2.23,0,0,0,2.32-2.13V33.46a2.33,2.33,0,0,0-4.64,0v9.91A2.23,2.23,0,0,0,23.32,45.5Z"/><path class="cls-5" d="M30.55,45.5a2.24,2.24,0,0,0,2.32-2.15V37.63a2.33,2.33,0,0,0-4.64,0v5.72A2.24,2.24,0,0,0,30.55,45.5Z"/><path class="cls-6" d="M37.78,45.5a2.28,2.28,0,0,0,2.32-2.26v-12a2.32,2.32,0,0,0-4.63,0v12A2.28,2.28,0,0,0,37.78,45.5Z"/><path class="cls-7" d="M52.82,27.91,47,23.1a8,8,0,1,0-12.4,1.34,6.32,6.32,0,0,0,.81.66l-4.09,4.1a2.18,2.18,0,0,0-1-.24,2.26,2.26,0,0,0-1.53.61l-3.48-2.38a2.2,2.2,0,0,0,.1-.64,2.23,2.23,0,1,0-.6,1.52l3.43,2.34a2.21,2.21,0,0,0-.15.78,2.23,2.23,0,0,0,4.46,0,2.19,2.19,0,0,0-.48-1.36l4.17-4.17a8,8,0,0,0,8.34-.16l4.81,5.79a2.39,2.39,0,0,0,3.38-3.38Zm-9-5.66a4.89,4.89,0,1,1,0-6.92A4.88,4.88,0,0,1,43.77,22.25Z"/></g></svg>