<?xml version="1.0" encoding="utf-8"?>
<!-- Generator: Adobe Illustrator 24.0.1, SVG Export Plug-In . SVG Version: 6.00 Build 0)  -->
<svg version="1.1" id="圖層_1" xmlns="http://www.w3.org/2000/svg" xmlns:xlink="http://www.w3.org/1999/xlink" x="0px" y="0px"
	 viewBox="0 0 59.6 78.4" style="enable-background:new 0 0 59.6 78.4;" xml:space="preserve">
<style type="text/css">
	.st0{fill:url(#SVGID_1_);}
	.st1{fill:url(#SVGID_2_);}
	.st2{fill:url(#SVGID_3_);}
	.st3{fill:url(#SVGID_4_);}
	.st4{fill:url(#SVGID_5_);}
	.st5{fill:url(#SVGID_6_);}
</style>
<title>icon.v2</title>
<g id="圖層_2_1_">
	
		<linearGradient id="SVGID_1_" gradientUnits="userSpaceOnUse" x1="29.7939" y1="-0.5102" x2="29.7939" y2="77.8898" gradientTransform="matrix(1 0 0 -1 0 77.8898)">
		<stop  offset="0" style="stop-color:#545AFF"/>
		<stop  offset="1" style="stop-color:#46BEFF"/>
	</linearGradient>
	<path class="st0" d="M56.1,16.1C49.4,2.3,35,0.2,30.2,0l0,0h-0.8l0,0C24.6,0.2,10.2,2.3,3.5,16.1c-8,16.3-0.3,28.3,4.6,34.6
		s19.1,25.6,19.1,25.6s1.5,2,2.5,2.2h0.2c1-0.2,2.5-2.2,2.5-2.2S46.7,57,51.5,50.7S64.1,32.4,56.1,16.1z"/>
	
		<linearGradient id="SVGID_2_" gradientUnits="userSpaceOnUse" x1="37.25" y1="80.8798" x2="37.25" y2="62.9498" gradientTransform="matrix(1 0 0 -1 0 77.8898)">
		<stop  offset="0" style="stop-color:#FFF2B2"/>
		<stop  offset="0.39" style="stop-color:#FFF6BC"/>
		<stop  offset="1" style="stop-color:#FFFFD5"/>
	</linearGradient>
	<path class="st1" d="M40.1,21.8c0-1.6-1.3-2.8-2.8-2.8s-2.8,1.3-2.8,2.8s1.3,2.8,2.8,2.8S40.1,23.3,40.1,21.8L40.1,21.8z"/>
	
		<linearGradient id="SVGID_3_" gradientUnits="userSpaceOnUse" x1="28.16" y1="78.9198" x2="28.16" y2="60.9998" gradientTransform="matrix(1 0 0 -1 0 77.8898)">
		<stop  offset="0" style="stop-color:#FFF2B2"/>
		<stop  offset="0.39" style="stop-color:#FFF6BC"/>
		<stop  offset="1" style="stop-color:#FFFFD5"/>
	</linearGradient>
	<path class="st2" d="M28.1,20.9c-1.6,0-2.8,1.3-2.8,2.8c0,1.6,1.3,2.8,2.8,2.8c1.6,0,2.8-1.3,2.8-2.8C31,22.2,29.7,20.9,28.1,20.9
		C28.2,20.9,28.2,20.9,28.1,20.9z"/>
	
		<linearGradient id="SVGID_4_" gradientUnits="userSpaceOnUse" x1="40.09" y1="72.0398" x2="40.09" y2="54.1198" gradientTransform="matrix(1 0 0 -1 0 77.8898)">
		<stop  offset="0" style="stop-color:#FFF2B2"/>
		<stop  offset="0.39" style="stop-color:#FFF6BC"/>
		<stop  offset="1" style="stop-color:#FFFFD5"/>
	</linearGradient>
	<path class="st3" d="M40.1,27.8c-1.6,0-2.8,1.3-2.8,2.8c0,1.6,1.3,2.8,2.8,2.8s2.8-1.3,2.8-2.8C42.9,29.1,41.7,27.8,40.1,27.8
		L40.1,27.8z"/>
	
		<linearGradient id="SVGID_5_" gradientUnits="userSpaceOnUse" x1="14.1593" y1="68.2698" x2="13.7193" y2="46.8098" gradientTransform="matrix(1 0 0 -1 0 77.8898)">
		<stop  offset="9.000000e-02" style="stop-color:#FD5D00"/>
		<stop  offset="0.19" style="stop-color:#FD6700"/>
		<stop  offset="0.37" style="stop-color:#FE8300"/>
		<stop  offset="0.6" style="stop-color:#FEB000"/>
		<stop  offset="0.81" style="stop-color:#FFDD00"/>
	</linearGradient>
	<circle class="st4" cx="13.9" cy="21.8" r="6.5"/>
	
		<linearGradient id="SVGID_6_" gradientUnits="userSpaceOnUse" x1="29.8596" y1="82.9498" x2="30.0496" y2="43.9598" gradientTransform="matrix(1 0 0 -1 0 77.8898)">
		<stop  offset="0" style="stop-color:#AEDCFF"/>
		<stop  offset="0.3" style="stop-color:#B8E1FF"/>
		<stop  offset="0.82" style="stop-color:#D4EDFF"/>
		<stop  offset="1" style="stop-color:#DFF2FF"/>
	</linearGradient>
	<path class="st5" d="M43.5,49.6h-5.6l-0.8-3.3c10.4-3.9,15.7-15.6,11.7-26S33.3,4.7,22.9,8.6c-2.7,1-5.1,2.6-7.2,4.6
		c1.8,0.4,3.4,1.3,4.6,2.6c6.4-5.4,16-4.5,21.3,2s4.5,16-2,21.3c-1.1,0.9-2.4,1.7-3.8,2.3l-1-4.2c0.6-0.9,0.9-2,0.9-3.2
		c0.1-3.2-2.4-5.9-5.6-6.1s-5.9,2.4-6.1,5.6c0,0.2,0,0.3,0,0.5c0,1.1,0.3,2.2,0.9,3.1l-1,4.2c-4.6-2-8-6.1-9-11
		c-0.4,0.1-0.8,0.1-1.2,0.1c-1.4,0-2.8-0.4-4-1c0.8,7.6,5.8,14.1,13,16.8l-0.8,3.3h-5.7c-1.4,0-2.5,1.1-2.5,2.5s1.1,2.5,2.5,2.5
		h27.1c1.4,0,2.5-1.1,2.5-2.5S44.9,49.6,43.5,49.6L43.5,49.6z M30,32.3c1,0,1.8,0.8,1.8,1.8c0,1-0.8,1.8-1.8,1.8
		c-1,0-1.8-0.8-1.8-1.8c0,0,0,0,0,0C28.2,33.1,29,32.3,30,32.3z M28.6,39.7c0.9,0.2,1.9,0.2,2.8,0l0.6,2.7c-0.7,0.1-1.3,0.2-2,0.2
		c-0.7,0-1.4-0.1-2-0.2L28.6,39.7z M26.8,47.3c1.1,0.2,2.2,0.3,3.2,0.3c1.1,0,2.2-0.1,3.2-0.3l0.6,2.3h-7.6L26.8,47.3z"/>
</g>
</svg>
