<?xml version="1.0" encoding="utf-8"?>
<!-- Generator: Adobe Illustrator 24.0.1, SVG Export Plug-In . SVG Version: 6.00 Build 0)  -->
<svg version="1.1" id="圖層_1" xmlns="http://www.w3.org/2000/svg" xmlns:xlink="http://www.w3.org/1999/xlink" x="0px" y="0px"
	 viewBox="0 0 358.8 55" style="enable-background:new 0 0 358.8 55;" xml:space="preserve">
<style type="text/css">
	.st0{fill:#033F75;}
	.st1{fill:#FFFFFF;}
	.st2{fill:url(#SVGID_1_);}
</style>
<title>logo</title>
<g>
	<g>
		<path class="st0" d="M98.6,14c-2.7,5.9-9.1,8-16.6,8.7c-0.2-0.6-0.6-1.7-0.9-2.2c3.1-0.2,6-0.7,8.4-1.5c-0.5-0.6-1.3-1.2-2-1.8
			c-0.8,0.4-1.6,0.8-2.5,1.1c-0.3-0.5-0.9-1.4-1.4-1.8c4-1.2,6.7-3.2,8.2-5l2.5,0.6c-0.4,0.4-0.8,0.9-1.2,1.3h3.5l0.4-0.1L98.6,14z
			 M96,6.9c-2.5,4.5-8,6.9-13.7,7.9c-0.2-0.6-0.7-1.5-1.1-2c2-0.3,4-0.8,5.7-1.5c-0.5-0.5-1.2-1.2-1.9-1.8c-0.6,0.3-1.1,0.6-1.8,0.9
			c-0.4-0.5-1.1-1.3-1.6-1.7c3.1-1.2,5.5-2.8,6.8-4.3L91,5C90.7,5.3,90.3,5.7,90,6h4.1L94.5,6L96,6.9z M87.5,8.1
			c-0.2,0.1-0.4,0.3-0.6,0.4c0.8,0.6,1.6,1.3,2.2,1.9c1.2-0.6,2.4-1.4,3.2-2.3H87.5z M90.6,15.3c-0.4,0.3-0.8,0.5-1.1,0.8
			c0.8,0.6,1.7,1.3,2.3,1.9c1.3-0.7,2.4-1.6,3.3-2.7H90.6z"/>
		<path class="st0" d="M117.2,20.2c0.6,0,0.8-0.5,0.9-3.3c0.5,0.4,1.5,0.8,2.1,1c-0.2,3.5-0.8,4.5-2.8,4.5h-2.3
			c-2.2,0-2.8-0.7-2.8-3v-6h-2.9c-0.4,4.1-1.2,7.4-5.9,9.3c-0.3-0.6-0.9-1.4-1.4-1.9c4.1-1.5,4.6-4.1,4.8-7.4h-4.4v-2.3h17.4v2.3
			h-5.1v6c0,0.7,0.1,0.9,0.8,0.9H117.2z M118.1,8.1h-13.8V5.8h13.8V8.1z"/>
		<path class="st0" d="M126.6,13.4c-0.6-0.6-2-1.4-3.1-1.9l1.3-1.7c1.1,0.4,2.5,1.1,3.2,1.8L126.6,13.4z M128.2,16.3
			c-0.7,2.1-1.5,4.3-2.3,6.2l-2.1-1.2c0.7-1.5,1.8-4,2.5-6.3L128.2,16.3z M127.3,8.3c-0.6-0.6-2-1.5-3-2l1.3-1.7
			c1.1,0.4,2.4,1.2,3.1,1.8L127.3,8.3z M131.5,18.7c-0.7,1.5-1.8,3.2-2.7,4.2c-0.4-0.4-1.3-1-1.8-1.3c1-0.9,1.9-2.2,2.4-3.5
			L131.5,18.7z M134.8,17.9h-5.9V5.3h5.9V17.9z M132.7,7.3h-1.9v1.6h1.9V7.3z M132.7,10.7h-1.9v1.6h1.9V10.7z M132.7,14.2h-1.9v1.7
			h1.9V14.2z M133.8,17.9c0.7,0.9,1.7,2.2,2.1,3l-1.8,1.1c-0.4-0.8-1.3-2.2-2-3.2L133.8,17.9z M137.7,17.7h-2V6.5h2V17.7z M141,4.5
			V20c0,1.2-0.2,1.8-0.9,2.1c-0.7,0.4-1.7,0.4-3.2,0.4c-0.1-0.6-0.4-1.6-0.7-2.2c1,0,2,0,2.3,0c0.3,0,0.4-0.1,0.4-0.4V4.5H141z"/>
		<path class="st0" d="M144.8,20.9c0.4-1.1,0.7-2.9,0.8-4.2l1.1,0.4c-0.1,1.3-0.4,3.1-0.7,4.2L144.8,20.9z M156.4,17
			c-0.1,0.5-0.3,1-0.4,1.5c0.7,0.4,1.4,1,1.8,1.4l-1.1,1.5c-0.3-0.3-0.8-0.8-1.4-1.2c-0.5,1-1,1.8-1.7,2.5c-0.3-0.3-1-0.9-1.5-1.2
			c-0.1,0.2-0.1,0.3-0.2,0.4c-0.3,0.4-0.6,0.6-1.1,0.6c-0.4,0.1-1,0.1-1.6,0.1c0-0.5-0.2-1.2-0.4-1.7c0.5,0.1,0.9,0.1,1.1,0.1
			c0.2,0,0.4,0,0.5-0.2c0.1-0.2,0.2-0.7,0.3-1.7l-0.7,0.3c-0.1-0.7-0.5-1.7-0.8-2.5l0.8-0.3c0.3,0.6,0.5,1.3,0.7,1.9
			c0-0.6,0.1-1.4,0.1-2.3h-5.1V5.2h6.7v1.9h-2v1.3h1.7v0.4c2.1-1.1,4-2.9,5-4.6l2.1,0.7c-0.1,0.2-0.3,0.4-0.4,0.6
			c1.2,1,2.9,2.1,4.4,2.6c-0.3,0.5-0.7,1.5-0.9,2.1c-0.6-0.3-1.2-0.7-1.8-1.1v1.3h-5.7v-1c-0.4,0.3-0.9,0.6-1.3,0.8
			c-0.3-0.4-0.9-1-1.3-1.3v1.1h-1.7v1.1h1.7v1.7h-1.7v1.2h2.2c0,0,0,0.5,0,0.7c-0.1,3.6-0.2,5.5-0.4,6.4c1.1-1.1,1.9-2.8,2.2-4.6
			L156.4,17z M147.9,17c0.1,1.1,0.2,2.6,0.2,3.5l-1,0.1c0-1,0-2.5-0.1-3.6L147.9,17z M147.6,7.1v1.3h1.2V7.1H147.6z M148.8,10.1
			h-1.2v1.1h1.2V10.1z M147.6,14.2h1.2v-1.2h-1.2V14.2z M149,16.8c0.2,1,0.5,2.3,0.6,3.1l-1,0.2c-0.1-0.9-0.3-2.2-0.5-3.2L149,16.8z
			 M153.2,11.5h4.2v4.7h-4.2V11.5z M154.7,14.8h1.1V13h-1.1V14.8z M159.9,8.8c-0.8-0.6-1.5-1.1-2.2-1.8c-0.5,0.6-1.2,1.2-1.9,1.8
			H159.9z M161.3,16.9c-0.1,0.8-0.3,1.5-0.5,2.3c0.8,0.5,1.8,1.2,2.3,1.7l-1.3,1.6c-0.4-0.4-1-1-1.7-1.5c-0.3,0.6-0.7,1.2-1.1,1.7
			c-0.3-0.4-1.2-1-1.7-1.3c1.1-1.1,1.8-2.9,2.1-4.8L161.3,16.9z M158,11.5h4.3v4.7H158V11.5z M159.5,14.8h1.2V13h-1.2V14.8z"/>
		<path class="st0" d="M179.2,4.8c0.9,2.8,2.9,5.6,5.6,7c-0.5,0.5-1.3,1.5-1.6,2.1c-0.5-0.3-1-0.7-1.5-1.1c-0.2,5.7-0.4,8-1.1,8.8
			c-0.5,0.6-1,0.8-1.8,0.9c-0.7,0.1-1.8,0.1-2.9,0.1c0-0.7-0.3-1.7-0.8-2.3c1.1,0.1,2.1,0.1,2.6,0.1c0.4,0,0.6,0,0.8-0.3
			c0.4-0.4,0.6-2.2,0.8-6.2h-3.8c-0.5,3.7-1.8,7.1-6.8,9c-0.3-0.7-1-1.6-1.5-2.1c4.4-1.4,5.4-4,5.8-6.8h-3.3v-1.3
			c-0.5,0.5-1,1-1.5,1.4c-0.4-0.5-1.4-1.3-1.9-1.7c2.2-1.6,3.9-4.2,4.8-7.1l2.4,0.6c-0.7,2.2-1.8,4.2-3.1,5.9h10.1
			c-1.3-1.4-2.3-3-2.9-4.7h-3.1V4.8H179.2z"/>
		<path class="st0" d="M194.2,16.7c-0.3-0.6-0.7-1.5-1.2-2.4v8.3h-2.2v-7.6c-0.6,1.7-1.3,3.2-2.1,4.2c-0.2-0.7-0.7-1.6-1.1-2.2
			c1.2-1.5,2.3-4.2,2.9-6.5h-2.4V8.5h2.6v-4h2.2v4h2.6v2.2h-2.6v0.7c0.7,0.9,2.2,2.9,2.6,3.4L194.2,16.7z M205.9,13.2h-2.5v9.4h-2.3
			v-9.4h-2.6c-0.1,3-0.5,6.9-2.2,9.4c-0.4-0.4-1.4-0.9-1.9-1.1c1.8-2.6,1.9-6.3,1.9-9.1V6.6c2.4-0.4,5-1.2,6.6-1.9l1.9,1.8
			c-1.8,0.8-4.1,1.4-6.3,1.8V11h7.4V13.2z"/>
		<path class="st0" d="M209.5,20.3h17.5v1.8h-17.5V20.3z M216,14.3c-0.1-0.3-0.2-0.6-0.3-0.9c-4.2,0.8-4.8,1-5.3,1.2
			c-0.1-0.4-0.4-1.1-0.7-1.4c0.4-0.2,0.8-0.5,0.8-1.3V5h7v5.7h-1.4c0.6,0.9,1.2,2.1,1.4,2.9L216,14.3z M218.2,10.2
			c0.2-1,0.4-2.4,0.5-3.6h-0.5V5h8.3v1.6h-3c0,0.7-0.1,1.4-0.2,2h3.3v1.6h-3.6c0,0.1-0.1,0.2-0.1,0.4h1v1.5c0,0.4,0,0.4,0.4,0.4h0.9
			c0.3,0,0.4-0.2,0.4-1.4c0.3,0.2,1,0.5,1.5,0.6c-0.2,1.8-0.6,2.2-1.7,2.2h-1.4c-1.5,0-1.8-0.4-1.8-1.9c-0.7,1-1.8,1.8-3.5,2.3h5.9
			v5.2h-12.6v-5.2h6.4c-0.2-0.5-0.7-1.1-1.1-1.5c2.1-0.6,3.2-1.5,3.7-2.8H218.2z M212.5,6.4v0.8h3.2V6.4H212.5z M212.5,9.3h3.2V8.4
			h-3.2V9.3z M215,11.9c-0.1-0.3-0.3-0.5-0.4-0.8l1.3-0.4h-3.3v1.7L215,11.9z M222.4,15.7h-8.1v0.9h8.1V15.7z M222.4,17.6h-8.1v0.9
			h8.1V17.6z M221.6,8.6c0.1-0.6,0.1-1.2,0.2-2h-1.1c-0.1,0.6-0.2,1.3-0.3,2H221.6z"/>
		<path class="st0" d="M237.3,19.3c-1.3,1.2-3.3,2.4-5,3.2c-0.4-0.4-1.2-1.2-1.7-1.6c1.7-0.6,3.6-1.5,4.6-2.4L237.3,19.3z
			 M248.6,12.1h-9.2l0.4,0.4c-0.7,0.4-1.5,0.7-2.3,1.1l3.9-0.2c0.8-0.4,1.6-0.8,2.3-1.2l1.6,1.4c-2.3,1.1-4.7,2.1-7.2,3l5.6-0.2
			c-0.3-0.2-0.6-0.4-0.8-0.6l1.7-1.1c1.2,0.9,2.9,2.2,3.7,3.1l-1.9,1.1c-0.3-0.3-0.7-0.7-1.1-1.1l-4.4,0.2v2.3c0,1.1-0.2,1.6-1.1,2
			c-0.8,0.3-1.9,0.3-3.3,0.3c-0.1-0.6-0.5-1.5-0.8-2.1c1,0,2.2,0.1,2.5,0c0.3,0,0.4-0.1,0.4-0.3v-2.1c-5.3,0.3-6.1,0.4-6.8,0.6
			c-0.1-0.4-0.3-1.3-0.5-1.9c0.8-0.1,1.6-0.3,2.9-0.7c0.6-0.2,1.8-0.6,3.2-1.2c-3.3,0.2-3.9,0.3-4.3,0.4c-0.1-0.4-0.4-1.3-0.6-1.8
			c0.4-0.1,0.9-0.2,1.5-0.4c0.4-0.2,1.4-0.5,2.5-1.1h-6.1v-1.8h7.7V9.6h-5.7V7.9h5.7V7.2h-6.7V5.5h6.7V4.5h2.3v1.1h6.9v1.7h-6.9v0.7
			h5.9v1.7h-5.9v0.8h7.8V12.1z M243.8,18.4c1.5,0.7,3.6,1.9,4.7,2.7l-1.8,1.3c-1-0.8-3-2-4.6-2.9L243.8,18.4z"/>
		<path class="st0" d="M265.9,11.9c1.2,1.1,2.8,2.1,4.5,2.6c-0.5,0.4-1.1,1.2-1.5,1.8c-0.9-0.3-1.7-0.8-2.4-1.3V19
			c0.5-0.3,1-0.6,1.4-0.9l1.5,1.2c-0.8,0.4-1.6,0.8-2.4,1.2c0.9,0.3,1.7,0.6,2.4,0.8l-1,1.6c-1.7-0.7-5.1-1.8-7.6-2.5
			c0,0.4,0.1,0.8,0.1,1.1c-4.4,0.9-5.1,1.1-5.5,1.4c-0.2-0.5-0.6-1.5-1-1.8c0.4-0.2,0.9-0.7,0.9-1.6v-3.8c-0.6,0.4-1.2,0.8-1.8,1.1
			c-0.3-0.4-1.1-1.3-1.6-1.7c1.7-0.7,3.3-1.7,4.4-3h-3.7v-1.5h7.4V9.7h-5.4V8.3h5.4V7.7h-6.3V6.2h3.1c-0.2-0.4-0.4-0.8-0.7-1.1
			l2.1-0.6c0.4,0.5,0.8,1.2,1.1,1.7h4c0.3-0.6,0.7-1.2,0.8-1.8l2.6,0.5c-0.3,0.4-0.6,0.9-1,1.2h3v1.5h-6.4v0.6h5.5v1.4h-5.5v0.7h7.4
			v1.5H265.9z M265.5,14.3c-0.6-0.5-1.1-1.1-1.6-1.6v1h-5.6v-0.9c-0.4,0.5-0.9,1-1.4,1.5H265.5z M257.8,16.1h6.3v-0.6h-6.3V16.1z
			 M257.8,17.8h6.3v-0.6h-6.3V17.8z M260.7,20l0.7-1h-3.6v1.2l2.9-0.5V20z M258.9,11.9c-0.1,0.2-0.3,0.4-0.4,0.6h5.4
			c-0.1-0.2-0.3-0.4-0.4-0.6H258.9z M261.9,19c0.9,0.2,1.9,0.5,3,0.8c0.5-0.3,1-0.5,1.5-0.8H261.9z"/>
		<path class="st0" d="M279.3,14.7c-0.5,0.2-1.1,0.4-1.6,0.6V20c0,1.1-0.2,1.6-0.8,2c-0.6,0.4-1.4,0.4-2.6,0.4
			c-0.1-0.6-0.3-1.5-0.6-2.2c0.7,0,1.3,0,1.6,0c0.2,0,0.3-0.1,0.3-0.3v-4c-0.5,0.2-1.1,0.4-1.6,0.5l-0.5-2.2
			c0.6-0.2,1.3-0.4,2.1-0.6v-3.5h-1.8V8.2h1.8V4.5h2.1v3.7h1.3v2.1h-1.3v2.8l1.2-0.4L279.3,14.7z M287.4,16.2
			c1.1,1.4,2.7,2.8,4.3,3.5c-0.5,0.4-1.2,1.3-1.6,1.8c-1.4-0.9-2.9-2.3-4-3.8v5h-2.3v-4.8c-1.1,1.6-2.4,2.9-4,3.7
			c-0.3-0.5-1-1.3-1.5-1.8c1.7-0.8,3.2-2.1,4.2-3.7h-3.1v-2.1h4.3v-1.9h2.3v1.9h5.1v2.1H287.4z M284.8,7.9c-0.2,2.7-0.8,4.3-4.6,5.1
			c-0.2-0.5-0.7-1.4-1.1-1.8c3.1-0.5,3.5-1.4,3.6-3.3H284.8z M281.7,9.3h-2.1v-4H291v3.9h-2.3V7.3h-7.1V9.3z M289.9,10.5
			c0.4,0,0.9-0.1,1.2-0.1c0.1,0.5,0.1,1.4,0.2,1.9c-0.3,0.1-0.8,0.1-1.3,0.1h-1.7c-2,0-2.5-0.6-2.5-2.6v-2h2v2
			c0,0.5,0.1,0.6,0.4,0.6H289.9z"/>
		<path class="st0" d="M301.5,19.1c-1.3,1.2-3.2,2.5-4.7,3.3c-0.4-0.4-1.2-1.2-1.7-1.6c1.5-0.6,3.3-1.6,4.3-2.6L301.5,19.1z
			 M305.4,17.6v2.7c0,1.1-0.2,1.6-1.1,1.9c-0.8,0.3-1.9,0.4-3.3,0.4c-0.1-0.6-0.5-1.5-0.8-2.1c1,0,2.2,0.1,2.5,0
			c0.3,0,0.4-0.1,0.4-0.3v-2.5c-5,0.4-5.9,0.5-6.5,0.7c-0.1-0.4-0.4-1.4-0.5-1.9c0.7-0.1,1.5-0.4,2.6-0.8c0.4-0.2,1.3-0.5,2.3-1
			c-2.2,0.2-2.7,0.2-3,0.4c-0.1-0.4-0.4-1.3-0.6-1.9c0.4-0.1,0.9-0.3,1.5-0.6c0.4-0.2,1.7-0.9,2.9-1.7h-4.4v2.1h-2.2v-4h7.5V8h-7.1
			V6h7.1V4.5h2.5V6h7v2h-7v1.2h7.5v4h-2.3v-2.1h-6.3l0.4,0.4c-1,0.7-2.2,1.3-3.4,1.9l3.2-0.1c1-0.5,2-1.1,2.9-1.7l1.6,1.3
			c-2.1,1.3-4.5,2.4-6.8,3.3l6.1-0.3c-0.4-0.4-0.8-0.7-1.1-1l1.6-1c1.3,1.1,3.1,2.7,3.9,3.8l-1.8,1.1c-0.3-0.4-0.7-0.9-1.2-1.5
			L305.4,17.6z M308,18.1c1.5,0.8,3.6,2,4.7,2.9l-1.9,1.3c-1-0.9-3-2.2-4.6-3.1L308,18.1z"/>
		<path class="st0" d="M334.2,16.2h-7.7v6.4h-2.4v-6.4h-7.6v-2.4h7.6V8h-6.6V5.7h15.5V8h-6.5v5.9h7.7V16.2z M320.9,8.6
			c0.6,1.2,1.3,2.9,1.6,4l-2.3,0.7c-0.2-1-0.8-2.7-1.4-4L320.9,8.6z M328.1,12.7c0.6-1.1,1.3-2.8,1.7-4.1l2.5,0.6
			c-0.7,1.5-1.5,3.1-2.1,4.1L328.1,12.7z"/>
		<path class="st0" d="M350.2,6.3c1.8,1.7,4.1,4.1,5.1,5.7l-2,1.4c-0.3-0.4-0.6-0.9-1-1.5c-10.3,0.5-11.7,0.5-12.8,0.9
			c-0.1-0.5-0.5-1.6-0.8-2.2c0.5-0.1,1-0.5,1.6-1.1c0.7-0.6,2.8-3,4.1-5.3l2.3,1c-1.2,1.8-2.8,3.5-4.2,5l8-0.3
			c-0.8-0.9-1.5-1.7-2.3-2.4L350.2,6.3z M340.2,14.1h13.1v8.5h-2.5v-1h-8.3v1h-2.4V14.1z M342.6,16.3v3.1h8.3v-3.1H342.6z"/>
	</g>
	<g>
		<path class="st0" d="M88.9,44l-2.7-4.7c-0.1-0.2-0.3-0.5-0.4-0.8l-0.1,0c0,0.2,0,0.5,0,1v7.6c0,0.4-0.3,0.5-1,0.5h-0.4
			c-0.7,0-1-0.2-1-0.5V35c0-0.4,0.3-0.5,1-0.5h0.9c0.5,0,0.9,0.2,1,0.5l3.3,5.8c0.1,0.2,0.2,0.4,0.3,0.6c0-0.2,0.1-0.4,0.3-0.6
			l3.3-5.7c0.2-0.3,0.5-0.5,1-0.5h0.9c0.7,0,1,0.2,1,0.5v12.1c0,0.4-0.3,0.5-1,0.5h-0.4c-0.7,0-1-0.2-1-0.5v-7.6c0-0.4,0-0.7,0-1
			l-0.1,0c-0.1,0.3-0.3,0.6-0.4,0.8L90.8,44c-0.1,0.2-0.4,0.3-0.6,0.3h-0.6C89.3,44.3,89.1,44.2,88.9,44z"/>
		<path class="st0" d="M101.3,46.5c-0.8-0.9-1.2-2.1-1.2-3.7c0-1.7,0.4-3,1.2-3.8c0.8-0.8,1.9-1.3,3.3-1.3c1.3,0,2.4,0.4,3,1.3
			c0.7,0.9,1,2.1,1,3.5c0,0.1-0.1,0.3-0.3,0.6c-0.2,0.3-0.4,0.4-0.5,0.4h-5.2c0.1,0.8,0.3,1.4,0.7,1.8c0.4,0.4,1,0.6,1.7,0.6
			c0.7,0,1.4-0.2,2.1-0.5c0.2-0.1,0.3-0.1,0.4-0.1c0.2,0,0.3,0.2,0.6,0.5c0.2,0.3,0.3,0.6,0.3,0.8c0,0.2-0.2,0.5-0.5,0.7
			c-0.4,0.2-0.8,0.4-1.3,0.5c-0.5,0.1-1,0.2-1.5,0.2C103.3,47.7,102.1,47.3,101.3,46.5z M106.3,41.8c0-0.7-0.1-1.3-0.4-1.7
			c-0.3-0.4-0.7-0.6-1.2-0.6c-1.2,0-1.8,0.8-2,2.3H106.3z"/>
		<path class="st0" d="M113.2,47c-0.5-0.5-0.7-1.2-0.7-2.2v-5.2H112c-0.2,0-0.3-0.1-0.4-0.2c-0.1-0.1-0.1-0.3-0.1-0.6v-0.3
			c0-0.3,0-0.5,0.1-0.6c0.1-0.1,0.2-0.2,0.4-0.2h0.5l0.2-1.8c0.1-0.4,0.3-0.5,0.9-0.5h0.5c0.5,0,0.8,0.2,0.8,0.5v1.8h1.1
			c0.2,0,0.3,0.1,0.4,0.2c0.1,0.1,0.1,0.3,0.1,0.6v0.3c0,0.3,0,0.5-0.1,0.6c-0.1,0.1-0.2,0.2-0.4,0.2h-1.1v5.1
			c0,0.4,0.1,0.6,0.2,0.8c0.1,0.1,0.3,0.2,0.6,0.2c0.1,0,0.2,0,0.4,0c0.1,0,0.2,0,0.3,0c0.1,0,0.3,0.2,0.4,0.5
			c0.1,0.3,0.2,0.6,0.2,0.7c0,0.5-0.6,0.8-1.7,0.8C114.3,47.7,113.7,47.5,113.2,47z"/>
		<path class="st0" d="M120.3,47c-0.5-0.5-0.7-1.2-0.7-2c0-2.3,1.9-3.5,5.7-3.5v-0.7c0-0.8-0.6-1.2-1.7-1.2c-0.5,0-0.9,0.1-1.2,0.2
			c-0.4,0.1-0.7,0.2-0.9,0.3c-0.3,0.1-0.4,0.2-0.5,0.2c-0.2,0-0.3-0.2-0.6-0.5c-0.2-0.3-0.3-0.6-0.3-0.8c0-0.2,0.2-0.4,0.5-0.6
			c0.3-0.2,0.8-0.4,1.3-0.5c0.6-0.1,1.1-0.2,1.8-0.2c1.3,0,2.3,0.3,3,0.8c0.6,0.5,1,1.3,1,2.2v3.8c0,0.9,0,1.5,0.1,1.9
			c0.1,0.4,0.1,0.6,0.1,0.7c0,0.2-0.2,0.3-0.6,0.4c-0.4,0.1-0.8,0.1-1.1,0.1c-0.2,0-0.3-0.1-0.4-0.3c-0.1-0.2-0.2-0.4-0.2-0.6
			c0-0.2-0.1-0.4-0.1-0.4c-0.3,0.3-0.6,0.7-1.1,1c-0.5,0.3-1.1,0.4-1.8,0.4C121.6,47.7,120.8,47.5,120.3,47z M124.3,45.5
			c0.4-0.2,0.7-0.5,0.9-0.9v-1.4c-1,0-1.8,0.1-2.4,0.3c-0.6,0.2-0.9,0.6-0.9,1.2c0,0.3,0.1,0.6,0.3,0.8c0.2,0.2,0.5,0.3,0.9,0.3
			C123.6,45.8,124,45.7,124.3,45.5z"/>
		<path class="st0" d="M131.2,43.3c-0.1-0.1-0.1-0.3-0.1-0.6v-0.1c0-0.3,0-0.5,0.1-0.6c0.1-0.1,0.2-0.2,0.4-0.2h3.7
			c0.2,0,0.3,0.1,0.4,0.2c0.1,0.1,0.1,0.3,0.1,0.6v0.1c0,0.3,0,0.5-0.1,0.6s-0.2,0.2-0.4,0.2h-3.7C131.4,43.5,131.3,43.5,131.2,43.3
			z"/>
		<path class="st0" d="M139.5,47c-0.5-0.5-0.7-1.2-0.7-2c0-2.3,1.9-3.5,5.7-3.5v-0.7c0-0.8-0.6-1.2-1.7-1.2c-0.5,0-0.9,0.1-1.2,0.2
			c-0.4,0.1-0.7,0.2-0.9,0.3c-0.3,0.1-0.4,0.2-0.4,0.2c-0.2,0-0.3-0.2-0.6-0.5c-0.2-0.3-0.3-0.6-0.3-0.8c0-0.2,0.2-0.4,0.5-0.6
			c0.3-0.2,0.8-0.4,1.3-0.5c0.6-0.1,1.1-0.2,1.8-0.2c1.3,0,2.3,0.3,3,0.8c0.6,0.5,1,1.3,1,2.2v3.8c0,0.9,0,1.5,0.1,1.9
			c0.1,0.4,0.1,0.6,0.1,0.7c0,0.2-0.2,0.3-0.6,0.4c-0.4,0.1-0.8,0.1-1.1,0.1c-0.2,0-0.3-0.1-0.4-0.3c-0.1-0.2-0.2-0.4-0.2-0.6
			c0-0.2-0.1-0.4-0.1-0.4c-0.3,0.3-0.6,0.7-1.1,1c-0.5,0.3-1.1,0.4-1.8,0.4C140.8,47.7,140,47.5,139.5,47z M143.6,45.5
			c0.4-0.2,0.7-0.5,0.9-0.9v-1.4c-1,0-1.8,0.1-2.4,0.3c-0.6,0.2-0.9,0.6-0.9,1.2c0,0.3,0.1,0.6,0.3,0.8c0.2,0.2,0.5,0.3,0.9,0.3
			C142.8,45.8,143.2,45.7,143.6,45.5z"/>
		<path class="st0" d="M151,47.1V41c0-0.8,0-1.4-0.1-1.8c-0.1-0.4-0.1-0.6-0.1-0.7c0-0.2,0.2-0.3,0.6-0.4c0.4-0.1,0.8-0.1,1.1-0.1
			c0.2,0,0.4,0.1,0.5,0.3c0.1,0.2,0.2,0.4,0.2,0.6c0,0.2,0.1,0.3,0.1,0.4c0.3-0.4,0.7-0.7,1.2-1c0.5-0.3,1-0.4,1.6-0.4
			c1.9,0,2.8,1,2.8,3v6.4c0,0.2-0.1,0.3-0.2,0.4c-0.2,0.1-0.4,0.1-0.8,0.1h-0.4c-0.7,0-1-0.2-1-0.5V41c0-0.9-0.5-1.4-1.4-1.4
			c-0.4,0-0.7,0.1-1,0.3c-0.3,0.2-0.6,0.5-0.8,0.8v6.3c0,0.4-0.3,0.5-1,0.5H152C151.3,47.6,151,47.5,151,47.1z"/>
		<path class="st0" d="M163.2,47c-0.5-0.5-0.7-1.2-0.7-2c0-2.3,1.9-3.5,5.7-3.5v-0.7c0-0.8-0.6-1.2-1.7-1.2c-0.5,0-0.9,0.1-1.2,0.2
			c-0.4,0.1-0.7,0.2-0.9,0.3c-0.3,0.1-0.4,0.2-0.5,0.2c-0.2,0-0.3-0.2-0.6-0.5c-0.2-0.3-0.3-0.6-0.3-0.8c0-0.2,0.2-0.4,0.5-0.6
			c0.3-0.2,0.8-0.4,1.3-0.5c0.6-0.1,1.1-0.2,1.8-0.2c1.3,0,2.3,0.3,3,0.8c0.6,0.5,1,1.3,1,2.2v3.8c0,0.9,0,1.5,0.1,1.9
			c0.1,0.4,0.1,0.6,0.1,0.7c0,0.2-0.2,0.3-0.6,0.4c-0.4,0.1-0.8,0.1-1.1,0.1c-0.2,0-0.3-0.1-0.4-0.3c-0.1-0.2-0.2-0.4-0.2-0.6
			c0-0.2-0.1-0.4-0.1-0.4c-0.3,0.3-0.6,0.7-1.1,1c-0.5,0.3-1.1,0.4-1.8,0.4C164.4,47.7,163.7,47.5,163.2,47z M167.2,45.5
			c0.4-0.2,0.7-0.5,0.9-0.9v-1.4c-1,0-1.8,0.1-2.4,0.3c-0.6,0.2-0.9,0.6-0.9,1.2c0,0.3,0.1,0.6,0.3,0.8s0.5,0.3,0.9,0.3
			C166.4,45.8,166.8,45.7,167.2,45.5z"/>
		<path class="st0" d="M175.4,47.1c-0.5-0.5-0.7-1.2-0.7-2.2V34c0-0.3,0.3-0.5,1-0.5h0.4c0.7,0,1,0.2,1,0.5v10.8
			c0,0.4,0.1,0.6,0.2,0.8c0.1,0.2,0.3,0.2,0.6,0.2c0.1,0,0.2,0,0.4,0c0.1,0,0.2,0,0.2,0c0.2,0,0.3,0.2,0.4,0.5
			c0.1,0.3,0.1,0.6,0.1,0.7c0,0.5-0.6,0.8-1.6,0.8C176.5,47.7,175.8,47.5,175.4,47.1z"/>
		<path class="st0" d="M189.1,38.1c0,0.1,0,0.2-0.1,0.3l-4.5,12.6c-0.1,0.3-0.4,0.4-1,0.4h-0.3c-0.3,0-0.6,0-0.7-0.1
			c-0.2-0.1-0.2-0.2-0.2-0.3c0-0.1,0-0.2,0.1-0.3l1.3-3.4l-3.2-8.9c0,0,0-0.1,0-0.1c0-0.1,0-0.1,0-0.2c0-0.2,0.3-0.4,1-0.4h0.4
			c0.6,0,0.9,0.1,1,0.4l1.4,4c0.1,0.4,0.3,1.1,0.5,2.1h0.1l0.2-0.7c0.1-0.6,0.3-1.1,0.4-1.5l1.4-4c0.1-0.2,0.4-0.4,1-0.4h0.3
			C188.7,37.8,189.1,37.9,189.1,38.1z"/>
		<path class="st0" d="M192.9,47.6c-0.5-0.1-0.9-0.3-1.2-0.5c-0.3-0.2-0.4-0.4-0.4-0.6c0-0.2,0.1-0.5,0.3-0.8
			c0.2-0.3,0.4-0.5,0.6-0.5c0,0,0.2,0.1,0.4,0.2c0.2,0.1,0.5,0.2,0.7,0.3c0.2,0.1,0.5,0.1,0.9,0.1c0.5,0,0.8-0.1,1-0.3
			c0.2-0.2,0.3-0.4,0.3-0.7c0-0.3-0.1-0.6-0.4-0.7c-0.3-0.2-0.7-0.4-1.3-0.6c-0.5-0.2-0.9-0.4-1.2-0.6c-0.3-0.2-0.6-0.5-0.9-0.9
			c-0.2-0.4-0.3-0.9-0.3-1.5c0-0.9,0.3-1.6,0.9-2.2c0.6-0.5,1.4-0.8,2.4-0.8c0.7,0,1.3,0.1,1.8,0.3c0.6,0.2,0.9,0.4,0.9,0.7
			c0,0.2-0.1,0.5-0.3,0.8c-0.2,0.3-0.3,0.5-0.5,0.5c0,0-0.2-0.1-0.5-0.2c-0.3-0.1-0.7-0.2-1.2-0.2c-0.4,0-0.7,0.1-0.9,0.2
			c-0.2,0.1-0.3,0.4-0.3,0.7c0,0.3,0.1,0.5,0.3,0.7c0.2,0.2,0.6,0.4,1.2,0.6c0.8,0.3,1.4,0.6,1.8,1c0.5,0.4,0.7,1.1,0.7,1.9
			c0,0.9-0.3,1.7-1,2.2c-0.6,0.6-1.5,0.9-2.6,0.9C193.9,47.8,193.4,47.7,192.9,47.6z"/>
		<path class="st0" d="M201.3,36.2v-1.3c0-0.3,0.4-0.5,1.2-0.5c0.8,0,1.2,0.2,1.2,0.5v1.3c0,0.4-0.4,0.5-1.2,0.5
			C201.7,36.7,201.3,36.5,201.3,36.2z M201.3,47.1v-8.8c0-0.4,0.3-0.5,1-0.5h0.4c0.7,0,1,0.2,1,0.5v8.8c0,0.4-0.3,0.5-1,0.5h-0.4
			C201.6,47.6,201.3,47.5,201.3,47.1z"/>
		<path class="st0" d="M208.6,47.6c-0.5-0.1-0.9-0.3-1.2-0.5c-0.3-0.2-0.4-0.4-0.4-0.6c0-0.2,0.1-0.5,0.3-0.8
			c0.2-0.3,0.4-0.5,0.6-0.5c0,0,0.2,0.1,0.4,0.2c0.2,0.1,0.5,0.2,0.7,0.3c0.2,0.1,0.5,0.1,0.9,0.1c0.5,0,0.8-0.1,1-0.3
			c0.2-0.2,0.3-0.4,0.3-0.7c0-0.3-0.1-0.6-0.4-0.7c-0.2-0.2-0.7-0.4-1.3-0.6c-0.5-0.2-0.9-0.4-1.2-0.6c-0.3-0.2-0.6-0.5-0.9-0.9
			c-0.2-0.4-0.3-0.9-0.3-1.5c0-0.9,0.3-1.6,0.9-2.2c0.6-0.5,1.4-0.8,2.4-0.8c0.7,0,1.3,0.1,1.8,0.3c0.6,0.2,0.9,0.4,0.9,0.7
			c0,0.2-0.1,0.5-0.3,0.8c-0.2,0.3-0.3,0.5-0.5,0.5c0,0-0.2-0.1-0.5-0.2c-0.3-0.1-0.7-0.2-1.2-0.2c-0.4,0-0.7,0.1-0.9,0.2
			c-0.2,0.1-0.3,0.4-0.3,0.7c0,0.3,0.1,0.5,0.3,0.7c0.2,0.2,0.6,0.4,1.2,0.6c0.8,0.3,1.4,0.6,1.8,1c0.5,0.4,0.7,1.1,0.7,1.9
			c0,0.9-0.3,1.7-1,2.2c-0.6,0.6-1.5,0.9-2.6,0.9C209.6,47.8,209.1,47.7,208.6,47.6z"/>
		<path class="st0" d="M223.7,46.4c-0.8-0.9-1.1-2.1-1.1-3.7c0-1.6,0.4-2.9,1.1-3.7s1.9-1.3,3.3-1.3c1.4,0,2.6,0.4,3.3,1.3
			c0.8,0.9,1.1,2.1,1.1,3.7c0,1.6-0.4,2.9-1.1,3.7c-0.8,0.9-1.9,1.3-3.3,1.3C225.6,47.7,224.5,47.3,223.7,46.4z M228.6,45.1
			c0.3-0.5,0.5-1.3,0.5-2.4c0-1-0.2-1.8-0.5-2.4c-0.3-0.5-0.8-0.8-1.5-0.8c-0.7,0-1.2,0.3-1.6,0.8c-0.3,0.5-0.5,1.3-0.5,2.4
			c0,1.1,0.2,1.9,0.5,2.4c0.3,0.5,0.9,0.8,1.6,0.8C227.7,45.8,228.2,45.6,228.6,45.1z"/>
		<path class="st0" d="M235.5,47.1v-7.4H235c-0.2,0-0.3-0.1-0.4-0.2c-0.1-0.1-0.1-0.3-0.1-0.6v-0.3c0-0.3,0-0.5,0.1-0.6
			c0.1-0.1,0.2-0.2,0.4-0.2h0.5v-1.5c0-1,0.2-1.7,0.7-2.2c0.5-0.5,1.1-0.7,1.9-0.7c1.1,0,1.7,0.3,1.7,0.8c0,0.1-0.1,0.4-0.2,0.7
			c-0.1,0.3-0.2,0.5-0.4,0.5c-0.1,0-0.2,0-0.3,0c-0.1,0-0.3,0-0.4,0c-0.3,0-0.5,0.1-0.6,0.2c-0.1,0.1-0.2,0.4-0.2,0.8v1.5h1.2
			c0.2,0,0.3,0.1,0.4,0.2c0.1,0.1,0.1,0.3,0.1,0.6v0.3c0,0.3,0,0.5-0.1,0.6c-0.1,0.1-0.2,0.2-0.4,0.2h-1.2v7.4c0,0.4-0.3,0.5-1,0.5
			h-0.4C235.8,47.6,235.5,47.5,235.5,47.1z"/>
		<path class="st0" d="M249.8,47c-0.5-0.5-0.7-1.2-0.7-2.2v-5.2h-0.5c-0.2,0-0.3-0.1-0.4-0.2c-0.1-0.1-0.1-0.3-0.1-0.6v-0.3
			c0-0.3,0-0.5,0.1-0.6c0.1-0.1,0.2-0.2,0.4-0.2h0.5l0.2-1.8c0.1-0.4,0.3-0.5,0.9-0.5h0.4c0.5,0,0.8,0.2,0.8,0.5v1.8h1.1
			c0.2,0,0.3,0.1,0.4,0.2c0.1,0.1,0.1,0.3,0.1,0.6v0.3c0,0.3,0,0.5-0.1,0.6c-0.1,0.1-0.2,0.2-0.4,0.2h-1.1v5.1
			c0,0.4,0.1,0.6,0.2,0.8c0.1,0.1,0.3,0.2,0.6,0.2c0.1,0,0.2,0,0.4,0c0.1,0,0.2,0,0.3,0c0.1,0,0.3,0.2,0.4,0.5
			c0.1,0.3,0.1,0.6,0.1,0.7c0,0.5-0.5,0.8-1.6,0.8C250.9,47.7,250.3,47.5,249.8,47z"/>
		<path class="st0" d="M257.4,46.5c-0.8-0.9-1.2-2.1-1.2-3.7c0-1.7,0.4-3,1.2-3.8c0.8-0.8,1.9-1.3,3.3-1.3c1.4,0,2.4,0.4,3,1.3
			c0.7,0.9,1,2.1,1,3.5c0,0.1-0.1,0.3-0.3,0.6c-0.2,0.3-0.4,0.4-0.5,0.4h-5.2c0.1,0.8,0.3,1.4,0.7,1.8c0.4,0.4,1,0.6,1.7,0.6
			c0.7,0,1.4-0.2,2.1-0.5c0.2-0.1,0.3-0.1,0.4-0.1c0.2,0,0.3,0.2,0.6,0.5c0.2,0.3,0.3,0.6,0.3,0.8c0,0.2-0.2,0.5-0.5,0.7
			c-0.4,0.2-0.8,0.4-1.3,0.5c-0.5,0.1-1,0.2-1.5,0.2C259.4,47.7,258.2,47.3,257.4,46.5z M262.3,41.8c0-0.7-0.1-1.3-0.4-1.7
			c-0.3-0.4-0.7-0.6-1.2-0.6c-1.2,0-1.8,0.8-2,2.3H262.3z"/>
		<path class="st0" d="M269.1,47.6c-0.5-0.1-0.9-0.3-1.2-0.5c-0.3-0.2-0.4-0.4-0.4-0.6c0-0.2,0.1-0.5,0.3-0.8
			c0.2-0.3,0.4-0.5,0.6-0.5c0,0,0.2,0.1,0.4,0.2c0.2,0.1,0.5,0.2,0.7,0.3c0.2,0.1,0.5,0.1,0.9,0.1c0.5,0,0.8-0.1,1-0.3
			c0.2-0.2,0.3-0.4,0.3-0.7c0-0.3-0.1-0.6-0.4-0.7c-0.2-0.2-0.7-0.4-1.3-0.6c-0.5-0.2-0.9-0.4-1.2-0.6c-0.3-0.2-0.6-0.5-0.9-0.9
			c-0.2-0.4-0.3-0.9-0.3-1.5c0-0.9,0.3-1.6,0.9-2.2c0.6-0.5,1.4-0.8,2.4-0.8c0.7,0,1.3,0.1,1.8,0.3c0.6,0.2,0.9,0.4,0.9,0.7
			c0,0.2-0.1,0.5-0.3,0.8c-0.2,0.3-0.3,0.5-0.5,0.5c0,0-0.2-0.1-0.5-0.2c-0.3-0.1-0.7-0.2-1.2-0.2c-0.4,0-0.7,0.1-0.9,0.2
			c-0.2,0.1-0.3,0.4-0.3,0.7c0,0.3,0.1,0.5,0.3,0.7c0.2,0.2,0.6,0.4,1.2,0.6c0.8,0.3,1.4,0.6,1.8,1c0.5,0.4,0.7,1.1,0.7,1.9
			c0,0.9-0.3,1.7-1,2.2c-0.6,0.6-1.5,0.9-2.6,0.9C270.1,47.8,269.6,47.7,269.1,47.6z"/>
		<path class="st0" d="M278.5,47c-0.5-0.5-0.7-1.2-0.7-2.2v-5.2h-0.5c-0.2,0-0.3-0.1-0.4-0.2c-0.1-0.1-0.1-0.3-0.1-0.6v-0.3
			c0-0.3,0-0.5,0.1-0.6c0.1-0.1,0.2-0.2,0.4-0.2h0.5L278,36c0.1-0.4,0.3-0.5,0.9-0.5h0.4c0.5,0,0.8,0.2,0.8,0.5v1.8h1.1
			c0.2,0,0.3,0.1,0.4,0.2c0.1,0.1,0.1,0.3,0.1,0.6v0.3c0,0.3,0,0.5-0.1,0.6c-0.1,0.1-0.2,0.2-0.4,0.2h-1.1v5.1
			c0,0.4,0.1,0.6,0.2,0.8c0.1,0.1,0.3,0.2,0.6,0.2c0.1,0,0.2,0,0.4,0c0.1,0,0.2,0,0.3,0c0.1,0,0.3,0.2,0.4,0.5
			c0.1,0.3,0.1,0.6,0.1,0.7c0,0.5-0.6,0.8-1.6,0.8C279.6,47.7,279,47.5,278.5,47z"/>
		<path class="st0" d="M291.4,47.1V41c0-0.8,0-1.4-0.1-1.8c-0.1-0.4-0.1-0.6-0.1-0.7c0-0.2,0.2-0.3,0.6-0.4c0.4-0.1,0.8-0.1,1.1-0.1
			c0.2,0,0.3,0.1,0.4,0.3c0.1,0.2,0.2,0.4,0.2,0.6s0.1,0.3,0.1,0.4c0.6-0.9,1.3-1.4,2.1-1.4c0.4,0,0.7,0.1,0.9,0.2
			c0.2,0.1,0.2,0.4,0.2,0.7c0,0.3,0,0.5-0.1,0.9c-0.1,0.3-0.2,0.5-0.4,0.5c-0.1,0-0.2,0-0.4-0.1c-0.2-0.1-0.4-0.1-0.6-0.1
			c-0.4,0-0.7,0.1-1,0.4c-0.3,0.2-0.5,0.5-0.6,0.7v6.3c0,0.4-0.3,0.5-1,0.5h-0.4C291.8,47.6,291.4,47.5,291.4,47.1z"/>
		<path class="st0" d="M300.1,46.5c-0.8-0.9-1.2-2.1-1.2-3.7c0-1.7,0.4-3,1.2-3.8c0.8-0.8,1.9-1.3,3.3-1.3c1.3,0,2.4,0.4,3,1.3
			c0.7,0.9,1,2.1,1,3.5c0,0.1-0.1,0.3-0.3,0.6c-0.2,0.3-0.4,0.4-0.5,0.4h-5.2c0.1,0.8,0.3,1.4,0.7,1.8c0.4,0.4,1,0.6,1.7,0.6
			c0.7,0,1.4-0.2,2.1-0.5c0.2-0.1,0.3-0.1,0.4-0.1c0.2,0,0.3,0.2,0.6,0.5c0.2,0.3,0.3,0.6,0.3,0.8c0,0.2-0.2,0.5-0.5,0.7
			c-0.4,0.2-0.8,0.4-1.3,0.5c-0.5,0.1-1,0.2-1.5,0.2C302.1,47.7,300.9,47.3,300.1,46.5z M305.1,41.8c0-0.7-0.1-1.3-0.4-1.7
			c-0.3-0.4-0.7-0.6-1.2-0.6c-1.2,0-1.8,0.8-2,2.3H305.1z"/>
		<path class="st0" d="M311.9,47.6c-0.5-0.1-0.9-0.3-1.2-0.5c-0.3-0.2-0.4-0.4-0.4-0.6c0-0.2,0.1-0.5,0.3-0.8
			c0.2-0.3,0.4-0.5,0.6-0.5c0,0,0.2,0.1,0.4,0.2c0.2,0.1,0.5,0.2,0.7,0.3c0.2,0.1,0.5,0.1,0.9,0.1c0.5,0,0.8-0.1,1-0.3
			c0.2-0.2,0.3-0.4,0.3-0.7c0-0.3-0.1-0.6-0.4-0.7c-0.2-0.2-0.7-0.4-1.3-0.6c-0.5-0.2-0.9-0.4-1.2-0.6c-0.3-0.2-0.6-0.5-0.9-0.9
			c-0.2-0.4-0.3-0.9-0.3-1.5c0-0.9,0.3-1.6,0.9-2.2c0.6-0.5,1.4-0.8,2.4-0.8c0.7,0,1.3,0.1,1.8,0.3c0.6,0.2,0.9,0.4,0.9,0.7
			c0,0.2-0.1,0.5-0.3,0.8c-0.2,0.3-0.3,0.5-0.5,0.5c0,0-0.2-0.1-0.5-0.2c-0.3-0.1-0.7-0.2-1.2-0.2c-0.4,0-0.7,0.1-0.9,0.2
			c-0.2,0.1-0.3,0.4-0.3,0.7c0,0.3,0.1,0.5,0.3,0.7c0.2,0.2,0.6,0.4,1.2,0.6c0.8,0.3,1.4,0.6,1.8,1c0.5,0.4,0.7,1.1,0.7,1.9
			c0,0.9-0.3,1.7-1,2.2c-0.6,0.6-1.5,0.9-2.6,0.9C312.8,47.8,312.3,47.7,311.9,47.6z"/>
		<path class="st0" d="M320.1,44.7v-6.4c0-0.2,0.1-0.3,0.2-0.4c0.2-0.1,0.4-0.1,0.8-0.1h0.4c0.7,0,1,0.2,1,0.5v6.1
			c0,0.9,0.5,1.4,1.4,1.4c0.4,0,0.7-0.1,1-0.3c0.3-0.2,0.6-0.5,0.8-0.8v-6.3c0-0.4,0.3-0.5,1-0.5h0.4c0.7,0,1,0.2,1,0.5v6.2
			c0,0.9,0,1.5,0.1,1.9c0.1,0.4,0.1,0.6,0.1,0.7c0,0.2-0.2,0.3-0.6,0.4c-0.4,0.1-0.8,0.1-1.1,0.1c-0.2,0-0.3-0.1-0.4-0.3
			c-0.1-0.2-0.2-0.4-0.2-0.6c0-0.2-0.1-0.4-0.1-0.4c-0.3,0.4-0.8,0.7-1.3,1c-0.5,0.3-1,0.4-1.6,0.4
			C321.1,47.7,320.1,46.7,320.1,44.7z"/>
		<path class="st0" d="M332.9,47.1c-0.5-0.5-0.7-1.2-0.7-2.2V34c0-0.3,0.3-0.5,1-0.5h0.4c0.7,0,1,0.2,1,0.5v10.8
			c0,0.4,0.1,0.6,0.2,0.8c0.1,0.2,0.3,0.2,0.6,0.2c0.1,0,0.2,0,0.4,0c0.1,0,0.2,0,0.2,0c0.2,0,0.3,0.2,0.4,0.5
			c0.1,0.3,0.1,0.6,0.1,0.7c0,0.5-0.6,0.8-1.7,0.8C334,47.7,333.3,47.5,332.9,47.1z"/>
		<path class="st0" d="M340.3,47c-0.5-0.5-0.7-1.2-0.7-2.2v-5.2H339c-0.2,0-0.3-0.1-0.4-0.2c-0.1-0.1-0.1-0.3-0.1-0.6v-0.3
			c0-0.3,0-0.5,0.1-0.6c0.1-0.1,0.2-0.2,0.4-0.2h0.5l0.2-1.8c0.1-0.4,0.3-0.5,0.9-0.5h0.5c0.5,0,0.8,0.2,0.8,0.5v1.8h1.1
			c0.2,0,0.3,0.1,0.4,0.2c0.1,0.1,0.1,0.3,0.1,0.6v0.3c0,0.3,0,0.5-0.1,0.6c-0.1,0.1-0.2,0.2-0.4,0.2h-1.1v5.1
			c0,0.4,0.1,0.6,0.2,0.8c0.1,0.1,0.3,0.2,0.6,0.2c0.1,0,0.2,0,0.4,0c0.1,0,0.2,0,0.3,0c0.1,0,0.3,0.2,0.4,0.5
			c0.1,0.3,0.2,0.6,0.2,0.7c0,0.5-0.6,0.8-1.6,0.8C341.4,47.7,340.7,47.5,340.3,47z"/>
		<path class="st0" d="M348,47.6c-0.5-0.1-0.9-0.3-1.2-0.5c-0.3-0.2-0.4-0.4-0.4-0.6c0-0.2,0.1-0.5,0.3-0.8c0.2-0.3,0.4-0.5,0.6-0.5
			c0,0,0.2,0.1,0.4,0.2c0.2,0.1,0.5,0.2,0.7,0.3c0.2,0.1,0.5,0.1,0.9,0.1c0.5,0,0.8-0.1,1-0.3c0.2-0.2,0.3-0.4,0.3-0.7
			c0-0.3-0.1-0.6-0.4-0.7c-0.2-0.2-0.7-0.4-1.3-0.6c-0.5-0.2-0.9-0.4-1.2-0.6c-0.3-0.2-0.6-0.5-0.9-0.9c-0.2-0.4-0.3-0.9-0.3-1.5
			c0-0.9,0.3-1.6,0.9-2.2c0.6-0.5,1.4-0.8,2.4-0.8c0.7,0,1.3,0.1,1.8,0.3c0.6,0.2,0.9,0.4,0.9,0.7c0,0.2-0.1,0.5-0.3,0.8
			c-0.2,0.3-0.3,0.5-0.5,0.5c0,0-0.2-0.1-0.5-0.2c-0.3-0.1-0.7-0.2-1.2-0.2c-0.4,0-0.7,0.1-0.9,0.2c-0.2,0.1-0.3,0.4-0.3,0.7
			c0,0.3,0.1,0.5,0.3,0.7c0.2,0.2,0.6,0.4,1.2,0.6c0.8,0.3,1.4,0.6,1.8,1c0.5,0.4,0.7,1.1,0.7,1.9c0,0.9-0.3,1.7-1,2.2
			c-0.6,0.6-1.5,0.9-2.6,0.9C349,47.8,348.5,47.7,348,47.6z"/>
	</g>
</g>
<g>
	<path class="st1" d="M72.3,43.6l-22-38.4c-1.2-2.1-3.5-3.4-5.9-3.4c-2.4,0-4.7,1.3-5.9,3.4l-1,1.7l-1-1.7c-1.2-2.1-3.5-3.4-5.9-3.4
		c-2.4,0-4.7,1.3-5.9,3.4l-22,38.4c-1.9,3.3-0.7,7.5,2.5,9.3c1,0.6,2.2,0.9,3.4,0.9c2.4,0,4.7-1.3,5.9-3.4l1.2-2
		c0.4,1.9,1.5,3.5,3.3,4.6c1,0.6,2.2,0.9,3.4,0.9c2.4,0,4.7-1.3,5.9-3.4l2.3-4V47c0,3.8,3.1,6.8,6.8,6.8c3.8,0,6.8-3.1,6.8-6.8v-0.6
		l2.3,4c1.2,2.1,3.5,3.4,5.9,3.4c1.2,0,2.4-0.3,3.4-0.9c1.8-1,2.9-2.7,3.3-4.6l1.2,2c1.2,2.1,3.5,3.4,5.9,3.4c1.2,0,2.4-0.3,3.4-0.9
		C73,51.1,74.2,46.9,72.3,43.6z"/>
	<linearGradient id="SVGID_1_" gradientUnits="userSpaceOnUse" x1="16.9654" y1="18.2934" x2="57.9967" y2="59.3246">
		<stop  offset="0.3" style="stop-color:#4A88B0"/>
		<stop  offset="0.7" style="stop-color:#033F75"/>
	</linearGradient>
	<path class="st2" d="M68.8,45.7l-22-38.4c-0.5-0.9-1.4-1.4-2.4-1.4c-1,0-1.9,0.5-2.4,1.4l-4.5,7.8L33,7.2c-0.5-0.9-1.4-1.4-2.4-1.4
		c-1,0-1.9,0.5-2.4,1.4l-22,38.4c-0.8,1.3-0.3,3,1,3.8c1.3,0.8,3,0.3,3.8-1l19.6-34.2l3.7,6.5L20,45.7c-0.8,1.3-0.3,3,1,3.8
		c1.3,0.8,3,0.3,3.8-1l6.1-10.6h3.8V47c0,1.5,1.2,2.8,2.8,2.8c1.5,0,2.8-1.2,2.8-2.8v-9.2h3.8l6.1,10.6c0.5,0.9,1.5,1.4,2.4,1.4
		c0.5,0,0.9-0.1,1.4-0.4c1.3-0.8,1.8-2.5,1-3.8l-14.3-25l3.7-6.5l19.6,34.2c0.5,0.9,1.4,1.4,2.4,1.4c0.5,0,0.9-0.1,1.4-0.4
		C69.1,48.7,69.5,47,68.8,45.7z M40.9,32.3h-6.9l3.4-6L40.9,32.3z"/>
</g>
</svg>
