<svg xmlns="http://www.w3.org/2000/svg" xmlns:xlink="http://www.w3.org/1999/xlink" viewBox="0 0 730.42 275.91"><defs><style>.cls-1{fill:none;}.cls-2{isolation:isolate;}.cls-3{clip-path:url(#clip-path);}.cls-4{clip-path:url(#clip-path-2);}.cls-5{fill:url(#未命名漸層);}.cls-6{clip-path:url(#clip-path-3);}.cls-7{fill:url(#未命名漸層_2);}.cls-11,.cls-8{opacity:0.5;}.cls-8{mix-blend-mode:screen;}.cls-9{clip-path:url(#clip-path-5);}.cls-10{fill:#f0a93d;}.cls-11,.cls-29{mix-blend-mode:multiply;}.cls-12{clip-path:url(#clip-path-6);}.cls-13{fill:#e47d41;}.cls-14{clip-path:url(#clip-path-7);}.cls-15{fill:url(#未命名漸層_3);}.cls-16{clip-path:url(#clip-path-8);}.cls-17{fill:url(#未命名漸層_4);}.cls-18{clip-path:url(#clip-path-9);}.cls-19{fill:url(#未命名漸層_5);}.cls-20{clip-path:url(#clip-path-11);}.cls-21{clip-path:url(#clip-path-12);}.cls-22{fill:url(#未命名漸層_6);}.cls-23{clip-path:url(#clip-path-14);}.cls-24{clip-path:url(#clip-path-15);}.cls-25{clip-path:url(#clip-path-16);}.cls-26{fill:url(#未命名漸層_7);}.cls-27{clip-path:url(#clip-path-17);}.cls-28{fill:url(#未命名漸層_8);}.cls-30{clip-path:url(#clip-path-19);}.cls-31{fill:#9eb5f8;}.cls-32{fill:#cad9fb;}.cls-33{clip-path:url(#clip-path-20);}.cls-34{fill:url(#未命名漸層_9);}.cls-35{clip-path:url(#clip-path-21);}.cls-36{fill:url(#未命名漸層_10);}.cls-37{clip-path:url(#clip-path-22);}.cls-38{fill:url(#未命名漸層_11);}.cls-39{clip-path:url(#clip-path-23);}.cls-40{fill:url(#未命名漸層_12);}.cls-41{clip-path:url(#clip-path-24);}.cls-42{fill:url(#未命名漸層_13);}.cls-43{clip-path:url(#clip-path-25);}.cls-44{fill:url(#未命名漸層_14);}.cls-45{clip-path:url(#clip-path-26);}.cls-46{fill:url(#未命名漸層_15);}.cls-47{clip-path:url(#clip-path-27);}.cls-48{fill:url(#未命名漸層_16);}.cls-49{clip-path:url(#clip-path-28);}.cls-50{fill:url(#未命名漸層_17);}.cls-51{clip-path:url(#clip-path-29);}.cls-52{fill:url(#未命名漸層_18);}.cls-53{clip-path:url(#clip-path-31);}.cls-54{clip-path:url(#clip-path-32);}.cls-55{fill:url(#未命名漸層_19);}.cls-56{clip-path:url(#clip-path-33);}.cls-57{fill:url(#未命名漸層_20);}.cls-58{clip-path:url(#clip-path-34);}.cls-59{fill:url(#未命名漸層_21);}.cls-60{clip-path:url(#clip-path-35);}.cls-61{fill:url(#未命名漸層_22);}.cls-62{clip-path:url(#clip-path-36);}.cls-63{fill:url(#未命名漸層_23);}.cls-64{clip-path:url(#clip-path-37);}.cls-65{fill:url(#未命名漸層_24);}.cls-66{clip-path:url(#clip-path-38);}.cls-67{fill:url(#未命名漸層_25);}.cls-68{clip-path:url(#clip-path-39);}.cls-69{fill:url(#未命名漸層_26);}.cls-70{clip-path:url(#clip-path-40);}.cls-71{fill:url(#未命名漸層_27);}.cls-72{clip-path:url(#clip-path-41);}.cls-73{fill:url(#未命名漸層_28);}.cls-74{clip-path:url(#clip-path-43);}.cls-75{clip-path:url(#clip-path-44);}.cls-76{fill:url(#未命名漸層_29);}.cls-77{clip-path:url(#clip-path-45);}.cls-78{fill:url(#未命名漸層_30);}.cls-79{clip-path:url(#clip-path-46);}.cls-80{fill:url(#未命名漸層_31);}.cls-81{clip-path:url(#clip-path-47);}.cls-82{fill:url(#未命名漸層_32);}.cls-83{clip-path:url(#clip-path-48);}.cls-84{fill:url(#未命名漸層_33);}.cls-85{clip-path:url(#clip-path-49);}.cls-86{fill:url(#未命名漸層_34);}.cls-87{clip-path:url(#clip-path-50);}.cls-88{fill:url(#未命名漸層_35);}.cls-89{clip-path:url(#clip-path-51);}.cls-90{fill:url(#未命名漸層_36);}.cls-91{clip-path:url(#clip-path-52);}.cls-92{fill:url(#未命名漸層_37);}.cls-93{clip-path:url(#clip-path-53);}.cls-94{fill:url(#未命名漸層_38);}.cls-95{clip-path:url(#clip-path-55);}.cls-96{clip-path:url(#clip-path-56);}.cls-97{fill:url(#未命名漸層_39);}.cls-98{clip-path:url(#clip-path-57);}.cls-99{fill:url(#未命名漸層_40);}.cls-100{clip-path:url(#clip-path-58);}.cls-101{fill:url(#未命名漸層_41);}.cls-102{clip-path:url(#clip-path-59);}.cls-103{fill:url(#未命名漸層_42);}.cls-104{clip-path:url(#clip-path-60);}.cls-105{fill:url(#未命名漸層_43);}.cls-106{clip-path:url(#clip-path-61);}.cls-107{fill:url(#未命名漸層_44);}.cls-108{clip-path:url(#clip-path-62);}.cls-109{fill:url(#未命名漸層_45);}.cls-110{clip-path:url(#clip-path-63);}.cls-111{fill:url(#未命名漸層_46);}.cls-112{clip-path:url(#clip-path-64);}.cls-113{fill:url(#未命名漸層_47);}.cls-114{clip-path:url(#clip-path-65);}.cls-115{fill:url(#未命名漸層_48);}.cls-116{clip-path:url(#clip-path-67);}.cls-117{clip-path:url(#clip-path-68);}.cls-118{fill:url(#未命名漸層_49);}.cls-119{clip-path:url(#clip-path-69);}.cls-120{fill:url(#未命名漸層_50);}.cls-121{clip-path:url(#clip-path-70);}.cls-122{fill:url(#未命名漸層_51);}.cls-123{clip-path:url(#clip-path-71);}.cls-124{fill:url(#未命名漸層_52);}.cls-125{clip-path:url(#clip-path-72);}.cls-126{fill:url(#未命名漸層_53);}.cls-127{clip-path:url(#clip-path-73);}.cls-128{fill:url(#未命名漸層_54);}.cls-129{clip-path:url(#clip-path-74);}.cls-130{fill:url(#未命名漸層_55);}.cls-131{clip-path:url(#clip-path-75);}.cls-132{fill:url(#未命名漸層_56);}.cls-133{clip-path:url(#clip-path-77);}.cls-134{clip-path:url(#clip-path-78);}.cls-135{fill:url(#未命名漸層_57);}.cls-136{clip-path:url(#clip-path-79);}.cls-137{fill:url(#未命名漸層_58);}.cls-138{clip-path:url(#clip-path-80);}.cls-139{fill:url(#未命名漸層_59);}</style><clipPath id="clip-path"><rect class="cls-1" width="730.42" height="275.91"/></clipPath><clipPath id="clip-path-2"><path class="cls-1" d="M677.18,134.79a10.34,10.34,0,0,0-10.06,8l-17.76,75.69a10.43,10.43,0,0,0,.38,6l16.74,44.77a10.34,10.34,0,0,0,9.68,6.71H694.5a10.34,10.34,0,0,0,10.33-10.33V145.12a10.33,10.33,0,0,0-10.33-10.33Z"/></clipPath><linearGradient id="未命名漸層" y1="275.85" x2="1" y2="275.85" gradientTransform="matrix(0, 131.61, 131.61, 0, -35627.76, 144.51)" gradientUnits="userSpaceOnUse"><stop offset="0" stop-color="#ffe531"/><stop offset="1" stop-color="#ffab89"/></linearGradient><clipPath id="clip-path-3"><path class="cls-1" d="M647.1,129.29a11.39,11.39,0,0,0,11.39,11.4,10.59,10.59,0,0,0,1.5-.12h49.59l20-9.94a1.49,1.49,0,0,0,0-2.67l-20-9.95H660a12.31,12.31,0,0,0-1.5-.11,11.39,11.39,0,0,0-11.39,11.39"/></clipPath><linearGradient id="未命名漸層_2" y1="275.91" y2="275.91" gradientTransform="matrix(0, 58.41, 58.41, 0, -15427.61, 96.51)" xlink:href="#未命名漸層"/><clipPath id="clip-path-5"><rect class="cls-1" x="647.1" y="117.9" width="83.33" height="18.27"/></clipPath><clipPath id="clip-path-6"><rect class="cls-1" x="649.09" y="215.17" width="55.74" height="60.74"/></clipPath><clipPath id="clip-path-7"><path class="cls-1" d="M359.08,2.89V20.32h18.11a11.94,11.94,0,0,1,11.92,11.92V78.45h17.44V32.24A29.39,29.39,0,0,0,377.19,2.89Z"/></clipPath><linearGradient id="未命名漸層_3" y1="275.91" x2="1" y2="275.91" gradientTransform="matrix(47.47, 0, 0, -47.47, 359.08, 13137.72)" gradientUnits="userSpaceOnUse"><stop offset="0" stop-color="#acf0f6"/><stop offset="1" stop-color="#7ee3ea"/></linearGradient><clipPath id="clip-path-8"><path class="cls-1" d="M359.08,0c-2.14,0-3.88,1-3.88,2.25V21.64c0,1.24,1.74,2.25,3.88,2.25s3.87-1,3.87-2.25V2.25C363,1,361.22,0,359.08,0Z"/></clipPath><linearGradient id="未命名漸層_4" y1="275.91" x2="1" y2="275.91" gradientTransform="matrix(7.75, 0, 0, -7.75, 355.2, 2150.4)" gradientUnits="userSpaceOnUse"><stop offset="0" stop-color="#48436d"/><stop offset="1" stop-color="#3a3861"/><stop offset="1" stop-color="#3a3861"/></linearGradient><clipPath id="clip-path-9"><path class="cls-1" d="M354.94,76.67a10.14,10.14,0,0,0-9.94,8.1l-2.23,10.86-.6,2.88-3,14.4-.59,2.87-1.53,7.44-3.85,18.72H482.16L470.4,84.77a10.14,10.14,0,0,0-9.94-8.1Z"/></clipPath><linearGradient id="未命名漸層_5" y1="275.96" y2="275.96" gradientTransform="matrix(0, 53.95, 53.95, 0, -14480.94, 94.91)" xlink:href="#未命名漸層"/><clipPath id="clip-path-11"><rect class="cls-1" x="333.24" y="84.77" width="148.92" height="57.17"/></clipPath><clipPath id="clip-path-12"><path class="cls-1" d="M69.09,128.62A68.83,68.83,0,0,0,32,139.38c-1.08.69-2.12,1.4-3.16,2.14A69,69,0,0,0,0,197.71q0,1.47.06,2.91h0c0,.31,0,.63,0,1,0,0,0,0,0,0,0,.32,0,.63.05.94,0,.53.08,1.06.14,1.6s.09,1.06.16,1.59.13,1.05.2,1.57v0c.08.52.15,1,.24,1.56s.18,1,.27,1.55.2,1,.31,1.55.22,1,.33,1.53c.48,2.06,1.06,4.06,1.71,6,.13.38.26.75.4,1.12.2.61.42,1.21.66,1.81.14.39.3.79.46,1.18s.25.61.38.92c.19.46.39.91.6,1.36.48,1.09,1,2.15,1.53,3.21.25.49.51,1,.78,1.48.53,1,1.09,1.94,1.66,2.89.29.48.59,1,.88,1.42.62,1,1.25,1.89,1.9,2.81l.94,1.28c.32.43.64.84,1,1.25,1,1.34,2.14,2.62,3.27,3.87.36.41.75.82,1.12,1.21s.77.8,1.16,1.19l1.19,1.16c.8.76,1.61,1.51,2.45,2.23s1.69,1.43,2.56,2.11,1.6,1.24,2.43,1.83l.23.17c.73.5,1.46,1,2.21,1.49.24.16.48.32.73.47a68.68,68.68,0,0,0,37.06,10.78H345c17.87,0,203-5.23,218-15.06l158.91-38.18a19,19,0,0,0,0-31.72L563,143.66c-14.94-9.81-200.08-15-218-15Z"/></clipPath><linearGradient id="未命名漸層_6" y1="275.92" y2="275.92" gradientTransform="matrix(0, 150.64, 150.64, 0, -41197.41, 115.27)" xlink:href="#未命名漸層"/><clipPath id="clip-path-14"><rect class="cls-1" x="19.15" y="128.62" width="707.72" height="58.02"/></clipPath><clipPath id="clip-path-15"><rect class="cls-1" x="0.06" y="188.97" width="730.37" height="77.85"/></clipPath><clipPath id="clip-path-16"><path class="cls-1" d="M122.66,178.58a19,19,0,1,0,19-19,19,19,0,0,0-19,19"/></clipPath><linearGradient id="未命名漸層_7" y1="275.91" x2="1" y2="275.91" gradientTransform="matrix(0, 38.01, 38.01, 0, -10347.08, 159.58)" xlink:href="#未命名漸層_3"/><clipPath id="clip-path-17"><path class="cls-1" d="M126.27,178.58a15.4,15.4,0,1,0,15.39-15.39,15.39,15.39,0,0,0-15.39,15.39"/></clipPath><linearGradient id="未命名漸層_8" x1="0" y1="275.91" x2="1" y2="275.91" gradientTransform="matrix(30.79, 0, 0, -30.79, 126.27, 8673.8)" xlink:href="#未命名漸層_4"/><clipPath id="clip-path-19"><rect class="cls-1" x="127.15" y="169.75" width="29.91" height="24.23"/></clipPath><clipPath id="clip-path-20"><path class="cls-1" d="M140.66,161.27a1,1,0,1,0,1-1,1,1,0,0,0-1,1"/></clipPath><linearGradient id="未命名漸層_9" y1="275.91" x2="1" y2="275.91" gradientTransform="matrix(2.01, 0, 0, -2.01, 140.66, 717.1)" gradientUnits="userSpaceOnUse"><stop offset="0" stop-color="#95b9ce"/><stop offset="0.5" stop-color="#619bb9"/><stop offset="1" stop-color="#3188aa"/></linearGradient><clipPath id="clip-path-21"><path class="cls-1" d="M140.66,195.9a1,1,0,1,0,1-1,1,1,0,0,0-1,1"/></clipPath><linearGradient id="未命名漸層_10" x1="0" y1="275.91" x2="1" y2="275.91" gradientTransform="matrix(2.01, 0, 0, -2.01, 140.66, 751.74)" xlink:href="#未命名漸層_9"/><clipPath id="clip-path-22"><path class="cls-1" d="M123.34,178.58a1,1,0,1,0,1-1,1,1,0,0,0-1,1"/></clipPath><linearGradient id="未命名漸層_11" x1="0" y1="275.91" x2="1" y2="275.91" gradientTransform="matrix(2.01, 0, 0, -2.01, 123.34, 734.43)" xlink:href="#未命名漸層_9"/><clipPath id="clip-path-23"><path class="cls-1" d="M158,178.58a1,1,0,1,0,1-1,1,1,0,0,0-1,1"/></clipPath><linearGradient id="未命名漸層_12" x1="0" y1="275.91" x2="1" y2="275.91" gradientTransform="matrix(2.01, 0, 0, -2.01, 157.97, 734.42)" xlink:href="#未命名漸層_9"/><clipPath id="clip-path-24"><path class="cls-1" d="M128.71,165.63a1,1,0,0,0,0,1.42,1,1,0,1,0,1.42-1.42,1,1,0,0,0-.71-.3,1,1,0,0,0-.71.3"/></clipPath><linearGradient id="未命名漸層_13" x1="0" y1="275.89" x2="1" y2="275.89" gradientTransform="matrix(2.01, 0, 0, -2.01, 128.41, 722.18)" xlink:href="#未命名漸層_9"/><clipPath id="clip-path-25"><path class="cls-1" d="M153.2,190.12a1,1,0,0,0,0,1.42,1,1,0,1,0,.71-1.72,1,1,0,0,0-.71.3"/></clipPath><linearGradient id="未命名漸層_14" x1="0" y1="275.89" x2="1" y2="275.89" gradientTransform="matrix(2.01, 0, 0, -2.01, 152.9, 746.66)" xlink:href="#未命名漸層_9"/><clipPath id="clip-path-26"><path class="cls-1" d="M128.71,190.12a1,1,0,0,0,0,1.42,1,1,0,0,0,1.42-1.42,1,1,0,0,0-.71-.3,1,1,0,0,0-.71.3"/></clipPath><linearGradient id="未命名漸層_15" x1="0" y1="275.89" x2="1" y2="275.89" gradientTransform="matrix(2.01, 0, 0, -2.01, 128.41, 746.67)" xlink:href="#未命名漸層_9"/><clipPath id="clip-path-27"><path class="cls-1" d="M153.2,165.63a1,1,0,0,0,0,1.42,1,1,0,1,0,.71-1.72,1,1,0,0,0-.71.3"/></clipPath><linearGradient id="未命名漸層_16" x1="0" y1="275.89" x2="1" y2="275.89" gradientTransform="matrix(2.01, 0, 0, -2.01, 152.9, 722.17)" xlink:href="#未命名漸層_9"/><clipPath id="clip-path-28"><path class="cls-1" d="M73.82,178.58a19,19,0,1,0,19-19,19,19,0,0,0-19,19"/></clipPath><linearGradient id="未命名漸層_17" y1="275.91" x2="1" y2="275.91" gradientTransform="matrix(0, 38.01, 38.01, 0, -10395.92, 159.58)" xlink:href="#未命名漸層_3"/><clipPath id="clip-path-29"><path class="cls-1" d="M77.43,178.58a15.4,15.4,0,1,0,15.4-15.39,15.4,15.4,0,0,0-15.4,15.39"/></clipPath><linearGradient id="未命名漸層_18" x1="0" y1="275.91" x2="1" y2="275.91" gradientTransform="matrix(30.79, 0, 0, -30.79, 77.43, 8673.8)" xlink:href="#未命名漸層_4"/><clipPath id="clip-path-31"><rect class="cls-1" x="78.31" y="169.75" width="29.91" height="24.23"/></clipPath><clipPath id="clip-path-32"><path class="cls-1" d="M91.82,161.27a1,1,0,1,0,1-1,1,1,0,0,0-1,1"/></clipPath><linearGradient id="未命名漸層_19" x1="0" y1="275.91" x2="1" y2="275.91" gradientTransform="matrix(2.01, 0, 0, -2.01, 91.82, 717.1)" xlink:href="#未命名漸層_9"/><clipPath id="clip-path-33"><path class="cls-1" d="M91.82,195.9a1,1,0,1,0,1-1,1,1,0,0,0-1,1"/></clipPath><linearGradient id="未命名漸層_20" x1="0" y1="275.91" x2="1" y2="275.91" gradientTransform="matrix(2.01, 0, 0, -2.01, 91.82, 751.74)" xlink:href="#未命名漸層_9"/><clipPath id="clip-path-34"><path class="cls-1" d="M74.5,178.58a1,1,0,1,0,1-1,1,1,0,0,0-1,1"/></clipPath><linearGradient id="未命名漸層_21" x1="0" y1="275.91" x2="1" y2="275.91" gradientTransform="matrix(2.01, 0, 0, -2.01, 74.5, 734.43)" xlink:href="#未命名漸層_9"/><clipPath id="clip-path-35"><path class="cls-1" d="M109.14,178.58a1,1,0,1,0,1-1,1,1,0,0,0-1,1"/></clipPath><linearGradient id="未命名漸層_22" x1="0" y1="275.91" x2="1" y2="275.91" gradientTransform="matrix(2.01, 0, 0, -2.01, 109.14, 734.42)" xlink:href="#未命名漸層_9"/><clipPath id="clip-path-36"><path class="cls-1" d="M79.87,165.63a1,1,0,0,0,1.42,1.42,1,1,0,0,0,0-1.42,1,1,0,0,0-.71-.3,1,1,0,0,0-.71.3"/></clipPath><linearGradient id="未命名漸層_23" x1="0" y1="275.89" x2="1" y2="275.89" gradientTransform="matrix(2.01, 0, 0, -2.01, 79.58, 722.18)" xlink:href="#未命名漸層_9"/><clipPath id="clip-path-37"><path class="cls-1" d="M104.36,190.12a1,1,0,0,0,0,1.42,1,1,0,0,0,1.43,0,1,1,0,1,0-1.43-1.42"/></clipPath><linearGradient id="未命名漸層_24" x1="0" y1="275.89" x2="1" y2="275.89" gradientTransform="matrix(2.01, 0, 0, -2.01, 104.07, 746.66)" xlink:href="#未命名漸層_9"/><clipPath id="clip-path-38"><path class="cls-1" d="M79.87,190.12a1,1,0,0,0,1.42,1.42,1,1,0,0,0,0-1.42,1,1,0,0,0-.71-.3,1,1,0,0,0-.71.3"/></clipPath><linearGradient id="未命名漸層_25" x1="0" y1="275.89" x2="1" y2="275.89" gradientTransform="matrix(2.01, 0, 0, -2.01, 79.58, 746.67)" xlink:href="#未命名漸層_9"/><clipPath id="clip-path-39"><path class="cls-1" d="M104.36,165.63a1,1,0,0,0,0,1.42,1,1,0,0,0,1.43,0,1,1,0,1,0-1.43-1.42"/></clipPath><linearGradient id="未命名漸層_26" x1="0" y1="275.89" x2="1" y2="275.89" gradientTransform="matrix(2.01, 0, 0, -2.01, 104.07, 722.17)" xlink:href="#未命名漸層_9"/><clipPath id="clip-path-40"><path class="cls-1" d="M171.49,178.58a19,19,0,1,0,19-19,19,19,0,0,0-19,19"/></clipPath><linearGradient id="未命名漸層_27" y1="275.91" x2="1" y2="275.91" gradientTransform="matrix(0, 38.01, 38.01, 0, -10298.25, 159.58)" xlink:href="#未命名漸層_3"/><clipPath id="clip-path-41"><path class="cls-1" d="M175.1,178.58a15.4,15.4,0,1,0,15.4-15.39,15.39,15.39,0,0,0-15.4,15.39"/></clipPath><linearGradient id="未命名漸層_28" x1="0" y1="275.91" x2="1" y2="275.91" gradientTransform="matrix(30.79, 0, 0, -30.79, 175.1, 8673.8)" xlink:href="#未命名漸層_4"/><clipPath id="clip-path-43"><rect class="cls-1" x="175.98" y="169.75" width="29.91" height="24.23"/></clipPath><clipPath id="clip-path-44"><path class="cls-1" d="M189.49,161.27a1,1,0,1,0,1-1,1,1,0,0,0-1,1"/></clipPath><linearGradient id="未命名漸層_29" x1="0" y1="275.91" x2="1" y2="275.91" gradientTransform="matrix(2.01, 0, 0, -2.01, 189.49, 717.1)" xlink:href="#未命名漸層_9"/><clipPath id="clip-path-45"><path class="cls-1" d="M189.49,195.9a1,1,0,1,0,1-1,1,1,0,0,0-1,1"/></clipPath><linearGradient id="未命名漸層_30" x1="0" y1="275.91" x2="1" y2="275.91" gradientTransform="matrix(2.01, 0, 0, -2.01, 189.49, 751.74)" xlink:href="#未命名漸層_9"/><clipPath id="clip-path-46"><path class="cls-1" d="M172.17,178.58a1,1,0,1,0,1-1,1,1,0,0,0-1,1"/></clipPath><linearGradient id="未命名漸層_31" x1="0" y1="275.91" x2="1" y2="275.91" gradientTransform="matrix(2.01, 0, 0, -2.01, 172.17, 734.43)" xlink:href="#未命名漸層_9"/><clipPath id="clip-path-47"><path class="cls-1" d="M206.81,178.58a1,1,0,1,0,1-1,1,1,0,0,0-1,1"/></clipPath><linearGradient id="未命名漸層_32" x1="0" y1="275.91" x2="1" y2="275.91" gradientTransform="matrix(2.01, 0, 0, -2.01, 206.81, 734.42)" xlink:href="#未命名漸層_9"/><clipPath id="clip-path-48"><path class="cls-1" d="M177.54,165.63a1,1,0,0,0,1.42,1.42,1,1,0,0,0,0-1.42,1,1,0,0,0-.71-.3,1,1,0,0,0-.71.3"/></clipPath><linearGradient id="未命名漸層_33" x1="0" y1="275.89" x2="1" y2="275.89" gradientTransform="matrix(2.01, 0, 0, -2.01, 177.25, 722.18)" xlink:href="#未命名漸層_9"/><clipPath id="clip-path-49"><path class="cls-1" d="M202,190.12a1,1,0,0,0,0,1.42,1,1,0,0,0,1.43,0,1,1,0,1,0-1.43-1.42"/></clipPath><linearGradient id="未命名漸層_34" x1="0" y1="275.89" x2="1" y2="275.89" gradientTransform="matrix(2.01, 0, 0, -2.01, 201.74, 746.66)" xlink:href="#未命名漸層_9"/><clipPath id="clip-path-50"><path class="cls-1" d="M177.54,190.12a1,1,0,0,0,1.42,1.42,1,1,0,0,0,0-1.42,1,1,0,0,0-.71-.3,1,1,0,0,0-.71.3"/></clipPath><linearGradient id="未命名漸層_35" x1="0" y1="275.89" x2="1" y2="275.89" gradientTransform="matrix(2.01, 0, 0, -2.01, 177.25, 746.67)" xlink:href="#未命名漸層_9"/><clipPath id="clip-path-51"><path class="cls-1" d="M202,165.63a1,1,0,0,0,0,1.42,1,1,0,0,0,1.43,0,1,1,0,1,0-1.43-1.42"/></clipPath><linearGradient id="未命名漸層_36" x1="0" y1="275.89" x2="1" y2="275.89" gradientTransform="matrix(2.01, 0, 0, -2.01, 201.74, 722.17)" xlink:href="#未命名漸層_9"/><clipPath id="clip-path-52"><path class="cls-1" d="M220.33,178.58a19,19,0,1,0,19-19,19,19,0,0,0-19,19"/></clipPath><linearGradient id="未命名漸層_37" y1="275.91" x2="1" y2="275.91" gradientTransform="matrix(0, 38.01, 38.01, 0, -10249.41, 159.57)" xlink:href="#未命名漸層_3"/><clipPath id="clip-path-53"><path class="cls-1" d="M223.94,178.58a15.4,15.4,0,1,0,15.39-15.39,15.39,15.39,0,0,0-15.39,15.39"/></clipPath><linearGradient id="未命名漸層_38" x1="0" y1="275.91" x2="1" y2="275.91" gradientTransform="matrix(30.79, 0, 0, -30.79, 223.94, 8673.8)" xlink:href="#未命名漸層_4"/><clipPath id="clip-path-55"><rect class="cls-1" x="224.82" y="169.75" width="29.91" height="24.23"/></clipPath><clipPath id="clip-path-56"><path class="cls-1" d="M238.32,161.27a1,1,0,1,0,1-1,1,1,0,0,0-1,1"/></clipPath><linearGradient id="未命名漸層_39" x1="0" y1="275.91" x2="1" y2="275.91" gradientTransform="matrix(2.01, 0, 0, -2.01, 238.33, 717.1)" xlink:href="#未命名漸層_9"/><clipPath id="clip-path-57"><path class="cls-1" d="M238.32,195.9a1,1,0,1,0,1-1,1,1,0,0,0-1,1"/></clipPath><linearGradient id="未命名漸層_40" x1="0" y1="275.91" x2="1" y2="275.91" gradientTransform="matrix(2.01, 0, 0, -2.01, 238.33, 751.74)" xlink:href="#未命名漸層_9"/><clipPath id="clip-path-58"><path class="cls-1" d="M221,178.58a1,1,0,1,0,1-1,1,1,0,0,0-1,1"/></clipPath><linearGradient id="未命名漸層_41" x1="0" y1="275.91" x2="1" y2="275.91" gradientTransform="matrix(2.01, 0, 0, -2.01, 221.01, 734.43)" xlink:href="#未命名漸層_9"/><clipPath id="clip-path-59"><path class="cls-1" d="M255.64,178.58a1,1,0,1,0,1-1,1,1,0,0,0-1,1"/></clipPath><linearGradient id="未命名漸層_42" x1="0" y1="275.91" x2="1" y2="275.91" gradientTransform="matrix(2.01, 0, 0, -2.01, 255.64, 734.42)" xlink:href="#未命名漸層_9"/><clipPath id="clip-path-60"><path class="cls-1" d="M226.38,165.63a1,1,0,0,0,0,1.42,1,1,0,0,0,1.42-1.42,1,1,0,0,0-.71-.3,1,1,0,0,0-.71.3"/></clipPath><linearGradient id="未命名漸層_43" x1="0" y1="275.89" x2="1" y2="275.89" gradientTransform="matrix(2.01, 0, 0, -2.01, 226.08, 722.18)" xlink:href="#未命名漸層_9"/><clipPath id="clip-path-61"><path class="cls-1" d="M250.87,190.12a1,1,0,0,0,0,1.42,1,1,0,0,0,1.42-1.42,1,1,0,0,0-.71-.3,1,1,0,0,0-.71.3"/></clipPath><linearGradient id="未命名漸層_44" x1="0" y1="275.89" x2="1" y2="275.89" gradientTransform="matrix(2.01, 0, 0, -2.01, 250.57, 746.66)" xlink:href="#未命名漸層_9"/><clipPath id="clip-path-62"><path class="cls-1" d="M226.38,190.12a1,1,0,0,0,0,1.42,1,1,0,0,0,1.42-1.42,1,1,0,0,0-.71-.3,1,1,0,0,0-.71.3"/></clipPath><linearGradient id="未命名漸層_45" x1="0" y1="275.89" x2="1" y2="275.89" gradientTransform="matrix(2.01, 0, 0, -2.01, 226.08, 746.67)" xlink:href="#未命名漸層_9"/><clipPath id="clip-path-63"><path class="cls-1" d="M250.87,165.63a1,1,0,0,0,0,1.42,1,1,0,0,0,1.42-1.42,1,1,0,0,0-.71-.3,1,1,0,0,0-.71.3"/></clipPath><linearGradient id="未命名漸層_46" x1="0" y1="275.89" x2="1" y2="275.89" gradientTransform="matrix(2.01, 0, 0, -2.01, 250.57, 722.17)" xlink:href="#未命名漸層_9"/><clipPath id="clip-path-64"><path class="cls-1" d="M269.17,178.58a19,19,0,1,0,19-19,19,19,0,0,0-19,19"/></clipPath><linearGradient id="未命名漸層_47" y1="275.91" x2="1" y2="275.91" gradientTransform="matrix(0, 38.01, 38.01, 0, -10200.58, 159.58)" xlink:href="#未命名漸層_3"/><clipPath id="clip-path-65"><path class="cls-1" d="M272.77,178.58a15.4,15.4,0,1,0,15.4-15.39,15.4,15.4,0,0,0-15.4,15.39"/></clipPath><linearGradient id="未命名漸層_48" x1="0" y1="275.91" x2="1" y2="275.91" gradientTransform="matrix(30.79, 0, 0, -30.79, 272.77, 8673.8)" xlink:href="#未命名漸層_4"/><clipPath id="clip-path-67"><rect class="cls-1" x="273.65" y="169.75" width="29.91" height="24.23"/></clipPath><clipPath id="clip-path-68"><path class="cls-1" d="M287.16,161.27a1,1,0,1,0,1-1,1,1,0,0,0-1,1"/></clipPath><linearGradient id="未命名漸層_49" x1="0" y1="275.91" x2="1" y2="275.91" gradientTransform="matrix(2.01, 0, 0, -2.01, 287.16, 717.1)" xlink:href="#未命名漸層_9"/><clipPath id="clip-path-69"><path class="cls-1" d="M287.16,195.9a1,1,0,1,0,1-1,1,1,0,0,0-1,1"/></clipPath><linearGradient id="未命名漸層_50" x1="0" y1="275.91" x2="1" y2="275.91" gradientTransform="matrix(2.01, 0, 0, -2.01, 287.16, 751.74)" xlink:href="#未命名漸層_9"/><clipPath id="clip-path-70"><path class="cls-1" d="M269.84,178.58a1,1,0,1,0,1-1,1,1,0,0,0-1,1"/></clipPath><linearGradient id="未命名漸層_51" x1="0" y1="275.91" x2="1" y2="275.91" gradientTransform="matrix(2.01, 0, 0, -2.01, 269.84, 734.43)" xlink:href="#未命名漸層_9"/><clipPath id="clip-path-71"><path class="cls-1" d="M304.48,178.58a1,1,0,1,0,1-1,1,1,0,0,0-1,1"/></clipPath><linearGradient id="未命名漸層_52" x1="0" y1="275.91" x2="1" y2="275.91" gradientTransform="matrix(2.01, 0, 0, -2.01, 304.48, 734.42)" xlink:href="#未命名漸層_9"/><clipPath id="clip-path-72"><path class="cls-1" d="M275.21,165.63a1,1,0,0,0,0,1.42,1,1,0,0,0,1.43,0,1,1,0,1,0-1.43-1.42"/></clipPath><linearGradient id="未命名漸層_53" x1="0" y1="275.89" x2="1" y2="275.89" gradientTransform="matrix(2.01, 0, 0, -2.01, 274.92, 722.18)" xlink:href="#未命名漸層_9"/><clipPath id="clip-path-73"><path class="cls-1" d="M299.7,190.12a1,1,0,1,0,1.42,1.42,1,1,0,0,0,0-1.42,1,1,0,0,0-.71-.3,1,1,0,0,0-.71.3"/></clipPath><linearGradient id="未命名漸層_54" x1="0" y1="275.89" x2="1" y2="275.89" gradientTransform="matrix(2.01, 0, 0, -2.01, 299.41, 746.66)" xlink:href="#未命名漸層_9"/><clipPath id="clip-path-74"><path class="cls-1" d="M275.21,190.12a1,1,0,0,0,0,1.42,1,1,0,0,0,1.43,0,1,1,0,1,0-1.43-1.42"/></clipPath><linearGradient id="未命名漸層_55" x1="0" y1="275.89" x2="1" y2="275.89" gradientTransform="matrix(2.01, 0, 0, -2.01, 274.92, 746.67)" xlink:href="#未命名漸層_9"/><clipPath id="clip-path-75"><path class="cls-1" d="M299.7,165.63a1,1,0,1,0,1.42,1.42,1,1,0,0,0,0-1.42,1,1,0,0,0-.71-.3,1,1,0,0,0-.71.3"/></clipPath><linearGradient id="未命名漸層_56" x1="0" y1="275.89" x2="1" y2="275.89" gradientTransform="matrix(2.01, 0, 0, -2.01, 299.41, 722.17)" xlink:href="#未命名漸層_9"/><clipPath id="clip-path-77"><rect class="cls-1" x="28.86" y="139.38" width="20.47" height="116.65"/></clipPath><clipPath id="clip-path-78"><path class="cls-1" d="M342.77,95.63l-.6,2.88-3,14.4-.59,2.87h48.45a4.39,4.39,0,0,0,4.39-4.38V100a4.4,4.4,0,0,0-4.39-4.39Z"/></clipPath><linearGradient id="未命名漸層_57" y1="275.91" x2="1" y2="275.91" gradientTransform="matrix(52.83, 0, 0, -52.83, 338.62, 14683.35)" xlink:href="#未命名漸層_3"/><clipPath id="clip-path-79"><path class="cls-1" d="M342.17,98.51l-3,14.4h47.86a1.52,1.52,0,0,0,1.51-1.51V100a1.51,1.51,0,0,0-1.51-1.51Z"/></clipPath><linearGradient id="未命名漸層_58" x1="0" y1="275.92" x2="1" y2="275.92" gradientTransform="matrix(0, 27.5, 27.5, 0, -7223.1, 84.32)" xlink:href="#未命名漸層_4"/><clipPath id="clip-path-80"><rect class="cls-1" x="48.73" y="210.73" width="352.17" height="5.01"/></clipPath><linearGradient id="未命名漸層_59" y1="275.91" x2="1" y2="275.91" gradientTransform="matrix(0, 313.32, 313.32, 0, -86223.15, 83.27)" xlink:href="#未命名漸層_3"/></defs><title>ship</title><g class="cls-2"><g id="圖層_1" data-name="圖層 1"><g class="cls-3"><g class="cls-4"><rect class="cls-5" x="626.7" y="129.49" width="100.32" height="151.72" transform="translate(-29.58 240.74) rotate(-19.74)"/></g><g class="cls-6"><rect class="cls-7" x="646.85" y="116.96" width="84.1" height="24.68" transform="translate(-2.76 15.69) rotate(-1.3)"/></g><g class="cls-3"><g class="cls-8"><g class="cls-9"><path class="cls-10" d="M649.09,133.47a11.39,11.39,0,0,1,11.39-11.39,12.31,12.31,0,0,1,1.5.11h49.59l17.51,8.7.52-.26a1.49,1.49,0,0,0,0-2.67l-20-9.95H660a12.31,12.31,0,0,0-1.5-.11,11.38,11.38,0,0,0-9.07,18.27,11.41,11.41,0,0,1-.33-2.7"/></g></g><g class="cls-11"><g class="cls-12"><path class="cls-10" d="M698.05,249.15c-15.55,21-38.34-16-47.92-34l-.77,3.28a10.34,10.34,0,0,0,.38,6l16.75,44.77a10.32,10.32,0,0,0,9.67,6.71H694.5a10.33,10.33,0,0,0,10.33-10.33v-25.8c-2.05,2.9-4.3,6-6.78,9.37"/></g></g><path class="cls-13" d="M418.56,49.16v29.4h-3.68V49.16c0-.76.82-1.37,1.84-1.37s1.84.61,1.84,1.37"/><path class="cls-13" d="M426.75,57.6v21h-3.68v-21c0-.76.82-1.37,1.84-1.37s1.84.61,1.84,1.37"/><path class="cls-13" d="M377.53,64.26v14.3h-3.59V64.26a1.86,1.86,0,0,1,3.59,0"/></g><g class="cls-14"><rect class="cls-15" x="359.08" y="2.89" width="47.47" height="75.56"/></g><g class="cls-16"><rect class="cls-17" x="355.2" width="7.75" height="23.89"/></g><g class="cls-18"><rect class="cls-19" x="330.7" y="70.38" width="153.99" height="77.84" transform="translate(-7.9 35.51) rotate(-4.94)"/></g><g class="cls-3"><g class="cls-11"><g class="cls-20"><path class="cls-10" d="M482.16,141.94H333.24l3.85-18.72C466.16,138.1,470.4,84.76,470.4,84.76Z"/></g></g></g><g class="cls-21"><rect class="cls-22" x="-0.3" y="127" width="733.16" height="141.42" transform="translate(-0.87 1.62) rotate(-0.25)"/></g><g class="cls-3"><g class="cls-8"><g class="cls-23"><path class="cls-10" d="M726.87,186.64,573.73,154.35a102.24,102.24,0,0,0-53.58-15H58.48A76.89,76.89,0,0,0,19.15,150a67,67,0,0,1,9.72-8.46c1-.75,2.09-1.46,3.16-2.14a68.76,68.76,0,0,1,37.06-10.77H345c17.87,0,203,5.23,217.94,15l158.92,38.19a19.15,19.15,0,0,1,5,4.78"/></g></g><g class="cls-11"><g class="cls-24"><path class="cls-10" d="M721.88,213.57,563,251.75c-14.94,9.83-200.08,15.06-218,15.06H69.09A68.68,68.68,0,0,1,32,256c-.25-.15-.49-.31-.73-.47-.75-.49-1.48-1-2.21-1.49l-.23-.17c-.83-.59-1.63-1.21-2.43-1.83s-1.73-1.38-2.56-2.11-1.65-1.47-2.45-2.23l-1.19-1.16c-.39-.39-.78-.79-1.16-1.19s-.76-.8-1.12-1.21c-1.14-1.25-2.23-2.53-3.27-3.87-.32-.41-.64-.82-1-1.25l-.94-1.28c-.65-.92-1.28-1.85-1.9-2.81-.29-.47-.59-.94-.88-1.42-.58-.95-1.13-1.91-1.66-2.89-.27-.49-.53-1-.78-1.48C7,228.11,6.51,227.05,6,226c-.21-.45-.41-.9-.6-1.36-.13-.31-.26-.61-.38-.92s-.32-.79-.46-1.18c-.24-.6-.46-1.2-.66-1.81-.14-.37-.27-.74-.4-1.12-.65-2-1.23-4-1.71-6-.11-.5-.23-1-.33-1.53s-.21-1-.31-1.55-.19-1-.27-1.55l-.24-1.57h0c-.08-.52-.14-1-.2-1.57s-.11-1.06-.16-1.59-.1-1.07-.14-1.6a4.4,4.4,0,0,0-.05-.94s0,0,0,0c0-.32,0-.64,0-1,5.23,9.71,13.57,19.23,20.17,25.84a69,69,0,0,0,16.91,12.42c1.13.6,2.28,1.15,3.44,1.68a68.74,68.74,0,0,0,28.51,6.14H345c17.87,0,203-5.23,218-15.05l158.91-38.18c.23-.16,3.34-2.33,6.43-4.51a19,19,0,0,1-6.43,24.6"/></g></g></g><g class="cls-25"><rect class="cls-26" x="118.65" y="155.57" width="46.02" height="46.02" transform="translate(-38.73 39.23) rotate(-13.89)"/></g><g class="cls-27"><rect class="cls-28" x="126.27" y="163.19" width="30.79" height="30.79"/></g><g class="cls-3"><g class="cls-29"><g class="cls-30"><path class="cls-31" d="M157.06,178.58a15.39,15.39,0,0,1-29.91,5.13,15.39,15.39,0,0,0,28-8.85,15.15,15.15,0,0,0-.87-5.11,15.21,15.21,0,0,1,2.8,8.83"/></g></g><path class="cls-32" d="M142.1,166.75c0,.2-.22.39-.59.58a5.13,5.13,0,0,1-.68.26c-.13,0-.27.08-.41.14l-.45.17c-.31.12-.66.21-1,.35l-1.12.45c-.36.2-.76.37-1.16.58l-.58.34-.3.18-.29.2-.58.4-.53.43-.26.2-.24.23-.48.43c-.59.59-1.13,1.15-1.56,1.65-.88,1-1.45,1.68-1.82,1.56s-.45-1.12.1-2.56a9.9,9.9,0,0,1,1.33-2.36c.16-.21.34-.4.52-.61l.27-.31c.09-.1.2-.19.3-.29l.65-.58.72-.52.37-.25.39-.22.77-.39a16,16,0,0,1,1.53-.56q.76-.17,1.44-.27a9.26,9.26,0,0,1,1.26,0l.54,0a3.43,3.43,0,0,1,.48.08,5.82,5.82,0,0,1,.76.2c.42.15.63.33.63.52"/></g><g class="cls-33"><rect class="cls-34" x="140.66" y="160.26" width="2.01" height="2.01"/></g><g class="cls-35"><rect class="cls-36" x="140.66" y="194.89" width="2.01" height="2.01"/></g><g class="cls-37"><rect class="cls-38" x="123.34" y="177.58" width="2.01" height="2.01"/></g><g class="cls-39"><rect class="cls-40" x="157.97" y="177.58" width="2.01" height="2.01"/></g><g class="cls-41"><rect class="cls-42" x="128.31" y="165.33" width="2.21" height="2.11"/></g><g class="cls-43"><rect class="cls-44" x="152.8" y="189.82" width="2.21" height="2.11"/></g><g class="cls-45"><rect class="cls-46" x="128.31" y="189.82" width="2.21" height="2.11"/></g><g class="cls-47"><rect class="cls-48" x="152.8" y="165.33" width="2.21" height="2.11"/></g><g class="cls-49"><rect class="cls-50" x="69.82" y="155.57" width="46.02" height="46.02" transform="translate(-40.16 27.51) rotate(-13.89)"/></g><g class="cls-51"><rect class="cls-52" x="77.43" y="163.19" width="30.79" height="30.79"/></g><g class="cls-3"><g class="cls-29"><g class="cls-53"><path class="cls-31" d="M108.22,178.58a15.39,15.39,0,0,1-29.91,5.13,15.4,15.4,0,0,0,27.12-14,15.27,15.27,0,0,1,2.79,8.83"/></g></g><path class="cls-32" d="M93.27,166.75c0,.2-.22.39-.6.58a5,5,0,0,1-.67.26c-.13,0-.27.08-.42.14l-.45.17c-.31.12-.66.21-1,.35L89,168.7c-.37.2-.77.37-1.16.58l-.59.34-.3.18-.29.2-.57.4-.53.43-.27.2-.24.23-.47.43c-.6.59-1.13,1.15-1.56,1.65-.89,1-1.45,1.68-1.83,1.56s-.44-1.12.11-2.56A9.9,9.9,0,0,1,82.64,170c.16-.21.33-.4.51-.61l.27-.31.31-.29.64-.58.73-.52.37-.25c.12-.08.26-.15.39-.22l.77-.39a16,16,0,0,1,1.53-.56c.5-.11,1-.2,1.43-.27a9.26,9.26,0,0,1,1.26,0l.55,0a3.43,3.43,0,0,1,.48.08,6.28,6.28,0,0,1,.76.2c.41.15.63.33.63.52"/></g><g class="cls-54"><rect class="cls-55" x="91.82" y="160.26" width="2.01" height="2.01"/></g><g class="cls-56"><rect class="cls-57" x="91.82" y="194.89" width="2.01" height="2.01"/></g><g class="cls-58"><rect class="cls-59" x="74.5" y="177.58" width="2.01" height="2.01"/></g><g class="cls-60"><rect class="cls-61" x="109.14" y="177.58" width="2.01" height="2.01"/></g><g class="cls-62"><rect class="cls-63" x="79.48" y="165.33" width="2.21" height="2.11"/></g><g class="cls-64"><rect class="cls-65" x="103.97" y="189.82" width="2.21" height="2.11"/></g><g class="cls-66"><rect class="cls-67" x="79.48" y="189.82" width="2.21" height="2.11"/></g><g class="cls-68"><rect class="cls-69" x="103.97" y="165.33" width="2.21" height="2.11"/></g><g class="cls-70"><rect class="cls-71" x="167.49" y="155.57" width="46.02" height="46.02" transform="translate(-37.3 50.96) rotate(-13.89)"/></g><g class="cls-72"><rect class="cls-73" x="175.1" y="163.19" width="30.79" height="30.79"/></g><g class="cls-3"><g class="cls-29"><g class="cls-74"><path class="cls-31" d="M205.89,178.58A15.39,15.39,0,0,1,176,183.71a15.4,15.4,0,0,0,27.12-14,15.27,15.27,0,0,1,2.79,8.83"/></g></g><path class="cls-32" d="M190.94,166.75c0,.2-.22.39-.6.58a5,5,0,0,1-.67.26l-.42.14-.45.17c-.31.12-.66.21-1,.35l-1.11.45c-.37.2-.77.37-1.16.58l-.59.34-.3.18-.29.2-.57.4-.53.43-.27.2-.24.23-.47.43c-.6.59-1.13,1.15-1.56,1.65-.89,1-1.45,1.68-1.83,1.56s-.44-1.12.11-2.56a9.9,9.9,0,0,1,1.33-2.36c.16-.21.33-.4.51-.61l.27-.31.31-.29.64-.58.73-.52.37-.25c.12-.08.26-.15.39-.22l.77-.39a16,16,0,0,1,1.53-.56c.5-.11,1-.2,1.43-.27a9.26,9.26,0,0,1,1.26,0l.55,0a3.43,3.43,0,0,1,.48.08,6.28,6.28,0,0,1,.76.2c.41.15.63.33.63.52"/></g><g class="cls-75"><rect class="cls-76" x="189.49" y="160.26" width="2.01" height="2.01"/></g><g class="cls-77"><rect class="cls-78" x="189.49" y="194.89" width="2.01" height="2.01"/></g><g class="cls-79"><rect class="cls-80" x="172.17" y="177.58" width="2.01" height="2.01"/></g><g class="cls-81"><rect class="cls-82" x="206.81" y="177.58" width="2.01" height="2.01"/></g><g class="cls-83"><rect class="cls-84" x="177.15" y="165.33" width="2.21" height="2.11"/></g><g class="cls-85"><rect class="cls-86" x="201.64" y="189.82" width="2.21" height="2.11"/></g><g class="cls-87"><rect class="cls-88" x="177.15" y="189.82" width="2.21" height="2.11"/></g><g class="cls-89"><rect class="cls-90" x="201.64" y="165.33" width="2.21" height="2.11"/></g><g class="cls-91"><rect class="cls-92" x="216.32" y="155.57" width="46.02" height="46.02" transform="translate(-35.87 62.68) rotate(-13.89)"/></g><g class="cls-93"><rect class="cls-94" x="223.94" y="163.19" width="30.79" height="30.79"/></g><g class="cls-3"><g class="cls-29"><g class="cls-95"><path class="cls-31" d="M254.73,178.58a15.39,15.39,0,0,1-29.91,5.13,15.39,15.39,0,0,0,28-8.85,15.15,15.15,0,0,0-.87-5.11,15.21,15.21,0,0,1,2.8,8.83"/></g></g><path class="cls-32" d="M239.77,166.75c0,.2-.22.39-.59.58a5.13,5.13,0,0,1-.68.26c-.13,0-.27.08-.41.14l-.45.17c-.31.12-.66.21-1,.35l-1.12.45c-.36.2-.76.37-1.16.58l-.58.34-.3.18-.29.2-.58.4-.53.43-.26.2-.24.23-.48.43c-.59.59-1.13,1.15-1.56,1.65-.88,1-1.45,1.68-1.82,1.56s-.45-1.12.1-2.56a9.9,9.9,0,0,1,1.33-2.36c.16-.21.34-.4.52-.61l.27-.31c.09-.1.2-.19.3-.29l.65-.58.72-.52.37-.25.39-.22.77-.39a16,16,0,0,1,1.53-.56q.76-.17,1.44-.27a9.26,9.26,0,0,1,1.26,0l.54,0a3.43,3.43,0,0,1,.48.08,5.82,5.82,0,0,1,.76.2c.42.15.63.33.63.52"/></g><g class="cls-96"><rect class="cls-97" x="238.32" y="160.26" width="2.01" height="2.01"/></g><g class="cls-98"><rect class="cls-99" x="238.32" y="194.89" width="2.01" height="2.01"/></g><g class="cls-100"><rect class="cls-101" x="221.01" y="177.58" width="2.02" height="2.01"/></g><g class="cls-102"><rect class="cls-103" x="255.64" y="177.58" width="2.01" height="2.01"/></g><g class="cls-104"><rect class="cls-105" x="225.98" y="165.33" width="2.21" height="2.11"/></g><g class="cls-106"><rect class="cls-107" x="250.47" y="189.82" width="2.21" height="2.11"/></g><g class="cls-108"><rect class="cls-109" x="225.98" y="189.82" width="2.21" height="2.11"/></g><g class="cls-110"><rect class="cls-111" x="250.47" y="165.33" width="2.21" height="2.11"/></g><g class="cls-112"><rect class="cls-113" x="265.16" y="155.57" width="46.02" height="46.02" transform="translate(-34.45 74.41) rotate(-13.89)"/></g><g class="cls-114"><rect class="cls-115" x="272.77" y="163.19" width="30.79" height="30.79"/></g><g class="cls-3"><g class="cls-29"><g class="cls-116"><path class="cls-31" d="M303.56,178.58a15.39,15.39,0,0,1-29.91,5.13,15.4,15.4,0,0,0,27.12-14,15.27,15.27,0,0,1,2.79,8.83"/></g></g><path class="cls-32" d="M288.61,166.75c0,.2-.22.39-.6.58a5,5,0,0,1-.67.26c-.13,0-.27.08-.42.14l-.45.17c-.31.12-.66.21-1,.35l-1.11.45c-.37.2-.77.37-1.16.58l-.59.34-.3.18-.29.2-.57.4-.53.43-.27.2-.24.23-.47.43c-.6.59-1.13,1.15-1.56,1.65-.89,1-1.45,1.68-1.83,1.56s-.44-1.12.11-2.56A9.9,9.9,0,0,1,278,170c.16-.21.33-.4.51-.61l.27-.31.31-.29.64-.58.73-.52.37-.25c.12-.08.26-.15.39-.22l.77-.39a16,16,0,0,1,1.53-.56c.5-.11,1-.2,1.43-.27a9.26,9.26,0,0,1,1.26,0l.55,0a3.43,3.43,0,0,1,.48.08,6.28,6.28,0,0,1,.76.2c.41.15.63.33.63.52"/></g><g class="cls-117"><rect class="cls-118" x="287.16" y="160.26" width="2.01" height="2.01"/></g><g class="cls-119"><rect class="cls-120" x="287.16" y="194.89" width="2.01" height="2.01"/></g><g class="cls-121"><rect class="cls-122" x="269.84" y="177.58" width="2.02" height="2.01"/></g><g class="cls-123"><rect class="cls-124" x="304.48" y="177.58" width="2.01" height="2.01"/></g><g class="cls-125"><rect class="cls-126" x="274.82" y="165.33" width="2.21" height="2.11"/></g><g class="cls-127"><rect class="cls-128" x="299.31" y="189.82" width="2.21" height="2.11"/></g><g class="cls-129"><rect class="cls-130" x="274.82" y="189.82" width="2.21" height="2.11"/></g><g class="cls-131"><rect class="cls-132" x="299.31" y="165.33" width="2.21" height="2.11"/></g><g class="cls-3"><g class="cls-11"><g class="cls-133"><path class="cls-10" d="M32,139.39c-1.08.68-2.12,1.39-3.16,2.14,10.35,15.12,16.62,34.76,16.62,56.18a103.55,103.55,0,0,1-8.35,41.18,89.67,89.67,0,0,1-8.28,15l.23.17c.73.5,1.46,1,2.21,1.49.24.16.48.32.73.47a93.71,93.71,0,0,0,8.55-15.46,107.05,107.05,0,0,0,8.75-42.86c0-22.21-6.52-42.58-17.3-58.32"/></g></g></g><g class="cls-134"><rect class="cls-135" x="338.62" y="95.63" width="52.84" height="20.15"/></g><g class="cls-136"><rect class="cls-137" x="338.23" y="90.59" width="51.33" height="30.23" transform="translate(-14.32 129.16) rotate(-19.75)"/></g><g class="cls-138"><rect class="cls-139" x="217.83" y="37.14" width="13.96" height="352.19" transform="translate(5.93 432.56) rotate(-88.54)"/></g></g></g></g></svg>